<svg width="48" height="48" version="1.1" viewBox="0 0 48 48" xmlns="http://www.w3.org/2000/svg">
<path d="m21.431 39.966-3.8121-1.1061c-.39996-.11254-.62493-.53121-.51244-.93116l8.5304-29.385c.11249-.39998.53119-.62495.93117-.51246l3.8121 1.1061c.39996.11254.62494.53121.51245.93117l-8.5304 29.385c-.11874.39998-.53119.63119-.93116.51246zm-7.1242-7.0119 2.7185-2.8998c.28747-.30621.26872-.79366-.05-1.0749l-5.6619-4.9808 5.6619-4.9808c.31872-.28123.34372-.76868.05-1.0749l-2.7185-2.8998c-.28123-.29996-.75619-.3187-1.0624-.03127l-9.0055 8.4368c-.31872.29372-.31872.79993 0 1.0937l9.0055 8.4429c.30621.28747.78117.27496 1.0624-.03127zm20.449.03745 9.0053-8.4429c.31872-.29372.31872-.79993 0-1.0937l-9.0053-8.4491c-.29998-.28121-.77493-.26872-1.0624.03127l-2.7185 2.8998c-.28747.30621-.26872.79366.05 1.0749l5.6619 4.987-5.6619 4.9808c-.31872.28123-.34372.76868-.05 1.0749l2.7185 2.8998c.28123.30621.75617.31872 1.0624.03745z" fill="#00ff00" stroke-width=".062494"/>
</svg>
