<svg width="210.96" height="112" version="1.1" viewBox="0 0 55.816 29.633" xmlns="http://www.w3.org/2000/svg"><defs><filter id="filter3573" x="-.034137" y="-.038078" width="1.0683" height="1.0762" color-interpolation-filters="sRGB"><feGaussianBlur stdDeviation="1.6284922"/></filter><linearGradient id="linearGradient3538" x1="61.429" x2="116.43" y1="362.14" y2="408.57" gradientTransform="matrix(1.0913,0,0,1.0913,196.35,-38.224)" gradientUnits="userSpaceOnUse"><stop stop-color="#c7f994" offset="0"/><stop stop-color="#87cf3e" offset="1"/></linearGradient><linearGradient id="linearGradient4136" x1="70.492" x2="113.64" y1="416.39" y2="375.88" gradientTransform="translate(0,80)" gradientUnits="userSpaceOnUse"><stop stop-color="#3d3d3d" offset="0"/><stop stop-color="#000000" stop-opacity=".11401" offset="1"/></linearGradient><filter id="filter3291" x="-.010643" y="-.013754" width="1.0213" height="1.0275" color-interpolation-filters="sRGB"><feGaussianBlur stdDeviation="0.400625"/></filter><filter id="filter3546" x="-.0058649" y="-.0061415" width="1.0117" height="1.0123" color-interpolation-filters="sRGB"><feGaussianBlur stdDeviation="0.15992437"/></filter><linearGradient id="linearGradient2187" x1="541.34" x2="606.91" y1="104.51" y2="303.14" gradientTransform="matrix(-.39377 0 0 .39375 987.26 408.08)" gradientUnits="userSpaceOnUse"><stop stop-color="#ffffff" stop-opacity="0" offset="0"/><stop stop-color="#ffffff" stop-opacity=".27451" offset="1"/></linearGradient></defs><g transform="translate(-4.3697 7.6986)"><g transform="matrix(.093397 0 0 -.093397 12.726 5.1477)"><path d="m90.652 45.325c0-25.032-20.293-45.325-45.326-45.325s-45.326 20.293-45.326 45.325c0 25.033 20.293 45.326 45.326 45.326s45.326-20.293 45.326-45.326" fill="#e13f20"/><path d="m57.711 66.78c2.8946-1.6719 6.5938-.6817 8.2637 2.2129 1.6719 2.8945.6816 6.5937-2.2129 8.2656-2.8945 1.6699-6.5937.6777-8.2656-2.2168-1.67-2.892-.678-6.591 2.215-8.261zm-12.385-39.132c-2.6602 0-5.1836.5918-7.4453 1.6446l-4.2051-7.5352c3.5117-1.7402 7.4668-2.7226 11.65-2.7226 2.4336 0 4.7871.3378 7.0234.957.3945 2.4316 1.8379 4.6699 4.1387 6 2.2988 1.3262 4.9551 1.457 7.2558.5879 4.4747 4.4004 7.3868 10.385 7.8106 17.051l-8.625.1269c-.793-9.031-8.37-16.11-17.604-16.11zm0 35.354c9.2343 0 16.81-7.08 17.605-16.109l8.6231.1269c-.4238 6.666-3.3359 12.65-7.8106 17.051-2.3007-.8691-4.9589-.7363-7.2558.5879-2.3008 1.3281-3.7442 3.5684-4.1387 6-2.2363.6172-4.5898.9551-7.0234.9551-4.1836 0-8.1387-.9825-11.65-2.7207l4.2051-7.5352c2.2617 1.0527 4.7851 1.6445 7.4453 1.6445zm-17.676-17.677c0 5.9805 2.9707 11.264 7.5156 14.463l-4.4238 7.4102c-5.2949-3.5391-9.2344-8.9473-10.871-15.281 1.9101-1.5586 3.1328-3.9316 3.1328-6.5918 0-2.6586-1.2227-5.0316-3.1328-6.5902 1.6348-6.336 5.5742-11.744 10.871-15.283l4.4238 7.4121c-4.545 3.198-7.516 8.481-7.516 14.461zm30.063-21.452c-2.8945-1.6718-3.8867-5.371-2.2149-8.2636 1.67-2.8946 5.3692-3.8867 8.2637-2.2149 2.8945 1.67 3.8867 5.3692 2.2149 8.2637-1.67 2.8926-5.3711 3.8848-8.2637 2.2148zm-43.207 27.504c-3.3438 0-6.0528-2.7089-6.0528-6.0527 0-3.3422 2.709-6.0512 6.0528-6.0512 3.3418 0 6.0507 2.709 6.0507 6.0512 0 3.3438-2.7089 6.0527-6.0507 6.0527" fill="#ffffff"/></g><g transform="matrix(.055103 0 0 .055103 9.6069 -6.7371)"><g transform="matrix(1.5193,0,0,1.5193,-49.388,-246.89)"><path transform="matrix(1.0429,0,0,1.0429,-46.853,-90.016)" d="m331.79 510.93c-21.29 0-39.766-16.14-39.766-37.411l-.0191-21.992v-6.586h-13.498v-36.651l56.92.26806 17.806.0383c21.309 0 39.766 16.121 39.766 37.411v64.923h-61.209z" fill="#000000" fill-rule="evenodd" filter="url(#filter3573)" opacity=".26"/><path d="m354.83 425.26v-49.445c0-16.519-14.487-29.91-32.361-29.91h-18.552v-.0399l-50.175-.21924v18.041h7.7022c5.3763 0 6.3261 3.7114 6.3261 8.8483l.0399 31.894c0 16.519 14.487 29.91 32.341 29.91h44.082c5.6514 0 10.597-3.579 10.597-9.0792z" fill="url(#linearGradient3538)" fill-rule="evenodd" style="fill:url(#linearGradient3538)"/><path transform="matrix(1.0485,0,0,1.0485,200.58,-95.365)" d="m142.94 500.53c-10.752-7.4094-18.367-15.92-24.781-27.188-12.644-23.358-9.6879-34.953-41-37.688-9.0363 0-15.051-2-24.562-2v3.3125c1e-6 1e-5 3.7587 1.9075 7.0625 1.9075 4.9267 1e-5 5.7812 3.4176 5.7812 8.125l.03125 29.155c-3e-6 15.138 13.295 27.406 29.656 27.406h40.372c2.9636 0 5.6257-1.1679 7.4375-3.0312z" fill="url(#linearGradient4136)" filter="url(#filter3291)" opacity=".17514" style="fill:url(#linearGradient4136)"/><path transform="matrix(1.0485,0,0,1.0485,200.58,-95.365)" d="m105.52 438.54c-3.8367 0-7.2457 1.4244-9.9848 4.1914-2.7377 2.7655-4.1752 6.218-4.1752 10.114v19.695h8.933v-19.69c0-1.4934.48728-2.6611 1.5536-3.7382 1.0698-1.0806 2.2026-1.5697 3.6735-1.5697 1.5018 0 2.6176.4867 3.6897 1.5697 1.0663 1.0771 1.5536 2.2448 1.5536 3.7382v19.695h8.933v-19.69c0-1.4934.48728-2.6611 1.5536-3.7382 1.0721-1.083 2.1879-1.5697 3.6897-1.5697 1.4709 0 2.6037.48916 3.6735 1.5697 1.0663 1.0771 1.5536 2.2448 1.5536 3.7382l.0486 23.012c0 4.9089-4.6749 9.0462-10.681 9.0462l-28.806-.11326c-4.6347 0-8.5931-4.5112-8.5931-10.309v-43.335h-8.4475v45.002c0 4.7747 1.7472 8.9618 5.1462 12.348 2.9052 2.8676 6.3991 4.5644 10.325 4.9843v.16191h32.074c4.9287 0 9.2588-1.8326 12.752-5.389h.0162c2.971-3.0524 4.7079-6.71 5.13-10.826l-.0324-24.582c0-3.8962-1.4374-7.3487-4.1752-10.114-2.7391-2.767-6.1481-4.1914-9.9848-4.1914-3.766 0-7.0613 1.4004-9.7259 3.9648-2.6568-2.5601-5.9291-3.9648-9.6936-3.9648z" fill="#000000" fill-opacity=".080402" fill-rule="evenodd" filter="url(#filter3546)"/><g fill-rule="evenodd"><path d="m310.47 364.69c-4.0228 0-7.5972 1.4935-10.469 4.3947-2.8705 2.8996-4.3777 6.5195-4.3777 10.605v20.65h9.3662v-20.65c0-1.5658.51091-2.7901 1.6289-3.9195 1.1217-1.133 2.3094-1.6458 3.8517-1.6458 1.5746 0 2.7445.51031 3.8686 1.6458 1.118 1.1293 1.6289 2.3537 1.6289 3.9195v20.65h9.3662v-20.65c0-1.5658.51092-2.7901 1.6289-3.9195 1.1241-1.1355 2.294-1.6458 3.8687-1.6458 1.5423 0 2.73.51289 3.8516 1.6458 1.118 1.1293 1.6289 2.3537 1.6289 3.9195l.0509 24.128c0 5.147-4.9016 9.4849-11.199 9.4849l-30.203-.11875c-4.8595 0-9.0099-4.73-9.0099-10.808v-45.437h-8.8572v47.185c0 5.0063 1.8319 9.3964 5.3958 12.946 3.0461 3.0067 6.7094 4.9557 10.825 5.3958l33.63-8e-5c5.1678 0 9.7079-1.9215 13.371-5.6504h.017c3.1151-3.2005 4.9362-7.0354 5.3788-11.351l-.0339-25.774c0-4.0852-1.5071-7.7051-4.3777-10.605-2.8719-2.9012-6.4463-4.3947-10.469-4.3947-3.9487 0-7.4038 1.4683-10.198 4.1571-2.7857-2.6843-6.2166-4.1571-10.164-4.1571z" fill="#ffffff"/><path d="m304.96 413.22v9.25h22c5.1677 0 9.681-1.9274 13.344-5.6562h.0313c3.1151-3.2005 4.9324-7.0278 5.375-11.344v-5.25h-9.3438v3.5938c0 5.147-4.8904 9.4688-11.188 9.4688l-20.219-.0625z" fill="#52a800" opacity=".3"/><path d="m299.85 441.19c-21.29 0-39.766-16.14-39.766-37.411l-.0191-25.828v-6.586h-13.498v-32.816l56.92.26806 17.806.0383c21.309 0 39.766 16.121 39.766 37.411v64.923h-61.209zm52.536-17.416v-47.508c0-15.872-13.919-28.738-31.093-28.738h-17.825v-.0383l-48.209-.21065v15.412h5.4004c3.6664 0 8.0782 3.4455 8.0782 8.5016l.0383 32.566c0 15.872 13.919 28.738 31.074 28.738h42.355c5.4299 0 10.181-3.4387 10.181-8.7235z" fill="#ffffff"/></g></g></g><g transform="matrix(.054246 0 0 .054246 25.497 -6.0357)" fill="#73ba25"><path d="m217.27 105.47c-5.4606-.20052-9.747-4.8037-9.5647-10.272.0841-2.6475 1.2158-5.0947 3.139-6.9015 1.931-1.8063 4.4531-2.7465 7.1007-2.6469 5.4684.19137 9.756 4.7869 9.5723 10.264-.0828 2.6392-1.199 5.0862-3.13 6.9008-1.94 1.7984-4.4622 2.7388-7.1175 2.656zm2.2983-8.9826c2.4303 0 4.4027-1.3148 4.4027-2.9295 0-1.6232-1.9725-2.9387-4.4027-2.9387-2.4315 0-4.3962 1.3154-4.3962 2.9387 0 1.6148 1.9647 2.9295 4.3962 2.9295"/><path d="m104.93 162.43.35143-.033.057-.41614c-.09-.32674-.30193-.62036-.62933-4.6708-.2779-3.5848-.84123-13.416 4.1069-18.291 1.9196-1.9026 4.8504-3.593 7.162-4.1399 9.4801-2.311 21.786-.71053 32.295 11.44 5.4226 6.279 8.0845 9.1451 9.4154 10.427l.4568.42444.55566.40029c.43263.24489 18.062 8.3616 18.062 8.3616l.3591-.09.009-.38312c-.11419-.1307-11.17-14.413-9.211-26.179 1.5516-9.3741 9.0144-8.533 19.328-7.3574 3.3723.38378 7.2102.82473 11.179.91476 11.08.0654 23.019-1.9678 30.376-5.1853 4.7604-2.082 7.7978-3.4542 9.7008-5.1853.68506-.56333 1.0442-1.4939 1.4121-2.474l.25374-.66103c.30959-.79237.75873-2.4906.95543-3.4135.09-.40795.13068-.84941-.15604-1.0695l-1.0201.18774c-3.2251 1.9354-11.302 5.6263-18.862 5.7734-9.3659.19539-28.245-9.4236-30.213-10.444l-.18774-.22009c-.47445-1.1273-3.3076-7.8313-3.9039-9.2434 13.588 8.9491 24.856 13.898 33.487 14.665 9.6031.85708 17.091-4.3848 20.292-6.6229.62803-.42444 1.1025-.76755 1.2979-.84057l.20423-.33493c-.53162-3.3723-5.5533-19.704-9.3417-23.623-1.053-1.0778-1.8942-2.1226-3.593-3.1192-13.726-8.002-46.315-12.837-47.842-13.057l-.26139.0735-.0977.2284s-.12302 6.7611-.13954 7.5128c-3.3318-1.1108-27.525-8.9256-50.21-9.7173-19.229-.67765-45.498-1.5924-82.619 21.222l-1.0943.68571c-17.458 10.893-29.51 24.317-35.814 39.93-1.9761 4.9074-4.6379 15.989-2.0091 26.416 1.1432 4.565 3.2581 9.1375 6.1166 13.237 6.4427 9.2593 17.262 15.409 28.914 16.445 16.445 1.4692 28.906-5.9199 33.34-19.753 3.0456-9.5454 0-23.549-11.677-30.694-9.4966-5.8222-19.72-4.4913-25.64-.57982-5.1442 3.413-8.059 8.7042-8.002 14.527.1142 10.313 9.0068 15.8 15.392 15.809 1.8612 0 3.7231-.31843 5.8299-1.0041.74353-.22905 1.4534-.50617 2.2292-.9883l.23723-.15473.15473-.09-.057.0247c1.4616-.98011 2.3434-2.5964 2.3434-4.3277 0-.47381-.0735-.95542-.20423-1.4374-.75107-2.6047-3.3318-4.1887-6.0101-3.6991l-.3591.0735-.4898.16305-.71052.23723c-1.4698.36729-2.5806.39211-2.809.39964-.75107-.0489-4.4343-1.1507-4.4343-5.1847v-.0488c.009-1.4781.60452-2.5152.93126-3.0786 1.1348-1.7965 4.2706-3.56 8.5082-3.1846 5.5533.47329 9.5542 3.3235 12.208 8.6965 2.4664 4.997 1.8213 11.138-1.6576 15.645-3.4542 4.4673-9.6025 6.3615-17.785 5.4708-8.2474-.90593-15.22-5.6503-19.124-13.04-3.8214-7.2186-4.034-15.784-.54683-22.365 8.3534-15.76 24.121-15.597 32.768-14.102 12.804 2.2127 24.423 12.46 29.592 26.089.82472 2.1721 1.249 3.895 1.6163 5.4626l.55566 2.3598 14.461 7.063.19669.13888.00039-.00013zm102.79-76.923c-2.7265 2.5311-4.2871 5.9852-4.4178 9.709-.25242 7.6752 5.774 14.143 13.449 14.429 3.7402.12238 7.2838-1.1927 10.003-3.7402 2.719-2.5394 4.2794-5.9853 4.4178-9.7008.2614-7.6835-5.7652-14.159-13.456-14.436-3.7237-.12237-7.2762 1.192-9.9952 3.7396" fill-rule="evenodd"/></g><path d="m47.745 8.1916c-2.3825 0-4.3115 1.8936-4.3157 4.2314h-.000766v3.2755h.000766c.0011.53019.43958.95965.9803.95965h3.3358c2.3829-.0014 4.3115-1.8949 4.3115-4.2314 3e-6-2.3378-1.9311-4.2314-4.3157-4.2314zm.87662 1.7424c.72448 0 1.4085.5441 1.4085 1.2947 0 .06963.000416.13929-.01118.21823-.02008.19968-.20614.34319-.40873.31504-.20259-.02848-.34007-.21718-.3026-.41458.0035-.02253.0047-.0579.0047-.11872 0-.42567-.35508-.59004-.69076-.59004-.3356 0-.63808.27681-.6385.59004.0058.36216 0 .72153 0 1.0831l.62291-.0046c.48636-.0099.49184.70846.0056.70509l-.62839.0046c-.0015.29131.0022.23863.000766.38534 0 0 .0053.3563-.0055.62628-.07519.79318-.76367 1.427-1.591 1.427-.87704 0-1.5994-.70299-1.5994-1.5653.02633-.88674.74724-1.5842 1.6555-1.5762l.50659-.0038v.70383l-.50659.0046h-.0027c-.499.01448-.92678.34694-.93478.87114 0 .47751.39339.86019.88168.86019.48762 0 .87789-.348.87789-.85934l-.000766-2.6657c.000263-.04948.0019-.08881.0074-.14338.0823-.65199.67686-1.1489 1.3499-1.1489z" style="fill:#51a2da;stroke-width:.042145"/><g transform="matrix(.11686 0 0 .11686 10.86 6.983)" fill="#d70751"><path d="m57.072 52.558c-1.494.02.281.768 2.232 1.069.541-.422 1.027-.846 1.463-1.26-1.213.297-2.449.304-3.695.191"/><path d="m65.089 50.559c.893-1.229 1.541-2.573 1.77-3.963-.201.99-.736 1.845-1.244 2.749-2.793 1.759-.264-1.044-.002-2.111-3.002 3.783-.414 2.268-.524 3.325"/><path d="m68.052 42.855c.182-2.691-.529-1.839-.768-.814.278.146.499 1.898.768.814"/><path d="m51.404 6.076c.798.142 1.724.252 1.591.443.876-.193 1.073-.367-1.591-.443"/><path d="m52.996 6.519-.561.117.523-.048.038-.069"/><path d="m77.865 43.875c.09 2.416-.705 3.59-1.424 5.666l-1.293.643c-1.057 2.054.105 1.304-.652 2.937-1.652 1.467-5.006 4.589-6.08 4.875-.785-.017.531-.926.703-1.281-2.209 1.516-1.773 2.276-5.152 3.199l-.098-.221c-8.33 3.92-19.902-3.847-19.75-14.443-.088.672-.253.504-.437.774-.43-5.451 2.518-10.926 7.49-13.165 4.863-2.406 10.564-1.42 14.045 1.829-1.912-2.506-5.721-5.163-10.232-4.917-4.421.072-8.558 2.881-9.938 5.932-2.264 1.425-2.528 5.496-3.514 6.242-1.329 9.76 2.497 13.975 8.97 18.936 1.016.686.286.791.422 1.313-2.15-1.006-4.118-2.526-5.738-4.387.86 1.257 1.787 2.479 2.986 3.439-2.029-.685-4.738-4.913-5.527-5.085 3.495 6.258 14.178 10.975 19.775 8.634-2.59.096-5.879.053-8.787-1.022-1.225-.629-2.884-1.93-2.587-2.173 7.636 2.851 15.522 2.158 22.128-3.137 1.682-1.31 3.518-3.537 4.049-3.567-.799 1.202.137.578-.477 1.639 1.672-2.701-.729-1.1 1.73-4.664l.908 1.25c-.34-2.244 2.785-4.966 2.467-8.512.717-1.084.799 1.168.039 3.662 1.055-2.767.279-3.212.549-5.496.291.768.678 1.583.875 2.394-.688-2.675.703-4.503 1.049-6.058-.342-.15-1.061 1.182-1.227-1.976.025-1.372.383-.719.52-1.057-.268-.155-.975-1.207-1.404-3.224.309-.475.832 1.229 1.256 1.298-.273-1.603-.742-2.826-.762-4.057-1.24-2.59-.439.346-1.443-1.112-1.32-4.114 1.094-.955 1.258-2.823 1.998 2.895 3.137 7.385 3.662 9.244-.4-2.267-1.045-4.464-1.834-6.589.609.257-.979-4.663.791-1.405-1.889-6.945-8.078-13.435-13.773-16.479.695.637 1.574 1.437 1.26 1.563-2.834-1.685-2.336-1.818-2.742-2.53-2.305-.939-2.459.077-3.984.002-4.35-2.308-5.188-2.063-9.191-3.507l.182.852c-2.881-.96-3.357.362-6.47.002-.189-.147.998-.536 1.976-.677-2.786.368-2.656-.55-5.382.101.671-.471 1.383-.784 2.099-1.184-2.271.138-5.424 1.322-4.451.244-3.705 1.654-10.286 3.975-13.979 7.438l-.116-.776c-1.692 2.031-7.379 6.066-7.832 8.699l-.453.105c-.879 1.491-1.45 3.18-2.148 4.713-1.151 1.963-1.688.756-1.524 1.064-2.265 4.592-3.392 8.45-4.363 11.616.692 1.035.017 6.232.278 10.391-1.136 20.544 14.418 40.489 31.42 45.093 2.492.893 6.197.861 9.349.949-3.718-1.064-4.198-.563-7.822-1.826-2.613-1.232-3.185-2.637-5.037-4.244l.733 1.295c-3.63-1.285-2.111-1.59-5.065-2.525l.783-1.021c-1.177-.09-3.117-1.982-3.647-3.033l-1.288.051c-1.546-1.906-2.371-3.283-2.31-4.35l-.416.742c-.471-.809-5.691-7.158-2.983-5.68-.503-.458-1.172-.747-1.897-2.066l.551-.629c-1.301-1.677-2.398-3.826-2.314-4.542.695.938 1.177 1.114 1.655 1.275-3.291-8.164-3.476-.449-5.967-8.31l.526-.042c-.403-.611-.65-1.27-.974-1.919l.23-2.285c-2.368-2.736-.662-11.645-.319-16.53.235-1.986 1.977-4.101 3.3-7.418l-.806-.138c1.542-2.688 8.802-10.799 12.166-10.383 1.629-2.046-.324-.008-.643-.522 3.579-3.703 4.704-2.616 7.119-3.283 2.603-1.545-2.235.604-1.001-.589 4.503-1.149 3.19-2.614 9.063-3.197.62.352-1.437.544-1.953 1.001 3.75-1.836 11.869-1.417 17.145 1.018 6.117 2.861 12.994 11.314 13.266 19.267l.309.083c-.156 3.162.484 6.819-.627 10.177l.751-1.591"/><path d="m40.761 54.608-.211 1.047c.983 1.335 1.763 2.781 3.016 3.821-.902-1.759-1.571-2.486-2.805-4.868"/><path d="m43.082 54.518c-.52-.576-.826-1.268-1.172-1.956.33 1.211 1.006 2.252 1.633 3.312l-.461-1.356"/><path d="m84.166 45.588-.219.552c-.402 2.858-1.273 5.686-2.605 8.309 1.472-2.767 2.421-5.794 2.824-8.861"/><path d="m51.701 5.359c1.009-.369 2.482-.203 3.556-.446-1.398.117-2.789.187-4.162.362l.606.084"/><path d="m16.23 24.221c.233 2.154-1.62 2.991.41 1.569 1.09-2.454-.424-.677-.41-1.569"/><path d="m13.842 34.195c.469-1.437.553-2.299.732-3.132-1.293 1.654-.596 2.007-.732 3.132"/></g><g transform="matrix(.044561 0 0 .044561 13.207 -22.874)" fill-rule="evenodd"><path d="m773.66 426.72c-8.4571 20.735-13.592 34.317-23.008 54.435 5.7731 6.1195 12.868 13.22 24.376 21.268-12.372-5.0911-20.806-10.189-27.113-15.493-12.05 25.145-30.942 60.949-69.255 129.79 30.105-17.38 53.443-28.1 75.193-32.192-.93052-4.011-1.4276-8.37-1.3916-12.896l.0232-.95093c.47782-19.292 10.516-34.127 22.405-33.12 11.888 1.0073 21.143 17.469 20.665 36.761-.09 3.6339-.51248 7.1256-1.2292 10.367 21.516 4.2106 44.634 14.883 74.335 32.03-5.8573-10.784-11.104-20.499-16.096-29.757-7.8643-6.0954-16.063-14.025-32.795-22.614 11.501 2.9884 19.744 6.444 26.162 10.298-50.77-94.51-54.87-107.07-72.27-147.92z" fill="#1793d1"/><path d="m827.13 539.65c-41.181-55.895-50.727-100.94-53.145-111.7 21.967 50.669 21.817 51.29 53.145 111.7z" fill="#ffffff" fill-opacity=".16568"/><path d="m774.03 427.46c-1.0681 2.6257-2.0757 5.1857-3.0615 7.6074-1.0812 2.6558-2.1325 5.2145-3.1543 7.7002-1.0218 2.4858-2.0576 4.842-3.0615 7.2363-1.004 2.3945-1.9411 4.7617-2.9688 7.1436-1.0276 2.3818-2.1543 4.7884-3.2471 7.2363-1.0927 2.448-2.2334 4.9218-3.4326 7.5146-1.1994 2.5928-2.4564 5.3477-3.8037 8.1641-.18273.38196-.37075.81915-.55664 1.206 5.7576 6.0989 12.856 13.144 24.307 21.152-12.372-5.0911-20.783-10.189-27.09-15.493-.32869.67104-.58906 1.261-.92774 1.9482-1.2472 2.5846-2.5844 5.1441-3.9892 7.9785-.33495.66595-.58339 1.2666-.92774 1.9482-1.485 2.9804-3.0457 6.0652-4.7314 9.3701-.33426.65055-.6781 1.191-1.0205 1.8555-1.0203 1.9796-4.2749 8.2232-7.6074 14.565-1.9432 3.7049-3.4689 6.7399-5.6592 10.854-.62086 1.182-1.8984 3.5479-2.2266 4.1748 24.121-13.578 50.143-33.299 97.412-16.421-2.3671-4.4832-4.636-8.6644-6.6797-12.617-2.0437-3.9529-3.8961-7.6323-5.6592-11.133-1.763-3.5004-3.3921-6.8007-4.917-9.9268-1.5249-3.126-2.9383-6.0765-4.2676-8.9062s-2.6275-5.5526-3.8037-8.1641c-1.1763-2.6114-2.2739-5.1364-3.3398-7.6074-1.0661-2.4712-2.0634-4.9204-3.0615-7.3291-.99823-2.4088-1.9959-4.719-2.9688-7.1436-.42343-1.055-.78165-2.1785-1.2061-3.2471-2.6356-6.1897-5.2236-12.325-8.3496-19.668z" fill="url(#linearGradient2187)" style="fill:url(#linearGradient2187)"/></g></g></svg>
