<svg width="210.96" height="112" version="1.1" viewBox="0 0 55.816 29.633" xmlns="http://www.w3.org/2000/svg" xmlns:xlink="http://www.w3.org/1999/xlink"><defs><linearGradient id="linearGradient4779" x1="43" x2="69" y1="994.36" y2="1017.4" gradientTransform="matrix(.7377 0 0 .7826 3.6721 209.61)" gradientUnits="userSpaceOnUse"><stop style="stop-color:#000000;stop-opacity:.57647" offset="0"/><stop style="stop-color:#000000;stop-opacity:.57647" offset=".47826"/><stop style="stop-color:#000000;stop-opacity:0" offset="1"/></linearGradient><linearGradient id="linearGradient4779-2" x1="43" x2="69" y1="994.36" y2="1017.4" gradientTransform="matrix(.1987 0 0 .2108 -2.2217 -205.97)" gradientUnits="userSpaceOnUse"><stop style="stop-color:#000000;stop-opacity:.57647" offset="0"/><stop style="stop-color:#000000;stop-opacity:.57647" offset=".47826"/><stop style="stop-color:#000000;stop-opacity:0" offset="1"/></linearGradient><linearGradient id="linearGradient5586-5" x1="61.452" x2="74.297" y1="1011.8" y2="1023.9" gradientTransform="matrix(.1987 0 0 .2108 45.061 -204.93)" gradientUnits="userSpaceOnUse"><stop style="stop-color:#000000;stop-opacity:.57647" offset="0"/><stop style="stop-color:#000000;stop-opacity:.57647" offset=".1"/><stop style="stop-color:#000000;stop-opacity:0" offset="1"/></linearGradient><linearGradient id="linearGradient8634" x1="44.969" x2="69" y1="994.75" y2="1017.4" gradientTransform="matrix(.1987 0 0 .2108 41.853 -205.23)" gradientUnits="userSpaceOnUse"><stop style="stop-color:#000000;stop-opacity:.57647" offset="0"/><stop style="stop-color:#000000;stop-opacity:.57647" offset=".44052"/><stop style="stop-color:#000000;stop-opacity:0" offset="1"/></linearGradient></defs><g transform="translate(-4.3697 7.6986)"><g transform="matrix(.28222 0 0 .28222 4.6519 -274.78)"><rect x="14" y="976.36" width="45" height="45" ry="1.1124e-5" style="fill:#01ff20"/><rect x="15.475" y="977.84" width="42.049" height="42.049" ry="1.0395e-5" style="fill:#222222"/><path d="m52.361 990.38-15.492 1.4772h-16.23l12.541 13.163-5.1639 2.338h-7.377l11.066 12.531h25.82v-24.261z" style="fill-rule:evenodd;fill:url(#linearGradient4779)"/><path d="m52.361 990.38v1.4754h-31.721v-1.4754z" style="fill:#01ff20"/><circle cx="50.5" cy="990.86" r="0" style="fill:#01ff20"/><path d="m52.361 1005.9v1.4754h-31.721v-1.4754z" style="fill:#01ff20"/><g transform="matrix(.7377 0 0 .7377 6.6168 254.62)"><circle cx="35.008" cy="1019.4" r="5" style="fill:#01ff20"/><circle cx="35.008" cy="1019.4" r="3" style="fill:#222222"/></g><g transform="matrix(.7377 0 0 .7377 3.6721 256.1)"><circle cx="52.998" cy="996.36" r="5" style="fill:#01ff20"/><circle cx="52.998" cy="996.36" r="3" style="fill:#222222"/></g></g><g transform="translate(25.927 .76806)"><rect x="9.5367e-8" y="9.5367e-8" width="12.7" height="12.7" ry="3.1395e-6" style="fill:#01ff20"/><rect x=".41639" y=".41639" width="11.867" height="11.867" ry="2.9337e-6" style="fill:#222222"/><path d="m10.403 3.2306-3.6833 1.5024-4.3548-.1779 3.4433 4.9356c.91279 1.2705 1.0149 1.4342 2.115 2.793h4.3601v-6.5347z" style="fill-rule:evenodd;fill:url(#linearGradient4779-2)"/><circle cx="24.056" cy=".28261" r="0" style="fill:#01ff20"/><g transform="matrix(1.3636,0,0,1.3636,2.0205,-394.32)"><rect x=".3616" y="291.56" width="5.6268" height=".80383" fill="#00ff00" stroke="#00ff00" stroke-linecap="round" stroke-linejoin="round" stroke-opacity=".88303" stroke-width=".19403"/><g transform="matrix(.29333 0 0 .29333 1.0324 209.96)"><rect x="6.606" y="279.75" width="8.7879" height="13.702" fill="none" stroke="#00ff00" stroke-linecap="round" stroke-linejoin="round" stroke-opacity=".88303"/><g fill="#00ff00"><rect x="8.1888" y="282.68" width="5.6224" height=".75595"/><rect x="8.1888" y="285.35" width="5.6224" height=".75595"/><rect x="8.1888" y="288.01" width="5.6224" height=".75595"/><rect x="8.1888" y="290.68" width="5.6224" height=".75595"/></g></g></g></g><g transform="translate(-4.0305 -.27039)"><rect x="47.282" y="1.0385" width="12.7" height="12.7" ry="3.1395e-6" style="fill:#01ff20"/><rect x="47.699" y="1.4548" width="11.867" height="11.867" ry="2.9337e-6" style="fill:#222222"/><path d="m59.541 12.015-1.8647-2.5566-4.3595.72436 2.5391 3.0304c2.7308 0 1.0255.10876 3.71.10876 0-.95058-.02489-.05587-.02489-1.307z" style="fill-rule:evenodd;fill:url(#linearGradient5586-5)"/><path d="m52.944 7.2022-2.712 2.956 3.6676 3.1519c2.7308 0-.22591-.28728 2.4586-.28728 1.9587-1.9587 2.7233-.47982-3.4142-5.8206z" style="fill-rule:evenodd;fill:url(#linearGradient8634)"/><path d="m52.85 7.5669-2.4521 2.4521c-.11826.11826-.30999.11826-.42824 0l-.28601-.28599c-.11806-.11806-.11829-.3094-.000485-.42774l1.9433-1.9525-1.9433-1.9524c-.11778-.11834-.11756-.30968.000484-.42774l.28599-.28599c.11826-.11826.30999-.11826.42824 0l2.4521 2.4521c.11826.11825.11826.30998 0 .42824zm4.82 2.3093v-.40375c0-.16724-.13557-.30281-.30281-.30281h-3.8356c-.16724 0-.30281.13557-.30281.30281v.40375c0 .16724.13557.30281.30281.30281h3.8356c.16724 0 .30281-.13557.30281-.30281z" style="fill:#00ff00;stroke-width:.012617"/></g></g></svg>
