<svg width="268.03" height="110.01" version="1.1" viewBox="0 0 70.918 29.107" xmlns="http://www.w3.org/2000/svg"><g transform="translate(3.1813 7.4341)"><g transform="matrix(.84493 0 0 .84493 -67.951 -267.48)" fill="none" stroke="#00ff00" stroke-width="1.6"><g transform="matrix(.88972 0 0 .88972 9.825 35.764)" filter="url(#a)"><path d="m89.022 316.99v3.2"/><path d="m94.842 319.18-2.2627 2.2627"/><path d="m97.23 324.96h-3.2"/><path d="m94.791 330.74-2.2627-2.2627"/><path d="m89.013 333.18 2e-6-3.2"/><path d="m83.21 330.84 2.2627-2.2627"/><path d="m80.747 324.96h3.2"/><path d="m83.21 319.18 2.2627 2.2627"/><circle cx="89" cy="325" r="2.854" stroke-linejoin="round"/></g><g transform="matrix(.88972 0 0 .88972 9.825 35.764)"><path d="m89.022 316.99v3.2"/><path d="m94.842 319.18-2.2627 2.2627"/><path d="m97.23 324.96h-3.2"/><path d="m94.791 330.74-2.2627-2.2627"/><path d="m89.013 333.18 2e-6-3.2"/><path d="m83.21 330.84 2.2627-2.2627"/><path d="m80.747 324.96h3.2"/><path d="m83.21 319.18 2.2627 2.2627"/></g><circle cx="89.01" cy="324.92" r="2.5393" stroke-linejoin="round" stroke-width="1.4236"/></g><g transform="matrix(.26458 0 0 .26458 27.911 .76805)" style="enable-background:new"><g transform="translate(0,-1030.4)" stroke="#00ff00" stroke-linejoin="round"><circle cx="24" cy="1054.4" r="21.231" fill="none" stroke-linecap="round" stroke-width="3.5385"/><path d="m3.3422 1060.2c3.4526-2.5448 6.6757-5.4007 9.6176-8.5218 1.578-1.6741 3.1289-3.4659 5.189-4.4899 1.4313-.7114 3.05-1.0115 4.6478-.9675s3.1758.4241 4.662 1.0125c3.5619 1.4102 6.6223 4.0531 8.5361 7.3718-1.5066-.6096-3.1701-.8266-4.7827-.6239-1.6126.2026-3.1707.8245-4.4796 1.788-.78038.5744-1.4776 1.2744-1.98 2.103-.63727 1.0511-.94368 2.288-.94708 3.5171-.0034 1.2292.2891 2.4502.77874 3.5776 1.0166 2.3408 2.9082 4.2894 5.2179 5.375s5.017 1.2986 7.468.5877l-4.7973 2.3371c-1.947.9485-3.9764 1.8037-6.1285 2.0464s-4.3327-.083-6.428-.6317c-4.0951-1.0714-8.0521-2.9327-11.118-5.8515-2.4796-2.3607-4.324-5.3824-5.2903-8.6669" fill="url(#a)" fill-rule="evenodd" stroke-width="3.603"/></g></g><g transform="matrix(.26458 0 0 .26458 14.761 .76806)" style="enable-background:new"><g stroke="#00ff00" stroke-linecap="round" stroke-linejoin="round"><circle cx="24" cy="24" r="21.231" fill="none" stroke-width="3.5385"/><g fill="#00ff00" stroke-width="1.5084"><circle cx="20.096" cy="21.4" r="9.0506" opacity=".5"/><circle cx="27.904" cy="26.5" r="9.0506" opacity=".5"/></g></g></g><g transform="matrix(.59011 0 0 .59011 40.801 .48434)"><path transform="translate(637.04,-161.34)" d="m-625.51 176.19q-.60272 0-1.0655-.0538t-.91486-.18297q-.48433-.12916-.79646-.34442-.31213-.22602-.50586-.5812-.19374-.37671-.19374-.86104v-2.906q0-.52739.21526-.94715.21526-.43052.58121-.67806.34441-.22603.81798-.38747.48434-.16145.94715-.21526.38747-.043.93638-.043 1.4853 0 2.8414.22602v1.27q-1.2485-.30136-2.8414-.30136-1.819 0-1.819 1.0548v2.8092q0 .51662.48434.73188.4951.21526 1.4853.21526.52739 0 1.1301-.16145v-1.6252h-1.1409v-1.0978h2.7446v3.6271q-.53815.19373-1.3777.32289-.82875.12915-1.5284.12915z" fill="#00ff00" stroke-width="1.1959"/><g transform="matrix(1.1959,0,0,1.1959,-996.36,-212.41)" fill="none" stroke="#00ff00"><path d="m842.47 195.64v-4.1462" stroke-width="1.149"/><circle cx="842.55" cy="186.88" r="6.4958" stroke-width="1.5595"/><g stroke-width="1.149"><path d="m842.47 182.54v-4.1462"/><path d="m834.04 187.12h4.1462"/><path d="m846.84 187.12h4.1462"/></g></g></g><path d="m62.933 4.836h-2.7432l1.0127-3.0855c.09509-.36132-.17827-.71789-.55149-.71789h-3.423c-.28525 0-.52772.21156-.56575.49444l-.76068 5.7051c-.04516.3423.22107.64657.56575.64657h2.8216l-1.0958 4.6235c-.08558.36132.19017.70125.55387.70125.19968 0 .38985-.10459.49444-.28526l4.1837-7.2264c.22107-.37796-.05229-.85576-.49206-.85576z" fill="#00ff00" stroke-width=".023771"/></g></svg>
