<?xml version="1.0" encoding="UTF-8" standalone="no"?>
<svg
   xmlns:dc="http://purl.org/dc/elements/1.1/"
   xmlns:cc="http://creativecommons.org/ns#"
   xmlns:rdf="http://www.w3.org/1999/02/22-rdf-syntax-ns#"
   xmlns:svg="http://www.w3.org/2000/svg"
   xmlns="http://www.w3.org/2000/svg"
   xmlns:xlink="http://www.w3.org/1999/xlink"
   xmlns:sodipodi="http://sodipodi.sourceforge.net/DTD/sodipodi-0.dtd"
   xmlns:inkscape="http://www.inkscape.org/namespaces/inkscape"
   width="957.58234"
   height="365.95581"
   viewBox="0 0 253.36032 96.825811"
   version="1.1"
   id="svg8"
   inkscape:version="1.0.1 (3bc2e813f5, 2020-09-07)"
   sodipodi:docname="effects-layer-concept.svg">
  <defs
     id="defs2">
    <linearGradient
       inkscape:collect="always"
       id="linearGradient3901">
      <stop
         style="stop-color:#d40055;stop-opacity:1"
         offset="0"
         id="stop3897" />
      <stop
         style="stop-color:#730430;stop-opacity:1"
         offset="1"
         id="stop3899" />
    </linearGradient>
    <linearGradient
       inkscape:collect="always"
       id="linearGradient2348">
      <stop
         style="stop-color:#000000;stop-opacity:0"
         offset="0"
         id="stop2344" />
      <stop
         style="stop-color:#000000;stop-opacity:1"
         offset="1"
         id="stop2346" />
    </linearGradient>
    <linearGradient
       id="linearGradient4076"
       y2="448.69"
       gradientUnits="userSpaceOnUse"
       x2="516.63"
       y1="448.69"
       x1="442.82999">
      <stop
         id="stop5171"
         style="stop-color:#141414"
         offset="0" />
      <stop
         id="stop5173"
         style="stop-color:#1d1d1d"
         offset="1" />
    </linearGradient>
    <clipPath
       id="clipPath7578"
       clipPathUnits="userSpaceOnUse">
      <path
         id="path7580"
         style="color:#000000;text-indent:0;text-decoration:none;text-decoration-line:none;text-transform:none;fill:#1a1a1a"
         d="m 413.5,-63.886 c -5.5087,-0.01007 -11.255,0.2211 -17.247,0.69883 -151.44,12.196 -111.28,172.19 -113.52,225.76 -2.7656,39.179 -10.709,70.055 -37.655,108.36 -31.657,37.646 -76.227,98.577 -97.341,162 -9.9648,29.935 -14.707,60.446 -10.327,89.324 -1.3718,1.2285 -2.6778,2.5156 -3.9196,3.8413 -9.2946,9.9228 -16.162,21.946 -23.815,30.041 -7.1493,7.1316 -17.335,9.8442 -28.529,13.86 -11.198,4.0177 -23.492,9.941 -30.955,24.261 0,0 0,0.005 -0.005,0.007 -0.01218,0.0238 -0.02547,0.0461 -0.03816,0.0703 -6.7556,12.618 -4.7473,27.149 -2.6841,40.611 2.0633,13.462 4.152,26.183 1.3795,34.814 -8.8623,24.223 -9.9937,40.978 -3.755,53.132 6.252,12.179 19.107,17.555 33.635,20.589 29.057,6.0689 68.409,4.5608 99.422,20.998 l 2.6656,-5.0297 -2.638,5.0447 c 33.201,17.359 66.861,23.524 93.715,17.39 19.47,-4.447 35.275,-16.04 43.392,-33.879 21.004,-0.10329 44.053,-8.9992 80.974,-11.032 25.047,-2.0176 56.336,8.8946 92.325,6.8962 0.94075,3.9046 2.3023,7.6602 4.166,11.229 0.0191,0.0367 0.037,0.073 0.0565,0.10928 13.951,27.898 39.874,40.659 67.5,38.479 27.662,-2.183 57.073,-18.494 80.846,-46.786 l -4.3583,-3.6627 4.3916,3.6224 c 22.66,-27.476 60.272,-38.869 85.212,-53.911 12.47,-7.5212 22.588,-16.939 23.37,-30.618 0.78137,-13.672 -7.2451,-28.993 -25.702,-49.481 l -0.005,-0.005 c -0.007,-0.009 -0.0144,-0.017 -0.0216,-0.0255 -6.0643,-6.853 -8.9573,-19.554 -12.066,-33.08 -3.1068,-13.518 -6.5748,-28.099 -17.673,-37.549 -0.0222,-0.0196 -0.0446,-0.0371 -0.0668,-0.0565 -4.4168,-3.8487 -9.0066,-6.4608 -13.629,-8.2157 15.429,-45.76 9.3756,-91.326 -6.1994,-132.5 -19.115,-50.534 -52.487,-94.566 -77.974,-124.69 -28.528,-35.984 -56.431,-70.148 -55.882,-120.61 0.84975,-77.011 8.471,-219.83 -127.05,-220.01 z m 18.346,118.64 c 7.6898,0 14.257,2.254 21.004,7.1506 6.8535,4.9743 11.791,11.201 15.77,19.897 3.9057,8.4748 5.7849,16.765 5.9692,26.603 0,0.25793 0,0.47896 0.0737,0.7369 0.0737,10.096 -1.6581,18.681 -5.4902,27.451 -2.1866,5.004 -4.6977,9.2039 -7.7033,12.84 -1.0204,-0.48987 -2.0801,-0.96088 -3.1792,-1.4128 -7.6184,-3.263 -13.463,-5.3395 -18.334,-7.0297 1.7657,-2.1224 3.2359,-4.6395 4.5287,-7.7862 1.9529,-4.7532 2.9109,-9.396 3.0951,-14.923 0,-0.22114 0.0737,-0.40539 0.0737,-0.66331 0.1105,-5.3058 -0.58955,-9.8381 -2.1371,-14.481 -1.6213,-4.8637 -3.6847,-8.3641 -6.6693,-11.275 -2.9846,-2.911 -5.9692,-4.2374 -9.5434,-4.348 -0.16756,-0.0101 -0.33463,-0.0101 -0.49969,-0.0101 -3.362,0.0101 -6.2812,1.163 -9.3015,3.6916 -3.1688,2.6531 -5.527,6.0428 -7.4799,10.759 -1.9529,4.7163 -2.9109,9.3958 -3.0951,14.96 -0.037,0.22114 -0.037,0.40539 -0.037,0.62643 -0.0637,3.0584 0.13058,5.86 0.6022,8.5806 -6.8791,-3.4278 -13.362,-5.7647 -19.446,-7.2128 -0.34682,-2.6309 -0.54743,-5.3458 -0.61148,-8.1845 v -0.77387 c -0.11056,-10.059 1.5476,-18.681 5.4165,-27.451 3.8689,-8.7696 8.659,-15.07 15.402,-20.192 6.743,-5.1217 13.375,-7.4798 21.224,-7.5536 h 0.36733 z m -105.25,8.3331 c 5.1013,0.0121 9.6659,1.7163 14.388,5.4868 5.1217,4.0899 8.9906,9.3221 12.233,16.692 3.2425,7.3694 4.9743,14.739 5.4533,23.435 v 0.0732 c 0.23218,3.6522 0.20379,7.09 -0.0841,10.419 -1.0089,0.28676 -1.9976,0.59704 -2.9662,0.93048 -5.5004,1.8934 -10.348,4.4736 -14.573,7.2635 0.41314,-2.9183 0.47463,-5.8793 0.15775,-9.1807 -0.0371,-0.18425 -0.0371,-0.33162 -0.0371,-0.51578 -0.44217,-4.3848 -1.3633,-8.0694 -2.9109,-11.791 -1.6581,-3.8688 -3.5004,-6.5955 -5.9324,-8.6959 -2.2039,-1.9033 -4.2862,-2.7773 -6.5771,-2.76 -0.23701,0 -0.47671,0.0131 -0.71849,0.0332 -2.5793,0.2209 -4.7164,1.4737 -6.743,3.9425 -2.0266,2.4687 -3.353,5.527 -4.311,9.5801 -0.95803,4.0532 -1.216,8.0327 -0.81066,12.602 0,0.18416 0.0371,0.33171 0.0371,0.51586 0.44211,4.4217 1.3264,8.1063 2.9109,11.828 1.6213,3.832 3.5004,6.5587 5.9324,8.6589 0.40727,0.35174 0.81019,0.6677 1.2113,0.94998 -2.5295,1.9468 -3.7374,2.8444 -5.8102,4.3675 -1.3295,0.97552 -2.9129,2.137 -4.7532,3.4936 -4.0134,-3.7597 -7.1444,-8.4849 -9.8819,-14.706 -3.2425,-7.3693 -4.9743,-14.739 -5.4902,-23.435 v -0.0732 c -0.47899,-8.6958 0.36847,-16.176 2.7635,-23.914 2.395,-7.7379 5.6008,-13.339 10.243,-17.945 4.6427,-4.6058 9.3223,-6.9271 14.96,-7.2218 0.44042,-0.0242 0.87692,-0.0352 1.3092,-0.0332 z m 47.867,60.329 c 11.857,-0.0458 26.124,3.8414 43.397,14.947 10.61,6.8996 18.866,7.4763 37.876,15.618 l 0.0228,0.0101 0.0233,0.009 c 9.1467,3.7529 14.515,8.6445 17.138,13.796 2.6229,5.1512 2.6871,10.737 0.49165,16.613 -4.3907,11.753 -18.406,24.121 -38.073,30.263 l -0.0186,0.008 -0.0175,0.008 c -9.5896,3.1157 -17.952,9.9961 -27.81,15.633 -9.8581,5.637 -21.013,10.184 -36.181,9.3061 v 0 c -12.913,-0.75261 -20.632,-5.1363 -27.611,-10.745 -6.9796,-5.6093 -13.062,-12.656 -21.968,-17.886 l -0.0228,-0.0137 -0.0233,-0.0137 c -14.346,-8.1084 -22.178,-17.487 -24.636,-25.617 -2.4581,-8.1301 -0.15126,-15.07 6.9663,-20.404 8.0022,-5.9971 13.561,-10.076 17.264,-12.794 3.6785,-2.6993 5.2089,-3.7114 6.3803,-4.8362 0.006,-0.009 0.0123,-0.0128 0.0185,-0.0183 l 0.005,-0.009 c 6.0126,-5.6914 15.597,-16.06 30.045,-21.034 4.9726,-1.7118 10.521,-2.8162 16.732,-2.8407 z m 82.91,49.035 c -5.1165,0.30507 -10.475,2.9394 -16.715,6.4229 -6.2395,3.4834 -13.256,7.9394 -20.86,12.328 -15.208,8.7762 -32.714,17.169 -50.112,17.169 -17.425,0 -31.346,-8.0474 -41.788,-16.322 -5.2209,-4.1373 -9.5298,-8.3046 -12.972,-11.528 -1.7213,-1.612 -3.2141,-2.9859 -4.607,-4.059 -1.3927,-1.0731 -2.5263,-2.1371 -4.8569,-2.1371 l -0.11168,4.8972 c -0.16687,1.6386 -0.33834,1.5881 -0.27059,1.6328 0.10871,0.0714 0.64946,0.25783 1.2804,0.74386 1.024,0.78889 2.4455,2.0749 4.1326,3.6547 3.3742,3.1598 7.8577,7.5042 13.378,11.879 11.04,8.7486 26.393,17.724 45.816,17.724 19.449,0 37.85,-9.0906 53.354,-18.038 7.7519,-4.4736 14.792,-8.9391 20.779,-12.281 5.9866,-3.3424 11.023,-5.4384 13.94,-5.6123 z m 17.288,23.274 c 12.918,50.921 42.963,124.47 62.273,160.36 10.264,19.043 30.685,59.504 39.508,108.25 5.5905,-0.17127 11.746,0.64098 18.338,2.3271 23.068,-59.802 -19.561,-124.22 -39.054,-142.16 -7.8699,-7.6366 -8.2482,-11.058 -4.3468,-10.896 21.149,18.703 48.913,56.32 59.015,98.781 4.606,19.361 5.5881,39.715 0.64599,59.802 2.4179,1.0045 4.8736,2.0966 7.3624,3.2748 37.028,18.031 50.722,33.71 44.138,55.109 -2.1686,-0.0761 -4.3018,-0.0675 -6.3825,-0.0175 -0.19419,0.005 -0.38692,0.0101 -0.58039,0.0148 5.362,-16.962 -6.5167,-29.473 -38.17,-43.795 -32.831,-14.444 -58.992,-13.007 -63.413,16.286 -0.28298,1.5347 -0.51061,3.0985 -0.68399,4.6841 -2.4528,0.85176 -4.9189,1.9392 -7.3912,3.292 -15.416,8.4352 -23.83,23.741 -28.51,42.513 -4.6761,18.757 -6.0166,41.433 -7.3072,66.924 v 0.0132 c -0.78851,12.818 -6.0583,30.154 -11.403,48.516 -53.781,38.363 -128.43,54.984 -191.8,11.733 -4.2949,-6.7942 -9.2218,-13.526 -14.293,-20.165 -3.2385,-4.24 -6.5652,-8.454 -9.8726,-12.609 6.5058,0.005 12.036,-1.0604 16.505,-3.0869 5.5579,-2.5202 9.4629,-6.568 11.395,-11.765 3.8638,-10.393 -0.0169,-25.055 -12.386,-41.797 -12.369,-16.741 -33.317,-35.636 -64.099,-54.514 0,0 -0.005,0 -0.005,-0.005 -22.614,-14.069 -35.261,-31.314 -41.181,-50.037 -5.9202,-18.725 -5.0901,-38.972 -0.52737,-58.963 8.7578,-38.371 31.26,-75.69 45.617,-99.11 3.8655,-2.8442 1.3811,5.2794 -14.535,34.835 -14.264,27.022 -40.931,89.384 -4.4193,138.06 0.97573,-34.642 9.2489,-69.973 23.137,-103.02 20.23,-45.857 62.543,-125.38 65.904,-188.76 1.7327,1.2582 7.687,5.2757 10.34,6.7845 0.005,0.008 0.0117,0.008 0.017,0.009 7.7625,4.5712 13.592,11.253 21.143,17.322 7.5657,6.0803 17.017,11.332 31.297,12.164 16.667,0.96445 29.37,-4.1979 39.777,-10.149 10.392,-5.9422 18.693,-12.518 26.559,-15.085 0.0123,-0.008 0.0239,-0.008 0.0355,-0.0113 16.62,-5.1972 29.834,-14.396 37.353,-25.125 z m 105.56,291.52 c 6.7316,-0.0312 14.886,2.2131 23.812,6.2064 24.024,11.091 31.541,20.597 24.982,34.562 -5.527,10.538 -29.183,27.303 -45.395,22.882 -16.544,-4.2742 -24.614,-28.114 -21.924,-46.132 1.4408,-12.235 8.3614,-17.471 18.525,-17.518 z m -27.181,32.926 c 1.358,22.034 12.259,44.505 31.539,49.369 21.098,5.5587 51.516,-12.543 64.359,-27.308 2.5608,-0.1025 5.0645,-0.22799 7.496,-0.28668 11.266,-0.27202 20.715,0.37107 30.369,8.8144 l 0.0334,0.0286 0.0344,0.0286 c 7.419,6.2855 10.946,18.164 14.004,31.471 3.0584,13.307 5.5042,27.799 14.677,38.124 l 0.0137,0.0148 0.0127,0.0148 c 17.634,19.568 23.302,32.795 22.82,41.237 -0.48253,8.4424 -6.5951,14.71 -17.882,21.517 -22.564,13.61 -62.545,25.444 -88.082,56.377 -22.174,26.388 -49.213,40.881 -73.026,42.761 -23.813,1.8792 -44.358,-8.004 -56.47,-32.315 l -0.0276,-0.0551 -0.0286,-0.0542 c -7.5142,-14.294 -4.384,-36.852 1.9459,-60.646 6.3301,-23.794 15.425,-48.226 16.642,-68.084 v -0.0614 c 1.2879,-25.443 2.712,-47.663 6.986,-64.807 4.2739,-17.144 11.004,-28.755 22.928,-35.28 0.55528,-0.3038 1.1065,-0.59044 1.6546,-0.8613 z m -387.23,1.6627 c 1.7798,0.007 3.6632,0.1558 5.6698,0.45944 13.498,2.0446 25.268,11.482 36.608,26.864 11.34,15.382 21.892,36.379 32.74,59.67 l 0.0138,0.0286 0.0127,0.0276 c 8.7168,18.193 27.111,38.198 42.699,58.606 15.588,20.408 27.652,40.893 26.081,56.571 l -0.007,0.0681 -0.005,0.0679 c -2.0322,26.741 -17.117,41.298 -40.272,46.587 -23.149,5.2872 -54.531,0.017 -85.876,-16.365 -0.009,-0.005 -0.0186,-0.009 -0.0276,-0.0148 -34.69,-18.38 -75.95,-16.55 -102.41,-22.08 -13.237,-2.76 -21.873,-6.92 -25.837,-14.64 -3.964,-7.72 -4.053,-21.2 4.371,-44.16 l 0.03705,-0.1014 0.03333,-0.10255 c 4.1657,-12.85 1.0829,-26.909 -0.93959,-40.105 -2.02249,-13.196 -3.0115,-25.2 1.4946,-33.566 l 0.02074,-0.0382 0.02054,-0.0392 c 5.7694,-11.121 14.232,-15.096 24.735,-18.864 10.503,-3.7682 22.957,-6.7276 32.791,-16.583 l 0.0509,-0.052 0.0508,-0.053 c 9.0917,-9.5912 15.921,-21.614 23.914,-30.146 6.7438,-7.1996 13.493,-11.971 23.665,-12.042 h 0.35465 z" />
    </clipPath>
    <inkscape:path-effect
       is_visible="true"
       id="path-effect4835"
       effect="spiro"
       lpeversion="0" />
    <inkscape:path-effect
       is_visible="true"
       id="path-effect4745"
       effect="spiro"
       lpeversion="0" />
    <marker
       inkscape:isstock="true"
       style="overflow:visible"
       id="Arrow1Lstart"
       refX="0"
       refY="0"
       orient="auto"
       inkscape:stockid="Arrow1Lstart">
      <path
         inkscape:connector-curvature="0"
         transform="matrix(0.8,0,0,0.8,10,0)"
         style="fill:#404040;fill-opacity:1;fill-rule:evenodd;stroke:#000000;stroke-width:1pt;stroke-opacity:1"
         d="M 0,0 5,-5 -12.5,0 5,5 Z"
         id="path4461" />
    </marker>
    <inkscape:path-effect
       is_visible="true"
       id="path-effect4224"
       effect="spiro"
       lpeversion="0" />
    <inkscape:path-effect
       is_visible="true"
       id="path-effect4161"
       effect="spiro"
       lpeversion="0" />
    <inkscape:path-effect
       is_visible="true"
       id="path-effect4161-4"
       effect="spiro"
       lpeversion="0" />
    <inkscape:path-effect
       is_visible="true"
       id="path-effect4161-4-5"
       effect="spiro"
       lpeversion="0" />
    <inkscape:path-effect
       is_visible="true"
       id="path-effect4745-0"
       effect="spiro"
       lpeversion="0" />
    <inkscape:path-effect
       is_visible="true"
       id="path-effect4745-00"
       effect="spiro"
       lpeversion="0" />
    <inkscape:path-effect
       is_visible="true"
       id="path-effect4161-4-0"
       effect="spiro"
       lpeversion="0" />
    <inkscape:path-effect
       is_visible="true"
       id="path-effect4161-3"
       effect="spiro"
       lpeversion="0" />
    <inkscape:path-effect
       is_visible="true"
       id="path-effect4161-4-7"
       effect="spiro"
       lpeversion="0" />
    <inkscape:path-effect
       is_visible="true"
       id="path-effect4224-5"
       effect="spiro"
       lpeversion="0" />
    <inkscape:path-effect
       is_visible="true"
       id="path-effect4745-9"
       effect="spiro"
       lpeversion="0" />
    <inkscape:path-effect
       is_visible="true"
       id="path-effect4745-0-2"
       effect="spiro"
       lpeversion="0" />
    <inkscape:path-effect
       is_visible="true"
       id="path-effect4745-00-2"
       effect="spiro"
       lpeversion="0" />
    <inkscape:path-effect
       is_visible="true"
       id="path-effect4835-8"
       effect="spiro"
       lpeversion="0" />
    <inkscape:path-effect
       is_visible="true"
       id="path-effect4745-97"
       effect="spiro"
       lpeversion="0" />
    <marker
       inkscape:isstock="true"
       style="overflow:visible"
       id="Arrow1Lstart-3"
       refX="0"
       refY="0"
       orient="auto"
       inkscape:stockid="Arrow1Lstart">
      <path
         inkscape:connector-curvature="0"
         transform="matrix(0.8,0,0,0.8,10,0)"
         style="fill:#404040;fill-opacity:1;fill-rule:evenodd;stroke:#000000;stroke-width:1pt;stroke-opacity:1"
         d="M 0,0 5,-5 -12.5,0 5,5 Z"
         id="path4461-6" />
    </marker>
    <inkscape:path-effect
       is_visible="true"
       id="path-effect4224-1"
       effect="spiro"
       lpeversion="0" />
    <inkscape:path-effect
       is_visible="true"
       id="path-effect4161-2"
       effect="spiro"
       lpeversion="0" />
    <inkscape:path-effect
       is_visible="true"
       id="path-effect4161-4-9"
       effect="spiro"
       lpeversion="0" />
    <inkscape:path-effect
       is_visible="true"
       id="path-effect4161-4-5-3"
       effect="spiro"
       lpeversion="0" />
    <inkscape:path-effect
       is_visible="true"
       id="path-effect4745-0-1"
       effect="spiro"
       lpeversion="0" />
    <inkscape:path-effect
       is_visible="true"
       id="path-effect4745-00-9"
       effect="spiro"
       lpeversion="0" />
    <inkscape:path-effect
       is_visible="true"
       id="path-effect4161-4-0-4"
       effect="spiro"
       lpeversion="0" />
    <inkscape:path-effect
       is_visible="true"
       id="path-effect4161-4-3"
       effect="spiro"
       lpeversion="0" />
    <inkscape:path-effect
       is_visible="true"
       id="path-effect4745-0-7"
       effect="spiro"
       lpeversion="0" />
    <linearGradient
       inkscape:collect="always"
       xlink:href="#linearGradient2348"
       id="linearGradient2350"
       x1="425.55405"
       y1="168.1262"
       x2="498.90622"
       y2="168.12621"
       gradientUnits="userSpaceOnUse"
       gradientTransform="translate(12.404222,21.517805)" />
    <linearGradient
       inkscape:collect="always"
       xlink:href="#linearGradient2348"
       id="linearGradient2350-6"
       x1="425.55405"
       y1="168.12621"
       x2="498.90622"
       y2="168.12621"
       gradientUnits="userSpaceOnUse"
       gradientTransform="matrix(0.69052075,0,0,1.9553086,-63.449004,-642.22256)" />
    <linearGradient
       inkscape:collect="always"
       xlink:href="#linearGradient3901"
       id="linearGradient3903"
       x1="-9.9125863"
       y1="132.14876"
       x2="109.09594"
       y2="132.14876"
       gradientUnits="userSpaceOnUse"
       gradientTransform="translate(12.404222,21.517805)" />
  </defs>
  <sodipodi:namedview
     id="base"
     pagecolor="#ffffff"
     bordercolor="#666666"
     borderopacity="1.0"
     inkscape:pageopacity="0.0"
     inkscape:pageshadow="2"
     inkscape:zoom="1.4142136"
     inkscape:cx="314.09819"
     inkscape:cy="248.83899"
     inkscape:document-units="mm"
     inkscape:current-layer="g2617"
     inkscape:document-rotation="0"
     showgrid="false"
     units="px"
     fit-margin-top="0"
     fit-margin-left="0"
     fit-margin-right="0"
     fit-margin-bottom="0"
     showguides="true"
     inkscape:guide-bbox="true">
    <sodipodi:guide
       position="6.9222806,59.033899"
       orientation="1,0"
       id="guide3837" />
  </sodipodi:namedview>
  <metadata
     id="metadata5">
    <rdf:RDF>
      <cc:Work
         rdf:about="">
        <dc:format>image/svg+xml</dc:format>
        <dc:type
           rdf:resource="http://purl.org/dc/dcmitype/StillImage" />
        <dc:title></dc:title>
      </cc:Work>
    </rdf:RDF>
  </metadata>
  <g
     inkscape:label="Layer 1"
     inkscape:groupmode="layer"
     id="layer1"
     transform="translate(95.686118,-61.200193)">
    <g
       id="g1891"
       transform="matrix(0.26458333,0,0,0.26458333,-85.022509,64.740001)">
      <g
         id="g2617"
         transform="translate(306.89323,-7.9012627)">
        <rect
           style="fill:#000000;fill-opacity:1;fill-rule:evenodd;stroke:#000000;stroke-width:16;stroke-linecap:round;stroke-linejoin:round;stroke-miterlimit:4;stroke-dasharray:none;stroke-opacity:1;paint-order:markers fill stroke"
           id="rect2340"
           width="504.66922"
           height="259.53302"
           x="61.149326"
           y="59.162041"
           ry="1.10879e-05" />
        <g
           id="key-layout"
           transform="translate(10.395482,-81.682195)"
           class="kblayout">
          <g
             id="x0-y1"
             class="key">
            <path
               id="path4121"
               d="m 71.96,164.34 c -8.36e-4,-1.6888 1.7043,-3.387 3.4472,-3.398 l 27.234,-0.004 c 1.7285,-0.0229 3.4475,1.6978 3.4322,3.3808 l 0.0156,27.332 c 0.006,1.6859 -1.7051,3.3906 -3.406,3.3893 l -27.296,0.004 c -1.7242,0.003 -3.4578,-1.6921 -3.4194,-3.4147 z"
               style="fill:#1e1e1e;stroke:#404040;stroke-width:1.891" />
            <g
               aria-label="ESC"
               id="text4123"
               style="line-height:0%;font-family:Play;letter-spacing:0px;word-spacing:0px;fill:#404040">
              <path
                 d="m 77.94,167.03348 h 6.104 v 0.952 h -4.746 v 2.968 h 4.284 v 0.952 h -4.284 v 3.262 h 4.886 v 0.952 H 77.94 Z"
                 style="font-size:14px;line-height:1.25"
                 id="path2128" />
              <path
                 d="m 88.677999,176.25948 q -1.162,0 -2.772,-0.224 v -1.134 q 1.624,0.35 2.856,0.35 1.036,0 1.512,-0.224 0.476,-0.238 0.476,-0.868 v -1.176 q 0,-0.588 -0.336,-0.826 -0.336,-0.238 -1.176,-0.238 h -1.064 q -1.33,0 -1.89,-0.532 -0.56,-0.532 -0.56,-1.652 v -0.728 q 0,-0.742 0.322,-1.204 0.336,-0.462 1.106,-0.686 0.784,-0.224 2.142,-0.224 0.91,0 2.338,0.154 v 1.022 q -1.596,-0.238 -2.436,-0.238 -1.302,0 -1.722,0.252 -0.434,0.266 -0.434,0.882 v 1.036 q 0,0.476 0.336,0.7 0.35,0.21 1.19,0.21 h 1.092 q 0.938,0 1.456,0.224 0.532,0.224 0.742,0.686 0.224,0.448 0.224,1.218 v 0.658 q 0,0.966 -0.364,1.526 -0.35,0.56 -1.092,0.798 -0.742,0.238 -1.946,0.238 z"
                 style="font-size:14px;line-height:1.25"
                 id="path2130" />
              <path
                 d="m 97.567976,176.25948 q -3.822,0 -3.822,-2.464 v -4.312 q 0,-2.604 3.822,-2.604 1.302,0 2.492004,0.266 v 1.008 q -1.344004,-0.336 -2.464004,-0.336 -0.546,0 -0.952,0.07 -0.406,0.056 -0.784,0.21 -0.812,0.35 -0.812,1.372 v 4.256 q 0,1.568 2.604,1.568 1.12,0 2.464004,-0.336 v 1.036 q -1.190004,0.266 -2.548004,0.266 z"
                 style="font-size:14px;line-height:1.25"
                 id="path2132" />
            </g>
          </g>
          <g
             id="x0-y3"
             class="key">
            <path
               id="path4129"
               d="m 171.56,164.34 c -8.4e-4,-1.6888 1.7043,-3.387 3.4472,-3.398 l 27.234,-0.004 c 1.7285,-0.0229 3.4475,1.6978 3.4322,3.3808 l 0.0156,27.332 c 0.006,1.6859 -1.7051,3.3906 -3.406,3.3893 l -27.296,0.004 c -1.7242,0.003 -3.4578,-1.6921 -3.4194,-3.4147 z"
               style="fill:#1e1e1e;stroke:#00ffff;stroke-width:1.891" />
            <g
               aria-label="F1"
               id="text4131"
               style="line-height:0%;font-family:Play;letter-spacing:0px;word-spacing:0px;fill:#404040">
              <path
                 d="m 182.4462,166.9185 h 6.244 v 0.952 h -4.886 v 2.968 h 4.424 v 0.952 h -4.424 v 4.214 h -1.358 z"
                 style="font-size:14px;line-height:1.25;fill:#00ffff"
                 id="path2135" />
              <path
                 d="m 193.5762,168.1785 -2.758,1.806 v -1.148 l 2.772,-1.918 h 1.204 v 9.086 h -1.218 z"
                 style="font-size:14px;line-height:1.25;fill:#00ffff"
                 id="path2137" />
            </g>
          </g>
          <g
             id="x0-y4"
             class="key">
            <path
               id="path4137"
               d="m 210.36,164.34 c -8.4e-4,-1.6888 1.7043,-3.387 3.4472,-3.398 l 27.234,-0.004 c 1.7285,-0.0229 3.4475,1.6978 3.4322,3.3808 l 0.0156,27.332 c 0.006,1.6859 -1.7051,3.3906 -3.406,3.3893 l -27.296,0.004 c -1.7242,0.003 -3.4578,-1.6921 -3.4194,-3.4147 z"
               style="fill:#1e1e1e;stroke:#00ffff;stroke-width:1.891" />
            <g
               aria-label="F2"
               id="text4139"
               style="line-height:0%;font-family:Play;letter-spacing:0px;word-spacing:0px;fill:#404040">
              <path
                 d="m 220.5322,166.84978 h 6.244 v 0.952 h -4.886 v 2.968 h 4.424 v 0.952 h -4.424 v 4.214 h -1.358 z"
                 style="font-size:14px;line-height:1.25;fill:#00ffff"
                 id="path2140" />
              <path
                 d="m 228.20419,174.31178 q 0,-0.392 0.126,-0.728 0.14,-0.35 0.35,-0.588 0.168,-0.196 0.504,-0.42 0.35,-0.238 0.658,-0.392 0.266,-0.14 0.7,-0.322 l 1.512,-0.672 q 0.896,-0.392 0.896,-1.218 v -1.246 q 0,-0.644 -0.392,-0.854 -0.392,-0.224 -1.372,-0.224 -0.966,0 -2.66,0.294 v -0.98 q 1.414,-0.266 2.926,-0.266 1.512,0 2.184,0.462 0.672,0.448 0.672,1.512 v 1.484 q 0,0.504 -0.168,0.84 -0.168,0.322 -0.546,0.588 -0.364,0.252 -1.078,0.574 l -2.1,0.966 q -0.924,0.42 -0.924,1.232 v 0.602 h 4.816 v 0.98 h -6.104 z"
                 style="font-size:14px;line-height:1.25;fill:#00ffff"
                 id="path2142" />
            </g>
          </g>
          <g
             id="x0-y5"
             class="key">
            <path
               id="path4145"
               d="m 249.26,164.34 c -8.4e-4,-1.6888 1.7043,-3.387 3.4472,-3.398 l 27.234,-0.004 c 1.7285,-0.0229 3.4475,1.6978 3.4322,3.3808 l 0.0156,27.332 c 0.006,1.6859 -1.7051,3.3906 -3.406,3.3893 l -27.296,0.004 c -1.7242,0.003 -3.4578,-1.6921 -3.4194,-3.4147 z"
               style="fill:#1e1e1e;stroke:#00ffff;stroke-width:1.891" />
            <g
               aria-label="F3"
               id="text4147"
               style="line-height:0%;font-family:Play;letter-spacing:0px;word-spacing:0px;fill:#404040">
              <path
                 d="m 259.4672,166.77272 h 6.244 v 0.952 h -4.886 v 2.968 h 4.424 v 0.952 h -4.424 v 4.214 h -1.358 z"
                 style="font-size:14px;line-height:1.25;fill:#00ffff"
                 id="path2145" />
              <path
                 d="m 269.85519,175.99872 q -1.176,0 -2.646,-0.266 v -1.008 q 1.666,0.35 2.786,0.35 1.862,0 1.862,-1.05 v -1.554 q 0,-0.574 -0.616,-0.756 -0.294,-0.07 -0.532,-0.084 -0.224,-0.028 -0.588,-0.028 h -1.75 v -0.868 h 1.512 q 0.364,0 0.588,-0.014 0.224,-0.028 0.518,-0.112 0.308,-0.07 0.476,-0.266 0.168,-0.196 0.168,-0.504 v -1.624 q 0,-0.714 -1.68,-0.714 -1.12,0 -2.562,0.224 v -0.966 q 1.204,-0.126 2.548,-0.126 1.554,0 2.254,0.35 0.714,0.336 0.714,1.162 v 1.75 q 0,0.434 -0.35,0.728 -0.35,0.28 -0.896,0.364 v 0.056 q 0.336,0.056 0.546,0.126 0.224,0.056 0.476,0.182 0.49,0.252 0.49,0.882 v 1.82 q 0,0.476 -0.21,0.854 -0.21,0.378 -0.532,0.588 -0.28,0.196 -0.742,0.322 -0.462,0.112 -0.91,0.154 -0.532,0.028 -0.924,0.028 z"
                 style="font-size:14px;line-height:1.25;fill:#00ffff"
                 id="path2147" />
            </g>
          </g>
          <g
             id="x0-y6"
             class="key">
            <path
               id="path4153"
               d="m 287.66,164.34 c -8.4e-4,-1.6888 1.7043,-3.387 3.4472,-3.398 l 27.234,-0.004 c 1.7285,-0.0229 3.4475,1.6978 3.4322,3.3808 l 0.0156,27.332 c 0.006,1.6859 -1.7051,3.3906 -3.406,3.3893 l -27.296,0.004 c -1.7242,0.003 -3.4578,-1.6921 -3.4194,-3.4147 z"
               style="fill:#1e1e1e;stroke:#00ffff;stroke-width:1.891" />
            <g
               aria-label="F4"
               id="text4155"
               style="line-height:0%;font-family:Play;letter-spacing:0px;word-spacing:0px;fill:#404040">
              <path
                 d="m 297.6922,166.70561 h 6.244 v 0.952 h -4.886 v 2.968 h 4.424 v 0.952 h -4.424 v 4.214 h -1.358 z"
                 style="font-size:14px;line-height:1.25;fill:#00ffff"
                 id="path2150" />
              <path
                 d="m 309.6062,173.80361 h -4.522 v -1.106 l 4.116,-5.992 h 1.568 v 6.132 h 0.98 v 0.966 h -0.98 v 1.988 h -1.162 z m 0,-0.966 v -5.026 l -3.402,5.026 z"
                 style="font-size:14px;line-height:1.25;fill:#00ffff"
                 id="path2152" />
            </g>
          </g>
          <g
             id="x0-y7"
             class="key">
            <path
               id="path4162"
               d="m 334.36,164.34 c -8.4e-4,-1.6888 1.7043,-3.387 3.4472,-3.398 l 27.234,-0.004 c 1.7285,-0.0229 3.4475,1.6978 3.4322,3.3808 l 0.0156,27.332 c 0.006,1.6859 -1.7051,3.3906 -3.406,3.3893 l -27.296,0.004 c -1.7242,0.003 -3.4578,-1.6921 -3.4194,-3.4147 z"
               style="fill:#1e1e1e;stroke:#404040;stroke-width:1.891" />
            <g
               aria-label="F5"
               id="text4164"
               style="line-height:0%;font-family:Play;letter-spacing:0px;word-spacing:0px;fill:#404040">
              <path
                 d="m 344.63721,166.7946 h 6.244 v 0.952 h -4.886 v 2.968 h 4.424 v 0.952 h -4.424 v 4.214 h -1.358 z"
                 style="font-size:14px;line-height:1.25"
                 id="path2155" />
              <path
                 d="m 355.1932,176.0206 q -1.134,0 -2.674,-0.252 v -1.008 q 1.624,0.336 2.716,0.336 0.854,0 1.246,-0.238 0.406,-0.252 0.406,-0.812 v -1.806 q 0,-0.588 -0.504,-0.756 -0.238,-0.07 -0.448,-0.084 -0.196,-0.028 -0.518,-0.028 h -2.688 v -4.578 h 5.236 v 0.952 h -3.976 v 2.758 h 2.1 q 0.56,0 0.994,0.14 0.434,0.126 0.77,0.448 0.35,0.35 0.35,0.91 v 2.072 q 0,0.49 -0.182,0.868 -0.168,0.364 -0.462,0.574 -0.266,0.196 -0.686,0.322 -0.406,0.126 -0.812,0.154 -0.504,0.028 -0.868,0.028 z"
                 style="font-size:14px;line-height:1.25"
                 id="path2157" />
            </g>
          </g>
          <g
             id="x0-y8"
             class="key">
            <path
               id="path4170"
               d="m 373.16,164.34 c -8.4e-4,-1.6888 1.7043,-3.387 3.4472,-3.398 l 27.234,-0.004 c 1.7285,-0.0229 3.4475,1.6978 3.4322,3.3808 l 0.0156,27.332 c 0.006,1.6859 -1.7051,3.3906 -3.406,3.3893 l -27.296,0.004 c -1.7242,0.003 -3.4578,-1.6921 -3.4194,-3.4147 z"
               style="fill:#1e1e1e;stroke:#404040;stroke-width:1.891" />
            <g
               aria-label="F6"
               id="text4172"
               style="line-height:0%;font-family:Play;letter-spacing:0px;word-spacing:0px;fill:#404040">
              <path
                 d="m 383.3252,166.88299 h 6.244 v 0.952 h -4.886 v 2.968 h 4.424 v 0.952 h -4.424 v 4.214 h -1.358 z"
                 style="font-size:14px;line-height:1.25"
                 id="path2160" />
              <path
                 d="m 394.03519,176.10899 q -0.616,0 -0.994,-0.042 -0.378,-0.042 -0.784,-0.168 -0.434,-0.126 -0.686,-0.364 -0.252,-0.252 -0.42,-0.7 -0.168,-0.448 -0.168,-1.05 v -4.592 q 0,-0.63 0.196,-1.106 0.21,-0.476 0.532,-0.756 0.28,-0.238 0.756,-0.378 0.476,-0.154 0.952,-0.196 0.532,-0.028 0.966,-0.028 0.854,0 2.296,0.126 v 0.952 q -1.442,-0.182 -2.478,-0.182 -0.784,0 -1.19,0.112 -0.406,0.112 -0.602,0.448 -0.182,0.322 -0.182,0.98 v 1.428 h 2.058 q 0.7,0 1.05,0.028 0.35,0.028 0.742,0.112 0.392,0.084 0.574,0.28 0.196,0.196 0.336,0.56 0.126,0.35 0.126,0.882 v 1.33 q 0,1.512 -0.952,1.96 -0.462,0.21 -0.924,0.28 -0.462,0.084 -1.204,0.084 z m 0.028,-0.826 q 0.742,0 1.106,-0.098 0.378,-0.112 0.532,-0.406 0.168,-0.308 0.168,-0.924 v -1.358 q 0,-0.462 -0.14,-0.686 -0.14,-0.238 -0.518,-0.322 -0.378,-0.084 -1.162,-0.084 h -1.82 v 2.45 q 0,0.616 0.168,0.924 0.168,0.294 0.546,0.406 0.378,0.098 1.12,0.098 z"
                 style="font-size:14px;line-height:1.25"
                 id="path2162" />
            </g>
          </g>
          <g
             id="x0-y9"
             class="key">
            <path
               id="path4178"
               d="m 412.06,164.34 c -8.4e-4,-1.6888 1.7043,-3.387 3.4472,-3.398 l 27.234,-0.004 c 1.7285,-0.0229 3.4475,1.6978 3.4322,3.3808 l 0.0156,27.332 c 0.006,1.6859 -1.7051,3.3906 -3.406,3.3893 l -27.296,0.004 c -1.7242,0.003 -3.4578,-1.6921 -3.4194,-3.4147 z"
               style="fill:#1e1e1e;stroke:#404040;stroke-width:1.891" />
            <g
               aria-label="F7"
               id="text4180"
               style="line-height:0%;font-family:Play;letter-spacing:0px;word-spacing:0px;fill:#404040">
              <path
                 d="m 422.16221,166.61723 h 6.244 v 0.952 h -4.886 v 2.968 h 4.424 v 0.952 h -4.424 v 4.214 h -1.358 z"
                 style="font-size:14px;line-height:1.25"
                 id="path2165" />
              <path
                 d="m 434.9022,167.52723 h -5.208 v -0.91 h 6.384 v 0.91 l -3.472,8.176 h -1.344 z"
                 style="font-size:14px;line-height:1.25"
                 id="path2167" />
            </g>
          </g>
          <g
             id="x0-y10"
             class="key">
            <path
               id="path4186"
               d="m 450.46,164.34 c -8.4e-4,-1.6888 1.7043,-3.387 3.4472,-3.398 l 27.234,-0.004 c 1.7285,-0.0229 3.4475,1.6978 3.4322,3.3808 l 0.0156,27.332 c 0.006,1.6859 -1.7051,3.3906 -3.406,3.3893 l -27.296,0.004 c -1.7242,0.003 -3.4578,-1.6921 -3.4194,-3.4147 z"
               style="fill:#1e1e1e;stroke:#404040;stroke-width:1.891" />
            <g
               aria-label="F8"
               id="text4188"
               style="line-height:0%;font-family:Play;letter-spacing:0px;word-spacing:0px;fill:#404040">
              <path
                 d="m 460.54819,166.64372 h 6.244 v 0.952 h -4.886 v 2.968 h 4.424 v 0.952 h -4.424 v 4.214 h -1.358 z"
                 style="font-size:14px;line-height:1.25"
                 id="path2170" />
              <path
                 d="m 471.25818,175.86972 q -1.708,0 -2.464,-0.406 -0.756,-0.42 -0.756,-1.372 v -1.694 q 0,-0.546 0.42,-0.91 0.434,-0.378 1.148,-0.546 v -0.056 q -0.63,-0.14 -0.952,-0.448 -0.308,-0.308 -0.308,-0.854 v -1.414 q 0,-0.392 0.126,-0.672 0.126,-0.28 0.42,-0.532 0.602,-0.476 2.366,-0.476 1.764,0 2.366,0.476 0.294,0.252 0.42,0.532 0.126,0.28 0.126,0.672 v 1.414 q 0,0.546 -0.308,0.854 -0.308,0.308 -0.938,0.448 v 0.056 q 0.714,0.168 1.134,0.546 0.434,0.364 0.434,0.91 v 1.666 q 0,0.98 -0.756,1.4 -0.742,0.406 -2.478,0.406 z m 0,-5.236 q 0.924,0 1.274,-0.196 0.364,-0.196 0.364,-0.728 v -1.47 q 0,-0.518 -0.378,-0.728 -0.378,-0.21 -1.26,-0.21 -0.882,0 -1.26,0.21 -0.378,0.21 -0.378,0.728 v 1.47 q 0,0.532 0.35,0.728 0.364,0.196 1.288,0.196 z m 0,4.424 q 1.022,0 1.442,-0.21 0.42,-0.21 0.42,-0.714 v -1.694 q 0,-0.714 -0.602,-0.896 -0.294,-0.084 -0.546,-0.098 -0.252,-0.028 -0.714,-0.028 -0.462,0 -0.7,0.028 -0.238,0.014 -0.546,0.098 -0.616,0.182 -0.616,0.896 v 1.694 q 0,0.504 0.42,0.714 0.42,0.21 1.442,0.21 z"
                 style="font-size:14px;line-height:1.25"
                 id="path2172" />
            </g>
          </g>
          <g
             id="x1-y1"
             class="key">
            <path
               id="path4520"
               d="m 72.16,211.14 c -8.4e-4,-1.6888 1.7043,-3.387 3.4472,-3.398 l 27.234,-0.004 c 1.7285,-0.0229 3.4475,1.6978 3.4322,3.3808 l 0.0156,27.332 c 0.006,1.6859 -1.7051,3.3906 -3.406,3.3893 l -27.296,0.004 c -1.7242,0.003 -3.4578,-1.6921 -3.4194,-3.4147 z"
               style="fill:#1e1e1e;stroke:#404040;stroke-width:1.891" />
            <g
               aria-label="` ¦"
               id="text4522"
               style="line-height:0%;font-family:Play;letter-spacing:0px;word-spacing:0px;fill:#404040">
              <path
                 d="m 84.401686,213.58835 h 1.526 l 1.26,1.778 h -1.036 z"
                 style="font-size:14px;line-height:1.25"
                 id="path2175" />
              <path
                 d="m 93.277655,214.02235 h 0.77 v 4.914 h -0.77 z m 0,6.832 h 0.77 v 4.914 h -0.77 z"
                 style="font-size:14px;line-height:1.25"
                 id="path2177" />
            </g>
          </g>
          <g
             id="x1-y2"
             class="key">
            <path
               id="path4528"
               d="m 110.96,211.14 c -8.4e-4,-1.6888 1.7043,-3.387 3.4472,-3.398 l 27.234,-0.004 c 1.7285,-0.0229 3.4475,1.6978 3.4322,3.3808 l 0.0156,27.332 c 0.006,1.6859 -1.7051,3.3906 -3.406,3.3893 l -27.296,0.004 c -1.7242,0.003 -3.4578,-1.6921 -3.4194,-3.4147 z"
               style="fill:#1e1e1e;stroke:#800033;stroke-width:1.891" />
            <g
               aria-label="1"
               id="text4530"
               style="line-height:0%;font-family:Play;letter-spacing:0px;word-spacing:0px;fill:#404040">
              <path
                 d="m 129.34703,215.04935 -2.758,1.806 v -1.148 l 2.772,-1.918 h 1.204 v 9.086 h -1.218 z"
                 style="font-size:14px;line-height:1.25;fill:#800033"
                 id="path2180" />
            </g>
          </g>
          <g
             id="x1-y3"
             class="key">
            <path
               id="path4536"
               d="m 149.86,211.14 c -8.4e-4,-1.6888 1.7043,-3.387 3.4472,-3.398 l 27.234,-0.004 c 1.7285,-0.0229 3.4475,1.6978 3.4322,3.3808 l 0.0156,27.332 c 0.006,1.6859 -1.7051,3.3906 -3.406,3.3893 l -27.296,0.004 c -1.7242,0.003 -3.4578,-1.6921 -3.4194,-3.4147 z"
               style="fill:#1e1e1e;stroke:#aa0044;stroke-width:1.891" />
            <g
               aria-label="2"
               id="text4538"
               style="line-height:0%;font-family:Play;letter-spacing:0px;word-spacing:0px;fill:#404040">
              <path
                 d="m 164.11704,221.14367 q 0,-0.392 0.126,-0.728 0.14,-0.35 0.35,-0.588 0.168,-0.196 0.504,-0.42 0.35,-0.238 0.658,-0.392 0.266,-0.14 0.7,-0.322 l 1.512,-0.672 q 0.896,-0.392 0.896,-1.218 v -1.246 q 0,-0.644 -0.392,-0.854 -0.392,-0.224 -1.372,-0.224 -0.966,0 -2.66,0.294 v -0.98 q 1.414,-0.266 2.926,-0.266 1.512,0 2.184,0.462 0.672,0.448 0.672,1.512 v 1.484 q 0,0.504 -0.168,0.84 -0.168,0.322 -0.546,0.588 -0.364,0.252 -1.078,0.574 l -2.1,0.966 q -0.924,0.42 -0.924,1.232 v 0.602 h 4.816 v 0.98 h -6.104 z"
                 style="font-size:14px;line-height:1.25;fill:#aa0044"
                 id="path2183" />
            </g>
          </g>
          <g
             id="x1-y4"
             class="key">
            <path
               id="path4544"
               d="m 188.26,211.14 c -8.4e-4,-1.6888 1.7043,-3.387 3.4472,-3.398 l 27.234,-0.004 c 1.7285,-0.0229 3.4475,1.6978 3.4322,3.3808 l 0.0156,27.332 c 0.006,1.6859 -1.7051,3.3906 -3.406,3.3893 l -27.296,0.004 c -1.7242,0.003 -3.4578,-1.6921 -3.4194,-3.4147 z"
               style="fill:#1e1e1e;stroke:#aa0044;stroke-width:1.891" />
            <g
               aria-label="3"
               id="text4546"
               style="line-height:0%;font-family:Play;letter-spacing:0px;word-spacing:0px;fill:#404040">
              <path
                 d="m 205.28203,223.01184 q -1.176,0 -2.646,-0.266 v -1.008 q 1.666,0.35 2.786,0.35 1.862,0 1.862,-1.05 v -1.554 q 0,-0.574 -0.616,-0.756 -0.294,-0.07 -0.532,-0.084 -0.224,-0.028 -0.588,-0.028 h -1.75 v -0.868 h 1.512 q 0.364,0 0.588,-0.014 0.224,-0.028 0.518,-0.112 0.308,-0.07 0.476,-0.266 0.168,-0.196 0.168,-0.504 v -1.624 q 0,-0.714 -1.68,-0.714 -1.12,0 -2.562,0.224 v -0.966 q 1.204,-0.126 2.548,-0.126 1.554,0 2.254,0.35 0.714,0.336 0.714,1.162 v 1.75 q 0,0.434 -0.35,0.728 -0.35,0.28 -0.896,0.364 v 0.056 q 0.336,0.056 0.546,0.126 0.224,0.056 0.476,0.182 0.49,0.252 0.49,0.882 v 1.82 q 0,0.476 -0.21,0.854 -0.21,0.378 -0.532,0.588 -0.28,0.196 -0.742,0.322 -0.462,0.112 -0.91,0.154 -0.532,0.028 -0.924,0.028 z"
                 style="font-size:14px;line-height:1.25;fill:#aa0044"
                 id="path2186" />
            </g>
          </g>
          <g
             id="x1-y5"
             class="key">
            <path
               id="path4552"
               d="m 227.06,211.14 c -8.4e-4,-1.6888 1.7043,-3.387 3.4472,-3.398 l 27.234,-0.004 c 1.7285,-0.0229 3.4475,1.6978 3.4322,3.3808 l 0.0156,27.332 c 0.006,1.6859 -1.7051,3.3906 -3.406,3.3893 l -27.296,0.004 c -1.7242,0.003 -3.4578,-1.6921 -3.4194,-3.4147 z"
               style="fill:#1e1e1e;stroke:#d40055;stroke-width:1.891" />
            <g
               aria-label="4€"
               id="text4554"
               style="line-height:0%;font-family:Play;letter-spacing:0px;word-spacing:0px;fill:#404040">
              <path
                 d="m 241.07149,220.86806 h -4.522 v -1.106 l 4.116,-5.992 h 1.568 v 6.132 h 0.98 v 0.966 h -0.98 v 1.988 h -1.162 z m 0,-0.966 v -5.026 l -3.402,5.026 z"
                 style="font-size:14px;line-height:1.25;fill:#ff0066"
                 id="path2189" />
              <path
                 d="m 249.42949,222.99606 q -3.822,0 -3.822,-2.464 v -0.658 h -1.302 v -0.994 h 1.302 v -0.994 h -1.302 v -0.994 h 1.302 v -0.392 q 0,-2.604 3.822,-2.604 1.12,0 1.974,0.168 l -0.252,0.938 q -0.98,-0.168 -1.694,-0.168 -1.218,0 -1.904,0.364 -0.672,0.364 -0.672,1.288 v 0.406 h 3.808 l -0.266,0.994 h -3.542 v 0.994 h 3.122 l -0.266,0.994 h -2.856 v 0.588 q 0,1.568 2.632,1.568 1.064,0 2.184,-0.266 v 1.036 q -1.134,0.196 -2.268,0.196 z"
                 style="font-size:14px;line-height:1.25;fill:#ff0066"
                 id="path2191" />
            </g>
          </g>
          <g
             id="x1-y6"
             class="key">
            <path
               id="path4560"
               d="m 265.96,211.14 c -8.4e-4,-1.6888 1.7043,-3.387 3.4472,-3.398 l 27.234,-0.004 c 1.7285,-0.0229 3.4475,1.6978 3.4322,3.3808 l 0.0156,27.332 c 0.006,1.6859 -1.7051,3.3906 -3.406,3.3893 l -27.296,0.004 c -1.7242,0.003 -3.4578,-1.6921 -3.4194,-3.4147 z"
               style="fill:#1e1e1e;stroke:#ff0066;stroke-width:1.891" />
            <g
               aria-label="5"
               id="text4562"
               style="line-height:0%;font-family:Play;letter-spacing:0px;word-spacing:0px;fill:#404040">
              <path
                 d="m 283.08002,222.92345 q -1.134,0 -2.674,-0.252 v -1.008 q 1.624,0.336 2.716,0.336 0.854,0 1.246,-0.238 0.406,-0.252 0.406,-0.812 v -1.806 q 0,-0.588 -0.504,-0.756 -0.238,-0.07 -0.448,-0.084 -0.196,-0.028 -0.518,-0.028 h -2.688 v -4.578 h 5.236 v 0.952 h -3.976 v 2.758 h 2.1 q 0.56,0 0.994,0.14 0.434,0.126 0.77,0.448 0.35,0.35 0.35,0.91 v 2.072 q 0,0.49 -0.182,0.868 -0.168,0.364 -0.462,0.574 -0.266,0.196 -0.686,0.322 -0.406,0.126 -0.812,0.154 -0.504,0.028 -0.868,0.028 z"
                 style="font-size:14px;line-height:1.25;fill:#ff2a7f"
                 id="path2194" />
            </g>
          </g>
          <g
             id="x1-y7"
             class="key">
            <path
               id="path4568"
               d="m 304.36,211.14 c -8.4e-4,-1.6888 1.7043,-3.387 3.4472,-3.398 l 27.234,-0.004 c 1.7285,-0.0229 3.4475,1.6978 3.4322,3.3808 l 0.0156,27.332 c 0.006,1.6859 -1.7051,3.3906 -3.406,3.3893 l -27.296,0.004 c -1.7242,0.003 -3.4578,-1.6921 -3.4194,-3.4147 z"
               style="fill:#1e1e1e;stroke:#ff2a7f;stroke-width:1.891" />
            <g
               aria-label="6"
               id="text4570"
               style="line-height:0%;font-family:Play;letter-spacing:0px;word-spacing:0px;fill:#404040">
              <path
                 d="m 321.57804,223.10024 q -0.616,0 -0.994,-0.042 -0.378,-0.042 -0.784,-0.168 -0.434,-0.126 -0.686,-0.364 -0.252,-0.252 -0.42,-0.7 -0.168,-0.448 -0.168,-1.05 v -4.592 q 0,-0.63 0.196,-1.106 0.21,-0.476 0.532,-0.756 0.28,-0.238 0.756,-0.378 0.476,-0.154 0.952,-0.196 0.532,-0.028 0.966,-0.028 0.854,0 2.296,0.126 v 0.952 q -1.442,-0.182 -2.478,-0.182 -0.784,0 -1.19,0.112 -0.406,0.112 -0.602,0.448 -0.182,0.322 -0.182,0.98 v 1.428 h 2.058 q 0.7,0 1.05,0.028 0.35,0.028 0.742,0.112 0.392,0.084 0.574,0.28 0.196,0.196 0.336,0.56 0.126,0.35 0.126,0.882 v 1.33 q 0,1.512 -0.952,1.96 -0.462,0.21 -0.924,0.28 -0.462,0.084 -1.204,0.084 z m 0.028,-0.826 q 0.742,0 1.106,-0.098 0.378,-0.112 0.532,-0.406 0.168,-0.308 0.168,-0.924 v -1.358 q 0,-0.462 -0.14,-0.686 -0.14,-0.238 -0.518,-0.322 -0.378,-0.084 -1.162,-0.084 h -1.82 v 2.45 q 0,0.616 0.168,0.924 0.168,0.294 0.546,0.406 0.378,0.098 1.12,0.098 z"
                 style="font-size:14px;line-height:1.25;fill:#ff2a7f"
                 id="path2197" />
            </g>
          </g>
          <g
             id="x1-y8"
             class="key">
            <path
               id="path4576"
               d="m 343.16,211.14 c -8.4e-4,-1.6888 1.7043,-3.387 3.4472,-3.398 l 27.234,-0.004 c 1.7285,-0.0229 3.4475,1.6978 3.4322,3.3808 l 0.0156,27.332 c 0.006,1.6859 -1.7051,3.3906 -3.406,3.3893 l -27.296,0.004 c -1.7242,0.003 -3.4578,-1.6921 -3.4194,-3.4147 z"
               style="fill:#1e1e1e;stroke:#ff5599;stroke-width:1.891" />
            <g
               aria-label="7"
               id="text4578"
               style="line-height:0%;font-family:Play;letter-spacing:0px;word-spacing:0px;fill:#404040">
              <path
                 d="m 362.33802,214.76844 h -5.208 v -0.91 h 6.384 v 0.91 l -3.472,8.176 h -1.344 z"
                 style="font-size:14px;line-height:1.25;fill:#ff2a7f"
                 id="path2200" />
            </g>
          </g>
          <g
             id="x1-y9"
             class="key">
            <path
               id="path4584"
               d="m 382.06,211.14 c -8.4e-4,-1.6888 1.7043,-3.387 3.4472,-3.398 l 27.234,-0.004 c 1.7285,-0.0229 3.4475,1.6978 3.4322,3.3808 l 0.0156,27.332 c 0.006,1.6859 -1.7051,3.3906 -3.406,3.3893 l -27.296,0.004 c -1.7242,0.003 -3.4578,-1.6921 -3.4194,-3.4147 z"
               style="fill:#1e1e1e;stroke:#ff5599;stroke-width:1.891" />
            <g
               aria-label="8"
               id="text4586"
               style="line-height:0%;font-family:Play;letter-spacing:0px;word-spacing:0px;fill:#404040">
              <path
                 d="m 399.32005,223.10024 q -1.708,0 -2.464,-0.406 -0.756,-0.42 -0.756,-1.372 v -1.694 q 0,-0.546 0.42,-0.91 0.434,-0.378 1.148,-0.546 v -0.056 q -0.63,-0.14 -0.952,-0.448 -0.308,-0.308 -0.308,-0.854 v -1.414 q 0,-0.392 0.126,-0.672 0.126,-0.28 0.42,-0.532 0.602,-0.476 2.366,-0.476 1.764,0 2.366,0.476 0.294,0.252 0.42,0.532 0.126,0.28 0.126,0.672 v 1.414 q 0,0.546 -0.308,0.854 -0.308,0.308 -0.938,0.448 v 0.056 q 0.714,0.168 1.134,0.546 0.434,0.364 0.434,0.91 v 1.666 q 0,0.98 -0.756,1.4 -0.742,0.406 -2.478,0.406 z m 0,-5.236 q 0.924,0 1.274,-0.196 0.364,-0.196 0.364,-0.728 v -1.47 q 0,-0.518 -0.378,-0.728 -0.378,-0.21 -1.26,-0.21 -0.882,0 -1.26,0.21 -0.378,0.21 -0.378,0.728 v 1.47 q 0,0.532 0.35,0.728 0.364,0.196 1.288,0.196 z m 0,4.424 q 1.022,0 1.442,-0.21 0.42,-0.21 0.42,-0.714 v -1.694 q 0,-0.714 -0.602,-0.896 -0.294,-0.084 -0.546,-0.098 -0.252,-0.028 -0.714,-0.028 -0.462,0 -0.7,0.028 -0.238,0.014 -0.546,0.098 -0.616,0.182 -0.616,0.896 v 1.694 q 0,0.504 0.42,0.714 0.42,0.21 1.442,0.21 z"
                 style="font-size:14px;line-height:1.25;fill:#ff5599"
                 id="path2203" />
            </g>
          </g>
          <g
             id="x1-y10"
             class="key">
            <path
               id="path4592"
               d="m 420.46,211.14 c -8.4e-4,-1.6888 1.7043,-3.387 3.4472,-3.398 l 27.234,-0.004 c 1.7285,-0.0229 3.4475,1.6978 3.4322,3.3808 l 0.0156,27.332 c 0.006,1.6859 -1.7051,3.3906 -3.406,3.3893 l -27.296,0.004 c -1.7242,0.003 -3.4578,-1.6921 -3.4194,-3.4147 z"
               style="fill:#1e1e1e;stroke:#ffaacc;stroke-width:1.891" />
            <g
               aria-label="9"
               id="text4594"
               style="line-height:0%;font-family:Play;letter-spacing:0px;word-spacing:0px;fill:#404040">
              <path
                 d="m 437.48904,223.01184 q -1.134,0 -2.366,-0.154 v -0.938 q 1.344,0.238 2.324,0.238 0.826,0 1.274,-0.154 0.462,-0.168 0.658,-0.56 0.196,-0.392 0.196,-1.092 v -1.19 h -2.058 q -0.7,0 -1.05,-0.028 -0.35,-0.028 -0.742,-0.112 -0.392,-0.084 -0.588,-0.28 -0.182,-0.196 -0.322,-0.56 -0.126,-0.364 -0.126,-0.882 v -1.344 q 0,-1.512 0.952,-1.96 0.462,-0.21 0.924,-0.28 0.462,-0.084 1.204,-0.084 0.616,0 0.994,0.042 0.378,0.028 0.784,0.154 0.434,0.14 0.686,0.392 0.252,0.238 0.42,0.672 0.168,0.434 0.168,1.064 v 4.592 q 0,1.33 -0.784,1.904 -0.784,0.56 -2.548,0.56 z m 2.086,-4.662 v -2.464 q 0,-0.616 -0.168,-0.91 -0.168,-0.308 -0.546,-0.406 -0.378,-0.112 -1.12,-0.112 -0.742,0 -1.12,0.112 -0.364,0.098 -0.532,0.406 -0.154,0.294 -0.154,0.91 v 1.372 q 0,0.462 0.14,0.7 0.14,0.224 0.518,0.308 0.378,0.084 1.162,0.084 z"
                 style="font-size:14px;line-height:1.25;fill:#ff80b2"
                 id="path2206" />
            </g>
          </g>
          <g
             id="x1-y11"
             class="key">
            <path
               id="path4600"
               d="m 459.26,211.14 c -8.4e-4,-1.6888 1.7043,-3.387 3.4472,-3.398 l 27.234,-0.004 c 1.7285,-0.0229 3.4475,1.6978 3.4322,3.3808 l 0.0156,27.332 c 0.006,1.6859 -1.7051,3.3906 -3.406,3.3893 l -27.296,0.004 c -1.7242,0.003 -3.4578,-1.6921 -3.4194,-3.4147 z"
               style="fill:#1e1e1e;stroke:#ffaacc;stroke-width:1.891" />
            <g
               aria-label="0"
               id="text4602"
               style="line-height:0%;font-family:Play;letter-spacing:0px;word-spacing:0px;fill:#404040">
              <path
                 d="m 476.52003,222.92345 q -0.616,0 -1.008,-0.042 -0.378,-0.042 -0.812,-0.168 -0.462,-0.126 -0.742,-0.364 -0.266,-0.252 -0.448,-0.7 -0.182,-0.42 -0.182,-1.05 v -4.592 q 0,-0.63 0.182,-1.106 0.182,-0.476 0.476,-0.756 0.266,-0.238 0.7,-0.378 0.448,-0.154 0.896,-0.196 0.504,-0.028 0.938,-0.028 0.616,0 0.994,0.042 0.392,0.042 0.826,0.168 0.462,0.14 0.742,0.392 0.294,0.252 0.476,0.714 0.182,0.462 0.182,1.134 v 4.606 q 0,0.574 -0.182,1.022 -0.182,0.448 -0.476,0.7 -0.28,0.238 -0.714,0.392 -0.434,0.14 -0.882,0.168 -0.392,0.042 -0.966,0.042 z m 0.028,-0.826 q 0.742,0 1.148,-0.098 0.406,-0.112 0.588,-0.42 0.182,-0.308 0.182,-0.91 v -4.76 q 0,-0.658 -0.196,-0.98 -0.182,-0.336 -0.588,-0.448 -0.392,-0.112 -1.148,-0.112 -0.77,0 -1.176,0.112 -0.392,0.112 -0.574,0.448 -0.182,0.322 -0.182,0.98 v 4.76 q 0,0.602 0.182,0.91 0.196,0.308 0.602,0.42 0.406,0.098 1.162,0.098 z"
                 style="font-size:14px;line-height:1.25;fill:#ffaacc"
                 id="path2209" />
            </g>
          </g>
          <g
             id="x2-y2"
             class="key">
            <path
               id="path4633"
               d="m 130.06,249.74 c -8.4e-4,-1.6888 1.7043,-3.387 3.4472,-3.398 l 27.234,-0.004 c 1.7285,-0.0229 3.4475,1.6978 3.4322,3.3808 l 0.0156,27.332 c 0.006,1.6859 -1.7051,3.3906 -3.406,3.3893 l -27.296,0.004 c -1.7242,0.003 -3.4578,-1.6921 -3.4194,-3.4147 z"
               style="fill:#1e1e1e;stroke:#404040;stroke-width:1.891" />
            <g
               aria-label="Q"
               id="text4635"
               style="line-height:0%;font-family:Play;letter-spacing:0px;word-spacing:0px;fill:#404040">
              <path
                 d="m 146.62004,261.44382 q -3.822,0 -3.822,-2.464 v -4.158 q 0,-2.604 3.822,-2.604 3.836,0 3.836,2.59 v 3.752 q 0,1.288 -1.246,2.114 h 2.24 v 0.77 z m 0.028,-0.91 q 2.506,0 2.506,-1.568 v -4.186 q 0,-1.68 -2.52,-1.68 -0.56,0 -0.966,0.07 -0.406,0.056 -0.77,0.224 -0.798,0.378 -0.798,1.386 v 4.186 q 0,1.568 2.548,1.568 z"
                 style="font-size:14px;line-height:1.25"
                 id="path2212" />
            </g>
          </g>
          <g
             id="x2-y3"
             class="key">
            <path
               id="path4641"
               d="m 168.86,249.74 c -8.4e-4,-1.6888 1.7043,-3.387 3.4472,-3.398 l 27.234,-0.004 c 1.7285,-0.0229 3.4475,1.6978 3.4322,3.3808 l 0.0156,27.332 c 0.006,1.6859 -1.7051,3.3906 -3.406,3.3893 l -27.296,0.004 c -1.7242,0.003 -3.4578,-1.6921 -3.4194,-3.4147 z"
               style="fill:#1e1e1e;stroke:#ffcc00;stroke-width:1.891" />
            <g
               aria-label="W"
               id="text4643"
               style="line-height:0%;font-family:Play;letter-spacing:0px;word-spacing:0px;fill:#404040">
              <path
                 d="m 179.26004,252.33328 h 1.442 l 2.254,7.798 h 0.028 l 2.254,-7.798 h 1.442 l 2.254,7.798 h 0.028 l 2.254,-7.798 h 1.372 l -2.926,9.086 h -1.582 l -2.17,-7.56 -2.226,7.56 h -1.582 z"
                 style="font-size:14px;line-height:1.25;fill:#ffcc00"
                 id="path2215" />
            </g>
          </g>
          <g
             id="x2-y4"
             class="key">
            <path
               id="path4649"
               d="m 207.76,249.74 c -8.4e-4,-1.6888 1.7043,-3.387 3.4472,-3.398 l 27.234,-0.004 c 1.7285,-0.0229 3.4475,1.6978 3.4322,3.3808 l 0.0156,27.332 c 0.006,1.6859 -1.7051,3.3906 -3.406,3.3893 l -27.296,0.004 c -1.7242,0.003 -3.4578,-1.6921 -3.4194,-3.4147 z"
               style="fill:#1e1e1e;stroke:#404040;stroke-width:1.891" />
            <g
               aria-label="E"
               id="text4651"
               style="line-height:0%;font-family:Play;letter-spacing:0px;word-spacing:0px;fill:#404040">
              <path
                 d="m 221.70203,252.33328 h 6.104 v 0.952 h -4.746 v 2.968 h 4.284 v 0.952 h -4.284 v 3.262 h 4.886 v 0.952 h -6.244 z"
                 style="font-size:14px;line-height:1.25"
                 id="path2218" />
            </g>
          </g>
          <g
             id="x2-y5"
             class="key">
            <path
               id="path4658"
               d="m 246.16,249.74 c -8.4e-4,-1.6888 1.7043,-3.387 3.4472,-3.398 l 27.234,-0.004 c 1.7285,-0.0229 3.4475,1.6978 3.4322,3.3808 l 0.0156,27.332 c 0.006,1.6859 -1.7051,3.3906 -3.406,3.3893 l -27.296,0.004 c -1.7242,0.003 -3.4578,-1.6921 -3.4194,-3.4147 z"
               style="fill:#1e1e1e;stroke:#404040;stroke-width:1.891" />
            <g
               aria-label="R"
               id="text4660"
               style="line-height:0%;font-family:Play;letter-spacing:0px;word-spacing:0px;fill:#404040">
              <path
                 d="m 259.75202,252.42166 h 3.192 q 1.204,0 1.876,0.154 0.686,0.14 0.994,0.518 0.322,0.378 0.322,1.106 v 1.568 q 0,0.812 -0.672,1.26 -0.658,0.434 -1.68,0.434 l 2.912,4.046 h -1.666 l -2.604,-3.878 h -1.316 v 3.878 h -1.358 z m 3.136,4.312 q 1.008,0 1.442,-0.238 0.448,-0.252 0.448,-0.896 v -1.26 q 0,-1.022 -1.764,-1.022 h -1.904 v 3.416 z"
                 style="font-size:14px;line-height:1.25"
                 id="path2221" />
            </g>
          </g>
          <g
             id="x2-y6"
             class="key">
            <path
               id="path4666"
               d="m 284.96,249.74 c -8.4e-4,-1.6888 1.7043,-3.387 3.4472,-3.398 l 27.234,-0.004 c 1.7285,-0.0229 3.4475,1.6978 3.4322,3.3808 l 0.0156,27.332 c 0.006,1.6859 -1.7051,3.3906 -3.406,3.3893 l -27.296,0.004 c -1.7242,0.003 -3.4578,-1.6921 -3.4194,-3.4147 z"
               style="fill:#1e1e1e;stroke:#404040;stroke-width:1.891" />
            <g
               aria-label="T"
               id="text4668"
               style="line-height:0%;font-family:Play;letter-spacing:0px;word-spacing:0px;fill:#404040">
              <path
                 d="m 301.34505,253.37369 h -3.08 v -0.952 h 7.518 v 0.952 h -3.066 v 8.134 h -1.372 z"
                 style="font-size:14px;line-height:1.25"
                 id="path2224" />
            </g>
          </g>
          <g
             id="x2-y7"
             class="key">
            <path
               id="path4674"
               d="m 323.86,249.74 c -8.4e-4,-1.6888 1.7043,-3.387 3.4472,-3.398 l 27.234,-0.004 c 1.7285,-0.0229 3.4475,1.6978 3.4322,3.3808 l 0.0156,27.332 c 0.006,1.6859 -1.7051,3.3906 -3.406,3.3893 l -27.296,0.004 c -1.7242,0.003 -3.4578,-1.6921 -3.4194,-3.4147 z"
               style="fill:#1e1e1e;stroke:#404040;stroke-width:1.891" />
            <g
               aria-label="Y"
               id="text4676"
               style="line-height:0%;font-family:Play;letter-spacing:0px;word-spacing:0px;fill:#404040">
              <path
                 d="m 340.23803,257.6629 -3.29,-5.418 h 1.554 l 2.422,4.27 2.422,-4.27 h 1.554 l -3.304,5.376 v 3.71 h -1.358 z"
                 style="font-size:14px;line-height:1.25"
                 id="path2227" />
            </g>
          </g>
          <g
             id="x2-y8"
             class="key">
            <path
               id="path4682"
               d="m 362.26,249.74 c -8.4e-4,-1.6888 1.7043,-3.387 3.4472,-3.398 l 27.234,-0.004 c 1.7285,-0.0229 3.4475,1.6978 3.4322,3.3808 l 0.0156,27.332 c 0.006,1.6859 -1.7051,3.3906 -3.406,3.3893 l -27.296,0.004 c -1.7242,0.003 -3.4578,-1.6921 -3.4194,-3.4147 z"
               style="fill:#1e1e1e;stroke:#404040;stroke-width:1.891" />
            <g
               aria-label="U"
               id="text4684"
               style="line-height:0%;font-family:Play;letter-spacing:0px;word-spacing:0px;fill:#404040">
              <path
                 d="m 379.31703,261.22151 q -0.742,0 -1.302,-0.098 -0.546,-0.098 -1.078,-0.336 -0.56,-0.252 -0.868,-0.77 -0.294,-0.518 -0.294,-1.26 v -6.762 h 1.302 v 6.748 q 0,0.854 0.574,1.218 0.574,0.35 1.694,0.35 1.12,0 1.666,-0.35 0.56,-0.364 0.56,-1.218 v -6.748 h 1.302 v 6.762 q 0,2.464 -3.556,2.464 z"
                 style="font-size:14px;line-height:1.25"
                 id="path2230" />
            </g>
          </g>
          <g
             id="x2-y9"
             class="key">
            <path
               id="path4690"
               d="m 401.06,249.74 c -8.4e-4,-1.6888 1.7043,-3.387 3.4472,-3.398 l 27.234,-0.004 c 1.7285,-0.0229 3.4475,1.6978 3.4322,3.3808 l 0.0156,27.332 c 0.006,1.6859 -1.7051,3.3906 -3.406,3.3893 l -27.296,0.004 c -1.7242,0.003 -3.4578,-1.6921 -3.4194,-3.4147 z"
               style="fill:#1e1e1e;stroke:#404040;stroke-width:1.891" />
            <g
               aria-label="I"
               id="text4692"
               style="line-height:0%;font-family:Play;letter-spacing:0px;word-spacing:0px;fill:#404040">
              <path
                 d="m 417.44504,252.2449 h 1.358 v 9.086 h -1.358 z"
                 style="font-size:14px;line-height:1.25"
                 id="path2233" />
            </g>
          </g>
          <g
             id="x2-y10"
             class="key">
            <path
               id="path4698"
               d="m 439.96,249.74 c -8.4e-4,-1.6888 1.7043,-3.387 3.4472,-3.398 l 27.234,-0.004 c 1.7285,-0.0229 3.4475,1.6978 3.4322,3.3808 l 0.0156,27.332 c 0.006,1.6859 -1.7051,3.3906 -3.406,3.3893 l -27.296,0.004 c -1.7242,0.003 -3.4578,-1.6921 -3.4194,-3.4147 z"
               style="fill:#1e1e1e;stroke:#404040;stroke-width:1.891" />
            <g
               aria-label="O"
               id="text4700"
               style="line-height:0%;font-family:Play;letter-spacing:0px;word-spacing:0px;fill:#404040">
              <path
                 d="m 457.00303,261.57069 q -3.808,0 -3.808,-2.464 v -4.298 q 0,-2.604 3.808,-2.604 3.85,0 3.85,2.59 v 4.312 q 0,1.316 -1.064,1.89 -1.064,0.574 -2.786,0.574 z m 0.028,-0.91 q 2.506,0 2.506,-1.568 v -4.326 q 0,-1.68 -2.52,-1.68 -1.218,0 -1.876,0.378 -0.644,0.378 -0.644,1.302 v 4.326 q 0,1.568 2.534,1.568 z"
                 style="font-size:14px;line-height:1.25"
                 id="path2236" />
            </g>
          </g>
          <g
             id="x2-y11"
             class="key">
            <path
               id="path4707"
               d="m 478.36,249.74 c -8.4e-4,-1.6888 1.7043,-3.387 3.4472,-3.398 l 27.234,-0.004 c 1.7285,-0.0229 3.4475,1.6978 3.4322,3.3808 l 0.0156,27.332 c 0.006,1.6859 -1.7051,3.3906 -3.406,3.3893 l -27.296,0.004 c -1.7242,0.003 -3.4578,-1.6921 -3.4194,-3.4147 z"
               style="fill:#1e1e1e;stroke:#404040;stroke-width:1.891" />
            <g
               aria-label="P"
               id="text4709"
               style="line-height:0%;font-family:Play;letter-spacing:0px;word-spacing:0px;fill:#404040">
              <path
                 d="m 492.33704,251.97973 h 2.968 q 0.63,0 1.008,0.028 0.392,0.028 0.826,0.126 0.448,0.098 0.714,0.294 0.28,0.196 0.476,0.532 0.182,0.322 0.182,0.812 v 1.89 q 0,1.134 -0.882,1.638 -0.868,0.49 -2.576,0.49 h -1.358 v 3.276 h -1.358 z m 2.898,4.956 q 0.882,0 1.414,-0.322 0.532,-0.322 0.532,-1.022 v -1.652 q 0,-0.378 -0.196,-0.616 -0.196,-0.252 -0.56,-0.35 -0.35,-0.084 -0.588,-0.112 -0.238,-0.028 -0.63,-0.028 h -1.526 v 4.102 z"
                 style="font-size:14px;line-height:1.25"
                 id="path2239" />
            </g>
          </g>
          <g
             id="x3-y2"
             class="key">
            <path
               id="path4740"
               d="m 139.66,288.54 c -8.4e-4,-1.6888 1.7043,-3.387 3.4472,-3.398 l 27.234,-0.004 c 1.7285,-0.0229 3.4475,1.6978 3.4322,3.3808 l 0.0156,27.332 c 0.006,1.6859 -1.7051,3.3906 -3.406,3.3893 l -27.296,0.004 c -1.7242,0.003 -3.4578,-1.6921 -3.4194,-3.4147 z"
               style="fill:#1e1e1e;stroke:#ffcc00;stroke-width:1.891" />
            <g
               aria-label="A"
               id="text4742"
               style="line-height:0%;font-family:Play;letter-spacing:0px;word-spacing:0px;fill:#404040">
              <path
                 d="m 155.98203,291.6636 h 1.568 l 3.528,9.086 h -1.414 l -1.036,-2.758 h -3.892 l -1.022,2.758 h -1.344 z m 2.31,5.39 -1.54,-4.102 h -0.126 l -1.54,4.102 z"
                 style="font-size:14px;line-height:1.25;fill:#ffcc00"
                 id="path2242" />
            </g>
          </g>
          <g
             id="x3-y3"
             class="key">
            <path
               id="path4748"
               d="m 178.46,288.54 c -8.4e-4,-1.6888 1.7043,-3.387 3.4472,-3.398 l 27.234,-0.004 c 1.7285,-0.0229 3.4475,1.6978 3.4322,3.3808 l 0.0156,27.332 c 0.006,1.6859 -1.7051,3.3906 -3.406,3.3893 l -27.296,0.004 c -1.7242,0.003 -3.4578,-1.6921 -3.4194,-3.4147 z"
               style="fill:#1e1e1e;stroke:#ffcc00;stroke-width:1.891" />
            <g
               aria-label="S"
               id="text4750"
               style="line-height:0%;font-family:Play;letter-spacing:0px;word-spacing:0px;fill:#404040">
              <path
                 d="m 195.30003,301.07777 q -1.162,0 -2.772,-0.224 v -1.134 q 1.624,0.35 2.856,0.35 1.036,0 1.512,-0.224 0.476,-0.238 0.476,-0.868 v -1.176 q 0,-0.588 -0.336,-0.826 -0.336,-0.238 -1.176,-0.238 h -1.064 q -1.33,0 -1.89,-0.532 -0.56,-0.532 -0.56,-1.652 v -0.728 q 0,-0.742 0.322,-1.204 0.336,-0.462 1.106,-0.686 0.784,-0.224 2.142,-0.224 0.91,0 2.338,0.154 v 1.022 q -1.596,-0.238 -2.436,-0.238 -1.302,0 -1.722,0.252 -0.434,0.266 -0.434,0.882 v 1.036 q 0,0.476 0.336,0.7 0.35,0.21 1.19,0.21 h 1.092 q 0.938,0 1.456,0.224 0.532,0.224 0.742,0.686 0.224,0.448 0.224,1.218 v 0.658 q 0,0.966 -0.364,1.526 -0.35,0.56 -1.092,0.798 -0.742,0.238 -1.946,0.238 z"
                 style="font-size:14px;line-height:1.25;fill:#ffcc00"
                 id="path2245" />
            </g>
          </g>
          <g
             id="x3-y4"
             class="key">
            <path
               id="path4757"
               d="m 217.36,288.54 c -8.4e-4,-1.6888 1.7043,-3.387 3.4472,-3.398 l 27.234,-0.004 c 1.7285,-0.0229 3.4475,1.6978 3.4322,3.3808 l 0.0156,27.332 c 0.006,1.6859 -1.7051,3.3906 -3.406,3.3893 l -27.296,0.004 c -1.7242,0.003 -3.4578,-1.6921 -3.4194,-3.4147 z"
               style="fill:#1e1e1e;stroke:#ffcc00;stroke-width:1.891" />
            <g
               aria-label="D"
               id="text4759"
               style="line-height:0%;font-family:Play;letter-spacing:0px;word-spacing:0px;fill:#404040">
              <path
                 d="m 230.70704,291.75198 h 3.612 q 3.822,0 3.822,2.604 v 4.018 q 0,2.464 -3.808,2.464 h -3.626 z m 3.528,8.162 q 2.604,0 2.604,-1.568 v -4.004 q 0,-0.504 -0.21,-0.854 -0.21,-0.35 -0.588,-0.518 -0.378,-0.154 -0.784,-0.21 -0.406,-0.07 -0.952,-0.07 h -2.24 v 7.224 z"
                 style="font-size:14px;line-height:1.25;fill:#ffcc00"
                 id="path2248" />
            </g>
          </g>
          <g
             id="x3-y5"
             class="key">
            <path
               id="path4765"
               d="m 255.76,288.54 c -8.4e-4,-1.6888 1.7043,-3.387 3.4472,-3.398 l 27.234,-0.004 c 1.7285,-0.0229 3.4475,1.6978 3.4322,3.3808 l 0.0156,27.332 c 0.006,1.6859 -1.7051,3.3906 -3.406,3.3893 l -27.296,0.004 c -1.7242,0.003 -3.4578,-1.6921 -3.4194,-3.4147 z"
               style="fill:#1e1e1e;stroke:#404040;stroke-width:1.891" />
            <g
               aria-label="F"
               id="text4767"
               style="line-height:0%;font-family:Play;letter-spacing:0px;word-spacing:0px;fill:#404040">
              <path
                 d="m 269.70203,291.75198 h 6.244 v 0.952 h -4.886 v 2.968 h 4.424 v 0.952 h -4.424 v 4.214 h -1.358 z"
                 style="font-size:14px;line-height:1.25"
                 id="path2251" />
            </g>
          </g>
          <g
             id="x3-y6"
             class="key">
            <path
               id="path4773"
               d="m 294.56,288.54 c -8.4e-4,-1.6888 1.7043,-3.387 3.4472,-3.398 l 27.234,-0.004 c 1.7285,-0.0229 3.4475,1.6978 3.4322,3.3808 l 0.0156,27.332 c 0.006,1.6859 -1.7051,3.3906 -3.406,3.3893 l -27.296,0.004 c -1.7242,0.003 -3.4578,-1.6921 -3.4194,-3.4147 z"
               style="fill:#1e1e1e;stroke:#404040;stroke-width:1.891" />
            <g
               aria-label="G"
               id="text4775"
               style="line-height:0%;font-family:Play;letter-spacing:0px;word-spacing:0px;fill:#404040">
              <path
                 d="m 312.04404,301.16615 q -0.644,0 -1.148,-0.056 -0.49,-0.056 -1.036,-0.21 -0.616,-0.168 -1.036,-0.42 -0.42,-0.266 -0.686,-0.714 -0.28,-0.476 -0.28,-1.064 v -4.298 q 0,-0.784 0.406,-1.344 0.406,-0.56 1.12,-0.812 0.686,-0.238 1.302,-0.336 0.63,-0.112 1.358,-0.112 1.736,0 3.136,0.224 v 1.05 q -0.532,-0.126 -1.526,-0.224 -0.98,-0.112 -1.582,-0.112 -2.87,0 -2.87,1.652 v 4.284 q 0,0.448 0.266,0.784 0.28,0.336 0.756,0.49 0.448,0.168 0.896,0.238 0.448,0.056 1.008,0.056 0.938,0 2.002,-0.252 v -3.178 h -2.128 v -0.952 h 3.388 v 4.886 q -1.82,0.42 -3.346,0.42 z"
                 style="font-size:14px;line-height:1.25"
                 id="path2254" />
            </g>
          </g>
          <g
             id="x3-y7"
             class="key">
            <path
               id="path4782"
               d="m 333.46,288.54 c -8.4e-4,-1.6888 1.7043,-3.387 3.4472,-3.398 l 27.234,-0.004 c 1.7285,-0.0229 3.4475,1.6978 3.4322,3.3808 l 0.0156,27.332 c 0.006,1.6859 -1.7051,3.3906 -3.406,3.3893 l -27.296,0.004 c -1.7242,0.003 -3.4578,-1.6921 -3.4194,-3.4147 z"
               style="fill:#1e1e1e;stroke:#404040;stroke-width:1.891" />
            <g
               aria-label="H"
               id="text4784"
               style="line-height:0%;font-family:Play;letter-spacing:0px;word-spacing:0px;fill:#404040">
              <path
                 d="m 346.75104,291.57522 h 1.358 v 3.92 h 4.83 v -3.92 h 1.358 v 9.086 h -1.358 v -4.214 h -4.83 v 4.214 h -1.358 z"
                 style="font-size:14px;line-height:1.25"
                 id="path2257" />
            </g>
          </g>
          <g
             id="x3-y8"
             class="key">
            <path
               id="path4790"
               d="m 371.86,288.54 c -8.4e-4,-1.6888 1.7043,-3.387 3.4472,-3.398 l 27.234,-0.004 c 1.7285,-0.0229 3.4475,1.6978 3.4322,3.3808 l 0.0156,27.332 c 0.006,1.6859 -1.7051,3.3906 -3.406,3.3893 l -27.296,0.004 c -1.7242,0.003 -3.4578,-1.6921 -3.4194,-3.4147 z"
               style="fill:#1e1e1e;stroke:#404040;stroke-width:1.891" />
            <g
               aria-label="J"
               id="text4792"
               style="line-height:0%;font-family:Play;letter-spacing:0px;word-spacing:0px;fill:#404040">
              <path
                 d="m 388.49703,300.90541 q -1.12,0 -1.666,-0.154 v -0.91 q 0.84,0.224 1.498,0.224 0.546,0 0.826,-0.098 0.28,-0.098 0.392,-0.35 0.112,-0.266 0.112,-0.798 v -7.14 h 1.358 v 7.084 q 0,0.868 -0.252,1.33 -0.252,0.448 -0.784,0.63 -0.532,0.182 -1.484,0.182 z"
                 style="font-size:14px;line-height:1.25"
                 id="path2260" />
            </g>
          </g>
          <g
             id="x3-y9"
             class="key">
            <path
               id="path4798"
               d="m 410.66,288.54 c -8.4e-4,-1.6888 1.7043,-3.387 3.4472,-3.398 l 27.234,-0.004 c 1.7285,-0.0229 3.4475,1.6978 3.4322,3.3808 l 0.0156,27.332 c 0.006,1.6859 -1.7051,3.3906 -3.406,3.3893 l -27.296,0.004 c -1.7242,0.003 -3.4578,-1.6921 -3.4194,-3.4147 z"
               style="fill:#1e1e1e;stroke:#404040;stroke-width:1.891" />
            <g
               aria-label="K"
               id="text4800"
               style="line-height:0%;font-family:Play;letter-spacing:0px;word-spacing:0px;fill:#404040">
              <path
                 d="m 423.97904,291.75198 h 1.358 v 9.086 h -1.358 z m 1.386,4.256 4.06,-4.256 h 1.638 l -4.088,4.2 4.494,4.886 h -1.764 z"
                 style="font-size:14px;line-height:1.25"
                 id="path2263" />
            </g>
          </g>
          <g
             id="x3-y10"
             class="key">
            <path
               id="path4807"
               d="m 449.56,288.54 c -8.4e-4,-1.6888 1.7043,-3.387 3.4472,-3.398 l 27.234,-0.004 c 1.7285,-0.0229 3.4475,1.6978 3.4322,3.3808 l 0.0156,27.332 c 0.006,1.6859 -1.7051,3.3906 -3.406,3.3893 l -27.296,0.004 c -1.7242,0.003 -3.4578,-1.6921 -3.4194,-3.4147 z"
               style="fill:#1e1e1e;stroke:#404040;stroke-width:1.891" />
            <g
               aria-label="L"
               id="text4809"
               style="line-height:0%;font-family:Play;letter-spacing:0px;word-spacing:0px;fill:#404040">
              <path
                 d="m 463.71204,291.75198 h 1.358 v 8.134 h 4.466 v 0.952 h -5.824 z"
                 style="font-size:14px;line-height:1.25"
                 id="path2266" />
            </g>
          </g>
          <g
             id="x3-y11"
             class="key">
            <path
               id="path4815"
               d="m 487.96,288.54 c -8.4e-4,-1.6888 1.7043,-3.387 3.4472,-3.398 l 27.234,-0.004 c 1.7285,-0.0229 3.4475,1.6978 3.4322,3.3808 l 0.0156,27.332 c 0.006,1.6859 -1.7051,3.3906 -3.406,3.3893 l -27.296,0.004 c -1.7242,0.003 -3.4578,-1.6921 -3.4194,-3.4147 z"
               style="fill:#1e1e1e;stroke:#404040;stroke-width:1.891" />
            <g
               aria-label=";"
               id="text4817"
               style="line-height:0%;font-family:Play;letter-spacing:0px;word-spacing:0px;fill:#404040">
              <path
                 d="m 504.39403,291.6864 h 1.624 v 1.512 h -1.624 z m 0.21,5.264 h 1.484 l -1.316,3.08 h -0.812 z"
                 style="font-size:14px;line-height:1.25"
                 id="path2269" />
            </g>
          </g>
          <g
             id="x4-y3"
             class="key">
            <path
               id="path4832"
               d="m 159.16,327.14 c -8.4e-4,-1.6888 1.7043,-3.387 3.4472,-3.398 l 27.234,-0.004 c 1.7285,-0.0229 3.4475,1.6978 3.4322,3.3808 l 0.0156,27.332 c 0.006,1.6859 -1.7051,3.3906 -3.406,3.3893 l -27.296,0.004 c -1.7242,0.003 -3.4578,-1.6921 -3.4194,-3.4147 z"
               style="fill:#1e1e1e;stroke:#404040;stroke-width:1.891" />
            <g
               aria-label="Z"
               id="text4834"
               style="line-height:0%;font-family:Play;letter-spacing:0px;word-spacing:0px;fill:#404040">
              <path
                 d="m 172.72403,338.06335 5.348,-7.182 h -5.208 v -0.952 h 6.776 v 0.952 l -5.348,7.182 h 5.432 v 0.952 h -7 z"
                 style="font-size:14px;line-height:1.25"
                 id="path2272" />
            </g>
          </g>
          <g
             id="x4-y4"
             class="key">
            <path
               id="path4840"
               d="m 197.96,327.14 c -8.4e-4,-1.6888 1.7043,-3.387 3.4472,-3.398 l 27.234,-0.004 c 1.7285,-0.0229 3.4475,1.6978 3.4322,3.3808 l 0.0156,27.332 c 0.006,1.6859 -1.7051,3.3906 -3.406,3.3893 l -27.296,0.004 c -1.7242,0.003 -3.4578,-1.6921 -3.4194,-3.4147 z"
               style="fill:#1e1e1e;stroke:#404040;stroke-width:1.891" />
            <g
               aria-label="X"
               id="text4842"
               style="line-height:0%;font-family:Play;letter-spacing:0px;word-spacing:0px;fill:#404040">
              <path
                 d="m 214.25404,334.38135 -3.206,-4.452 h 1.554 l 2.422,3.514 2.422,-3.514 h 1.554 l -3.206,4.452 3.346,4.634 h -1.554 l -2.562,-3.696 -2.562,3.696 h -1.554 z"
                 style="font-size:14px;line-height:1.25"
                 id="path2275" />
            </g>
          </g>
          <g
             id="x4-y5"
             class="key">
            <path
               id="path4848"
               d="m 236.86,327.14 c -8.4e-4,-1.6888 1.7043,-3.387 3.4472,-3.398 l 27.234,-0.004 c 1.7285,-0.0229 3.4475,1.6978 3.4322,3.3808 l 0.0156,27.332 c 0.006,1.6859 -1.7051,3.3906 -3.406,3.3893 l -27.296,0.004 c -1.7242,0.003 -3.4578,-1.6921 -3.4194,-3.4147 z"
               style="fill:#1e1e1e;stroke:#404040;stroke-width:1.891" />
            <g
               aria-label="C"
               id="text4850"
               style="line-height:0%;font-family:Play;letter-spacing:0px;word-spacing:0px;fill:#404040">
              <path
                 d="m 254.56103,339.32835 q -3.822,0 -3.822,-2.464 v -4.312 q 0,-2.604 3.822,-2.604 1.302,0 2.492,0.266 v 1.008 q -1.344,-0.336 -2.464,-0.336 -0.546,0 -0.952,0.07 -0.406,0.056 -0.784,0.21 -0.812,0.35 -0.812,1.372 v 4.256 q 0,1.568 2.604,1.568 1.12,0 2.464,-0.336 v 1.036 q -1.19,0.266 -2.548,0.266 z"
                 style="font-size:14px;line-height:1.25"
                 id="path2278" />
            </g>
          </g>
          <g
             id="x4-y6"
             class="key">
            <path
               id="path4857"
               d="m 275.26,327.14 c -8.4e-4,-1.6888 1.7043,-3.387 3.4472,-3.398 l 27.234,-0.004 c 1.7285,-0.0229 3.4475,1.6978 3.4322,3.3808 l 0.0156,27.332 c 0.006,1.6859 -1.7051,3.3906 -3.406,3.3893 l -27.296,0.004 c -1.7242,0.003 -3.4578,-1.6921 -3.4194,-3.4147 z"
               style="fill:#1e1e1e;stroke:#404040;stroke-width:1.891" />
            <g
               aria-label="V"
               id="text4859"
               style="line-height:0%;font-family:Play;letter-spacing:0px;word-spacing:0px;fill:#404040">
              <path
                 d="m 287.97004,329.92935 h 1.414 l 2.912,7.798 h 0.126 l 2.912,-7.798 h 1.344 l -3.612,9.086 h -1.568 z"
                 style="font-size:14px;line-height:1.25"
                 id="path2281" />
            </g>
          </g>
          <g
             id="x4-y7"
             class="key">
            <path
               id="path4865"
               d="m 314.06,327.14 c -8.4e-4,-1.6888 1.7043,-3.387 3.4472,-3.398 l 27.234,-0.004 c 1.7285,-0.0229 3.4475,1.6978 3.4322,3.3808 l 0.0156,27.332 c 0.006,1.6859 -1.7051,3.3906 -3.406,3.3893 l -27.296,0.004 c -1.7242,0.003 -3.4578,-1.6921 -3.4194,-3.4147 z"
               style="fill:#1e1e1e;stroke:#404040;stroke-width:1.891" />
            <g
               aria-label="B"
               id="text4867"
               style="line-height:0%;font-family:Play;letter-spacing:0px;word-spacing:0px;fill:#404040">
              <path
                 d="m 327.84104,330.05435 h 3.248 q 1.162,0 1.848,0.238 0.63,0.224 0.84,0.56 0.224,0.336 0.224,0.924 v 1.218 q 0,0.546 -0.308,0.854 -0.308,0.294 -0.938,0.434 v 0.056 q 0.742,0.126 1.19,0.518 0.462,0.378 0.462,0.952 v 1.526 q 0,0.994 -0.742,1.4 -0.742,0.406 -2.478,0.406 h -3.346 z m 3.29,3.976 q 0.854,0 1.218,-0.252 0.378,-0.266 0.378,-0.826 v -1.064 q 0,-0.518 -0.378,-0.728 -0.378,-0.21 -1.26,-0.21 h -1.89 v 3.08 z m 0.056,4.172 q 1.022,0 1.442,-0.21 0.42,-0.21 0.42,-0.714 v -1.372 q 0,-0.364 -0.154,-0.574 -0.14,-0.224 -0.448,-0.322 -0.308,-0.084 -0.546,-0.098 -0.238,-0.028 -0.714,-0.028 h -1.988 v 3.318 z"
                 style="font-size:14px;line-height:1.25"
                 id="path2284" />
            </g>
          </g>
          <g
             id="x4-y8"
             class="key">
            <path
               id="path4873"
               d="m 352.96,327.14 c -8.4e-4,-1.6888 1.7043,-3.387 3.4472,-3.398 l 27.234,-0.004 c 1.7285,-0.0229 3.4475,1.6978 3.4322,3.3808 l 0.0156,27.332 c 0.006,1.6859 -1.7051,3.3906 -3.406,3.3893 l -27.296,0.004 c -1.7242,0.003 -3.4578,-1.6921 -3.4194,-3.4147 z"
               style="fill:#1e1e1e;stroke:#404040;stroke-width:1.891" />
            <g
               aria-label="N"
               id="text4875"
               style="line-height:0%;font-family:Play;letter-spacing:0px;word-spacing:0px;fill:#404040">
              <path
                 d="m 366.13904,329.92935 h 1.638 l 4.942,7.504 v -7.504 h 1.19 v 9.086 h -1.638 l -4.942,-7.63 v 7.63 h -1.19 z"
                 style="font-size:14px;line-height:1.25"
                 id="path2287" />
            </g>
          </g>
          <g
             id="x4-y9"
             class="key">
            <path
               id="path4882"
               d="m 391.36,327.14 c -8.4e-4,-1.6888 1.7043,-3.387 3.4472,-3.398 l 27.234,-0.004 c 1.7285,-0.0229 3.4475,1.6978 3.4322,3.3808 l 0.0156,27.332 c 0.006,1.6859 -1.7051,3.3906 -3.406,3.3893 l -27.296,0.004 c -1.7242,0.003 -3.4578,-1.6921 -3.4194,-3.4147 z"
               style="fill:#1e1e1e;stroke:#404040;stroke-width:1.891" />
            <g
               aria-label="M"
               id="text4884"
               style="line-height:0%;font-family:Play;letter-spacing:0px;word-spacing:0px;fill:#404040">
              <path
                 d="m 403.57303,329.80435 h 2.03 l 2.912,7.56 0.042,0.014 2.758,-7.574 h 1.96 v 9.086 h -1.19 v -7.686 h -0.07 l -2.926,7.686 h -1.218 l -3.01,-7.686 h -0.07 v 7.686 h -1.218 z"
                 style="font-size:14px;line-height:1.25"
                 id="path2290" />
            </g>
          </g>
          <g
             id="x4-y10"
             class="key">
            <path
               id="path4890"
               d="m 430.16,327.14 c -8.4e-4,-1.6888 1.7043,-3.387 3.4472,-3.398 l 27.234,-0.004 c 1.7285,-0.0229 3.4475,1.6978 3.4322,3.3808 l 0.0156,27.332 c 0.006,1.6859 -1.7051,3.3906 -3.406,3.3893 l -27.296,0.004 c -1.7242,0.003 -3.4578,-1.6921 -3.4194,-3.4147 z"
               style="fill:#1e1e1e;stroke:#404040;stroke-width:1.891" />
            <g
               aria-label=","
               id="text4892"
               style="line-height:0%;font-family:Play;letter-spacing:0px;word-spacing:0px;fill:#404040">
              <path
                 d="m 446.80404,330.22436 h 1.484 l -1.316,3.08 h -0.812 z"
                 style="font-size:14px;line-height:1.25"
                 id="path2293" />
            </g>
          </g>
          <g
             id="x4-y11"
             class="key">
            <path
               id="path4898"
               d="m 469.06,327.14 c -8.4e-4,-1.6888 1.7043,-3.387 3.4472,-3.398 l 27.234,-0.004 c 1.7285,-0.0229 3.4475,1.6978 3.4322,3.3808 l 0.0156,27.332 c 0.006,1.6859 -1.7051,3.3906 -3.406,3.3893 l -27.296,0.004 c -1.7242,0.003 -3.4578,-1.6921 -3.4194,-3.4147 z"
               style="fill:#1e1e1e;stroke:#404040;stroke-width:1.891" />
            <g
               aria-label="."
               id="text4900"
               style="line-height:0%;font-family:Play;letter-spacing:0px;word-spacing:0px;fill:#404040">
              <path
                 d="m 485.31203,330.25335 h 1.624 v 1.512 h -1.624 z"
                 style="font-size:14px;line-height:1.25"
                 id="path2296" />
            </g>
          </g>
          <g
             id="x2-y1"
             class="key">
            <path
               id="path4915"
               d="m 121.86,246.23 c 1.7369,0.0136 3.38,1.8476 3.406,3.4628 l 4.1e-4,27.357 c -0.003,1.6102 -1.6928,3.4157 -3.4064,3.4477 l -46.366,0.016 c -1.8932,-0.008 -3.4035,-1.8356 -3.406,-3.4213 l -0.003,-27.42 c 0.004,-1.5278 1.6945,-3.3992 3.409,-3.4348 z"
               style="fill:#1e1e1e;stroke:#404040;stroke-width:1.891" />
            <g
               aria-label="Tab"
               id="text4917"
               style="line-height:0%;font-family:Play;letter-spacing:0px;word-spacing:0px;fill:#404040">
              <path
                 d="m 93.635281,252.71677 h -1.466674 v -0.45334 h 3.580018 v 0.45334 h -1.460008 v 3.87335 h -0.653336 z"
                 style="font-size:6.6667px"
                 id="path2299" />
              <path
                 d="m 97.724619,256.67012 q -0.552,0 -0.856,-0.104 -0.296,-0.104 -0.432,-0.368 -0.128,-0.264 -0.128,-0.76 0,-0.44 0.12,-0.68 0.128,-0.248 0.424,-0.352 0.304,-0.104 0.856,-0.104 h 1.16 v -0.616 q 0,-0.216 -0.088,-0.328 -0.08,-0.12 -0.28,-0.168 -0.192,-0.048 -0.568,-0.048 -0.6,0 -1.328,0.096 v -0.528 q 0.792,-0.072 1.432,-0.072 0.672,0 0.992,0.104 0.32,0.096 0.44,0.344 0.12,0.248 0.12,0.768 v 2.736 h -0.696 v -0.368 q -0.088,0.448 -1.168,0.448 z m 0.12,-0.472 q 0.392,0 0.664,-0.056 0.36,-0.072 0.36,-0.336 v -1.056 h -1.112 q -0.344,0 -0.496,0.056 -0.152,0.048 -0.2,0.192 -0.048,0.144 -0.048,0.464 0,0.288 0.056,0.448 0.056,0.152 0.2,0.224 0.144,0.064 0.432,0.064 z"
                 style="font-size:8px;line-height:1.25"
                 id="path2301" />
              <path
                 d="m 102.5646,256.67012 q -0.432,0 -0.696,-0.048 -0.256,-0.04 -0.512,-0.16 -0.52,-0.248 -0.52,-1.136 v -4.336 h 0.72 v 1.16 0.456 q -0.008,0.208 -0.008,0.464 0.04,-0.184 0.336,-0.312 0.304,-0.12 0.88,-0.12 1.6,0 1.6,1.096 v 1.592 q 0,0.344 -0.104,0.6 -0.096,0.256 -0.256,0.4 -0.144,0.136 -0.4,0.216 -0.248,0.08 -0.496,0.104 -0.224,0.024 -0.544,0.024 z m 0.016,-0.472 q 0.416,0 0.632,-0.056 0.224,-0.064 0.32,-0.224 0.096,-0.16 0.096,-0.488 v -1.52 q 0,-0.328 -0.096,-0.488 -0.096,-0.168 -0.32,-0.216 -0.216,-0.056 -0.64,-0.056 -0.392,0 -0.608,0.064 -0.216,0.064 -0.312,0.232 -0.096,0.16 -0.096,0.464 v 1.52 q 0,0.328 0.088,0.488 0.096,0.16 0.312,0.224 0.216,0.056 0.624,0.056 z"
                 style="font-size:8px;line-height:1.25"
                 id="path2303" />
            </g>
            <path
               id="path2200-3-6"
               style="fill:#404040"
               d="m 94.377,257.55 v 3.1491 h 0.3755 v -1.5745 l 0.30649,0.24449 1.7664,1.3347 c 4.5e-4,-0.60685 0.01638,-0.90998 0.01638,-1.1651 h 6.1262 v -0.81535 c -0.72002,0.002 -3.2682,0 -6.1075,0 0,-0.48076 0.0047,-0.57932 0.0047,-1.1651 l -1.8062,1.3347 -0.30648,0.22226 V 257.55 Z" />
            <path
               id="path2200-3-6-7"
               style="fill:#404040"
               d="m 102.97,260.74 v 3.1491 h -0.37551 v -1.5745 l -0.30648,0.24449 -1.7664,1.3347 c -4.5e-4,-0.60685 -0.0163,-0.90998 -0.0163,-1.1651 h -6.1262 v -0.81535 c 0.72001,0.002 3.2682,0 6.1075,0 0,-0.48077 -0.005,-0.57933 -0.005,-1.1651 l 1.8062,1.3347 0.30648,0.22226 V 260.74 Z" />
          </g>
          <g
             id="x3-y1"
             class="key">
            <path
               id="path4923"
               d="m 131.64,285.11 c 1.6601,2.7e-4 3.3645,1.7075 3.406,3.448 l 9.3e-4,27.239 c -0.0263,1.6755 -1.8572,3.4526 -3.4069,3.4329 l -56.076,0.0159 c -1.6424,-0.0307 -3.3953,-1.9064 -3.4025,-3.4066 l -0.006,-27.3 c 0.01943,-1.593 1.7072,-3.3628 3.406,-3.42 z"
               style="fill:#1e1e1e;stroke:#404040;stroke-width:1.891" />
            <g
               aria-label="capsLK"
               id="text4925"
               style="line-height:0%;font-family:Play;letter-spacing:0px;word-spacing:0px;fill:#404040">
              <path
                 d="m 93.321901,295.76237 q -0.4,0 -0.584,-0.016 -0.176,-0.016 -0.408,-0.08 -0.248,-0.064 -0.384,-0.192 -0.136,-0.128 -0.232,-0.376 -0.096,-0.24 -0.096,-0.6 v -1.424 q 0,-0.648 0.248,-0.928 0.136,-0.16 0.272,-0.24 0.144,-0.088 0.368,-0.12 0.224,-0.032 0.4,-0.04 0.176,-0.016 0.496,-0.016 0.552,0 1.104,0.12 v 0.528 q -0.64,-0.16 -1.192,-0.16 -0.416,0 -0.616,0.064 -0.192,0.056 -0.272,0.216 -0.072,0.152 -0.072,0.472 v 1.584 q 0,0.296 0.08,0.44 0.088,0.144 0.304,0.208 0.224,0.056 0.656,0.056 0.584,0 1.168,-0.152 v 0.544 q -0.544,0.112 -1.24,0.112 z"
                 style="font-size:8px;line-height:0.9"
                 id="path2306" />
              <path
                 d="m 96.665892,295.76237 q -0.552,0 -0.856,-0.104 -0.296,-0.104 -0.432,-0.368 -0.128,-0.264 -0.128,-0.76 0,-0.44 0.12,-0.68 0.128,-0.248 0.424,-0.352 0.304,-0.104 0.856,-0.104 h 1.16 v -0.616 q 0,-0.216 -0.088,-0.328 -0.08,-0.12 -0.28,-0.168 -0.192,-0.048 -0.568,-0.048 -0.6,0 -1.328,0.096 v -0.528 q 0.792,-0.072 1.432,-0.072 0.672,0 0.992,0.104 0.32,0.096 0.44,0.344 0.12,0.248 0.12,0.768 v 2.736 h -0.696 v -0.368 q -0.088,0.448 -1.168,0.448 z m 0.12,-0.472 q 0.392,0 0.664,-0.056 0.36,-0.072 0.36,-0.336 v -1.056 h -1.112 q -0.344,0 -0.496,0.056 -0.152,0.048 -0.2,0.192 -0.048,0.144 -0.048,0.464 0,0.288 0.056,0.448 0.056,0.152 0.2,0.224 0.144,0.064 0.432,0.064 z"
                 style="font-size:8px;line-height:0.9"
                 id="path2308" />
              <path
                 d="m 99.777877,291.81037 h 0.712003 v 0.416 h 0.008 q 0.088,-0.496 1.32,-0.496 0.736,0 1.112,0.312 0.376,0.304 0.376,0.784 v 1.592 q 0,0.344 -0.104,0.6 -0.096,0.256 -0.256,0.4 -0.144,0.136 -0.4,0.216 -0.248,0.08 -0.496,0.104 -0.224,0.024 -0.544,0.024 -0.352,0 -0.648,-0.08 -0.288,-0.088 -0.36,-0.248 v 1.912 h -0.720003 z m 1.744003,3.464 q 0.416,0 0.632,-0.056 0.224,-0.064 0.32,-0.224 0.096,-0.16 0.096,-0.488 v -1.424 q 0,-0.36 -0.096,-0.536 -0.096,-0.176 -0.32,-0.232 -0.216,-0.064 -0.64,-0.064 -0.424,0 -0.632,0.064 -0.208,0.056 -0.296,0.232 -0.088,0.168 -0.088,0.536 v 1.424 q 0,0.328 0.088,0.488 0.096,0.16 0.312,0.224 0.216,0.056 0.624,0.056 z"
                 style="font-size:8px;line-height:0.9"
                 id="path2310" />
              <path
                 d="m 105.59387,295.76237 q -0.616,0 -1.328,-0.096 v -0.552 q 0.936,0.152 1.344,0.152 0.512,0 0.736,-0.096 0.224,-0.104 0.224,-0.376 v -0.392 q 0,-0.248 -0.168,-0.352 -0.168,-0.104 -0.544,-0.104 h -0.44 q -0.6,0 -0.92,-0.248 -0.312,-0.248 -0.312,-0.696 v -0.36 q 0,-0.912 1.728,-0.912 0.128,0 1.176,0.064 v 0.52 q -0.712,-0.112 -1.208,-0.112 -0.568,0 -0.776,0.112 -0.208,0.112 -0.208,0.376 v 0.328 q 0,0.392 0.712,0.392 h 0.448 q 1.224,0 1.224,0.912 v 0.336 q 0,0.6 -0.416,0.856 -0.416,0.248 -1.272,0.248 z"
                 style="font-size:8px;line-height:0.9"
                 id="path2312" />
              <path
                 d="m 91.809901,297.69039 h 0.776 v 4.648 h 2.552 v 0.544 h -3.328 z"
                 style="font-size:8px;line-height:0.9"
                 id="path2314" />
              <path
                 d="m 95.96989,297.69039 h 0.776 v 5.192 h -0.776 z m 0.792,2.432 2.32,-2.432 h 0.936 l -2.336,2.4 2.568,2.792 h -1.008 z"
                 style="font-size:8px;line-height:0.9"
                 id="path2316" />
            </g>
          </g>
          <g
             id="x4-y1"
             class="key">
            <path
               id="path4933"
               d="m 112.48,323.84 c 1.6764,0.002 3.397,1.9382 3.4051,3.421 l 8.6e-4,27.026 c -0.0345,1.6624 -1.3706,3.4257 -3.406,3.406 l -36.781,0.0158 c -1.6988,0.0334 -3.3885,-1.8222 -3.406,-3.38 l -0.004,-27.1 c 0.0321,-1.6614 1.7546,-3.3781 3.4109,-3.3933 z"
               style="fill:#1e1e1e;stroke:#404040;stroke-width:1.891" />
            <g
               aria-label="ShIFT"
               id="text4935"
               style="line-height:0%;font-family:Play;letter-spacing:0px;word-spacing:0px;fill:#404040">
              <path
                 d="m 85.904862,335.53129 q -0.664,0 -1.584,-0.128 v -0.648 q 0.928,0.2 1.632,0.2 0.592,0 0.864,-0.128 0.272,-0.136 0.272,-0.496 v -0.672 q 0,-0.336 -0.192,-0.472 -0.192,-0.136 -0.672,-0.136 h -0.608 q -0.76,0 -1.08,-0.304 -0.32,-0.304 -0.32,-0.944 v -0.416 q 0,-0.424 0.184,-0.688 0.192,-0.264 0.632,-0.392 0.448,-0.128 1.224,-0.128 0.52,0 1.336,0.088 v 0.584 q -0.912,-0.136 -1.392,-0.136 -0.744,0 -0.984,0.144 -0.248,0.152 -0.248,0.504 v 0.592 q 0,0.272 0.192,0.4 0.2,0.12 0.68,0.12 h 0.624 q 0.536,0 0.832,0.128 0.304,0.128 0.424,0.392 0.128,0.256 0.128,0.696 v 0.376 q 0,0.552 -0.208,0.872 -0.2,0.32 -0.624,0.456 -0.424,0.136 -1.112,0.136 z"
                 style="font-size:8px;line-height:1.25"
                 id="path2319" />
              <path
                 d="m 89.016849,328.91796 h 0.839999 v 2.56667 q 0.130667,-0.644 1.484,-0.644 0.868,0 1.213333,0.31733 0.354666,0.308 0.354666,0.98 v 3.31333 h -0.839999 v -3.25733 q 0,-0.17733 -0.028,-0.28933 -0.028,-0.112 -0.112,-0.224 -0.186667,-0.23333 -0.830667,-0.23333 -0.513333,0 -0.783999,0.0747 -0.261334,0.0653 -0.364,0.224 -0.09333,0.15867 -0.09333,0.448 v 3.25733 h -0.839999 z"
                 style="font-size:9.33333px"
                 id="path2321" />
              <path
                 d="m 94.308847,330.25929 h 0.776 v 5.192 h -0.776 z"
                 style="font-size:8px;line-height:1.25"
                 id="path2323" />
              <path
                 d="m 96.428842,330.25929 h 3.568 v 0.544 h -2.792 v 1.696 h 2.528 v 0.544 h -2.528 v 2.408 h -0.776 z"
                 style="font-size:8px;line-height:1.25"
                 id="path2325" />
              <path
                 d="m 102.18884,330.80329 h -1.76 v -0.544 h 4.296 v 0.544 h -1.752 v 4.648 h -0.784 z"
                 style="font-size:8px;line-height:1.25"
                 id="path2327" />
            </g>
          </g>
          <g
             id="x4-y2"
             class="key">
            <path
               id="path4832-6"
               d="m 120.36,327.14 c -8.4e-4,-1.6888 1.7043,-3.387 3.4472,-3.398 l 27.234,-0.004 c 1.7285,-0.0229 3.4475,1.6978 3.4322,3.3808 l 0.0156,27.332 c 0.006,1.6859 -1.7051,3.3906 -3.406,3.3893 l -27.296,0.004 c -1.7242,0.003 -3.4578,-1.6921 -3.4194,-3.4147 z"
               style="fill:#1e1e1e;stroke:#404040;stroke-width:1.891" />
            <g
               aria-label="\"
               id="text4834-2"
               style="line-height:0%;font-family:Play;letter-spacing:0px;word-spacing:0px;fill:#404040">
              <path
                 d="m 134.61704,329.64937 h 1.078 l 4.536,9.366 h -1.078 z"
                 style="font-size:14px;line-height:1.25"
                 id="path2330" />
            </g>
          </g>
        </g>
        <rect
           style="fill:#000000;fill-opacity:1;fill-rule:evenodd;stroke:#00ffff;stroke-width:4.29998;stroke-linecap:round;stroke-linejoin:round;stroke-miterlimit:4;stroke-dasharray:none;stroke-opacity:1;paint-order:markers fill stroke"
           id="rect3825"
           width="308.98248"
           height="58.985363"
           x="-308.47946"
           y="57.940006"
           ry="1.1071882e-05" />
        <path
           style="fill:none;fill-rule:evenodd;stroke:#00ffff;stroke-width:8;stroke-linecap:butt;stroke-linejoin:round;stroke-miterlimit:4;stroke-dasharray:none;stroke-opacity:1"
           d="M 2.1418125,88.634555 H 33.286697 V 32.305677 H 238.06159 V 79.18604"
           id="path3827"
           sodipodi:nodetypes="ccccc" />
        <text
           xml:space="preserve"
           style="font-style:normal;font-weight:normal;font-size:18.6667px;line-height:125%;font-family:sans-serif;letter-spacing:0px;word-spacing:0px;fill:#000000;fill-opacity:1;stroke:none;stroke-width:0.555382px;stroke-linecap:butt;stroke-linejoin:miter;stroke-opacity:1"
           x="-297.57266"
           y="81.410316"
           id="text3831"><tspan
             sodipodi:role="line"
             id="tspan3829"
             x="-297.57266"
             y="81.410316"
             style="font-style:normal;font-variant:normal;font-weight:normal;font-stretch:normal;font-size:18.6667px;font-family:Play;-inkscape-font-specification:Play;fill:#00ffff;stroke-width:0.555382px">Layer 1</tspan><tspan
             sodipodi:role="line"
             x="-297.57266"
             y="105.67866"
             style="font-style:normal;font-variant:normal;font-weight:normal;font-stretch:normal;font-size:18.6667px;font-family:Play;-inkscape-font-specification:Play;fill:#00ffff;stroke-width:0.555382px"
             id="tspan3833">     Static: #00FFFF</tspan></text>
        <rect
           style="fill:#00ffff;fill-opacity:1;fill-rule:evenodd;stroke:none;stroke-width:4;stroke-linecap:round;stroke-linejoin:round;stroke-miterlimit:4;stroke-dasharray:none;stroke-opacity:1;paint-order:markers fill stroke"
           id="rect3835"
           width="17.094345"
           height="17.094345"
           x="-296.67224"
           y="91.779556"
           ry="1.10879e-05" />
        <rect
           style="fill:#000000;fill-opacity:1;fill-rule:evenodd;stroke:#d40055;stroke-width:4.29998;stroke-linecap:round;stroke-linejoin:round;stroke-miterlimit:4;stroke-dasharray:none;stroke-opacity:1;paint-order:markers fill stroke"
           id="rect3825-5"
           width="308.98248"
           height="58.985363"
           x="-308.47946"
           y="131.63844"
           ry="1.1071882e-05" />
        <text
           xml:space="preserve"
           style="font-style:normal;font-weight:normal;font-size:18.6667px;line-height:125%;font-family:sans-serif;letter-spacing:0px;word-spacing:0px;fill:#ff0066;fill-opacity:1;stroke:none;stroke-width:0.555382px;stroke-linecap:butt;stroke-linejoin:miter;stroke-opacity:1"
           x="-297.57266"
           y="155.21539"
           id="text3831-6"><tspan
             sodipodi:role="line"
             id="tspan3829-2"
             x="-297.57266"
             y="155.21539"
             style="font-style:normal;font-variant:normal;font-weight:normal;font-stretch:normal;font-size:18.6667px;font-family:Play;-inkscape-font-specification:Play;fill:#ff0066;fill-opacity:1;stroke-width:0.555382px">Layer 2</tspan><tspan
             sodipodi:role="line"
             x="-297.57266"
             y="179.48373"
             style="font-style:normal;font-variant:normal;font-weight:normal;font-stretch:normal;font-size:18.6667px;font-family:Play;-inkscape-font-specification:Play;fill:#ff0066;fill-opacity:1;stroke-width:0.555382px"
             id="tspan3833-9">          Wave: #D40055, <tspan
   style="font-size:18.6667px;fill:#e197b5;fill-opacity:1"
   id="tspan3880">#E197B5</tspan></tspan></text>
        <rect
           style="fill:#d40055;fill-opacity:1;fill-rule:evenodd;stroke:none;stroke-width:4;stroke-linecap:round;stroke-linejoin:round;stroke-miterlimit:4;stroke-dasharray:none;stroke-opacity:1;paint-order:markers fill stroke"
           id="rect3835-1"
           width="17.094345"
           height="17.094345"
           x="-296.67224"
           y="165.58463"
           ry="1.10879e-05" />
        <rect
           style="fill:#000000;fill-opacity:1;fill-rule:evenodd;stroke:#f0c002;stroke-width:4.29998;stroke-linecap:round;stroke-linejoin:round;stroke-miterlimit:4;stroke-dasharray:none;stroke-opacity:1;paint-order:markers fill stroke"
           id="rect3825-2"
           width="308.98248"
           height="58.985363"
           x="-308.47946"
           y="206.30487"
           ry="1.1071882e-05" />
        <text
           xml:space="preserve"
           style="font-style:normal;font-weight:normal;font-size:18.6667px;line-height:125%;font-family:sans-serif;letter-spacing:0px;word-spacing:0px;fill:#f9c700;fill-opacity:1;stroke:none;stroke-width:0.555382px;stroke-linecap:butt;stroke-linejoin:miter;stroke-opacity:1"
           x="-297.57266"
           y="229.98982"
           id="text3831-7"><tspan
             sodipodi:role="line"
             id="tspan3829-0"
             x="-297.57266"
             y="229.98982"
             style="font-style:normal;font-variant:normal;font-weight:normal;font-stretch:normal;font-size:18.6667px;font-family:Play;-inkscape-font-specification:Play;fill:#f9c700;fill-opacity:1;stroke-width:0.555382px">Layer 3</tspan><tspan
             sodipodi:role="line"
             x="-297.57266"
             y="254.25816"
             style="font-style:normal;font-variant:normal;font-weight:normal;font-stretch:normal;font-size:18.6667px;font-family:Play;-inkscape-font-specification:Play;fill:#f9c700;fill-opacity:1;stroke-width:0.555382px"
             id="tspan3833-93">          Pulsing: #F9C700</tspan></text>
        <rect
           style="fill:#f0c002;fill-opacity:1;fill-rule:evenodd;stroke:none;stroke-width:4;stroke-linecap:round;stroke-linejoin:round;stroke-miterlimit:4;stroke-dasharray:none;stroke-opacity:1;paint-order:markers fill stroke"
           id="rect3835-6"
           width="17.094345"
           height="17.094345"
           x="-296.67224"
           y="240.35905"
           ry="1.10879e-05" />
        <path
           style="fill:none;fill-rule:evenodd;stroke:url(#linearGradient3903);stroke-width:8;stroke-linecap:butt;stroke-linejoin:round;stroke-miterlimit:4;stroke-dasharray:none;stroke-opacity:1"
           d="M 2.4916362,164.90266 H 28.41008 v -22.47217 h 93.09008"
           id="path3827-0"
           sodipodi:nodetypes="cccc" />
        <rect
           style="fill:#f0c002;fill-opacity:0.8;fill-rule:evenodd;stroke:none;stroke-width:4;stroke-linecap:round;stroke-linejoin:round;stroke-miterlimit:4;stroke-dasharray:none;stroke-opacity:1;paint-order:markers fill stroke"
           id="rect3835-6-7"
           width="17.094345"
           height="17.094345"
           x="-279.57788"
           y="240.35905"
           ry="1.10879e-05" />
        <rect
           style="fill:#e197b5;fill-opacity:1;fill-rule:evenodd;stroke:none;stroke-width:4;stroke-linecap:round;stroke-linejoin:round;stroke-miterlimit:4;stroke-dasharray:none;stroke-opacity:1;paint-order:markers fill stroke"
           id="rect3835-1-9"
           width="17.094345"
           height="17.094345"
           x="-279.57788"
           y="165.58463"
           ry="1.10879e-05" />
        <rect
           style="fill:url(#linearGradient2350);fill-opacity:1;fill-rule:evenodd;stroke:none;stroke-width:1.5;stroke-linecap:round;stroke-opacity:0;paint-order:markers fill stroke"
           id="rect2342"
           width="127.86024"
           height="258.10208"
           x="437.95828"
           y="60.592964"
           ry="1.10879e-05" />
        <rect
           style="fill:url(#linearGradient2350-6);fill-opacity:1;fill-rule:evenodd;stroke:none;stroke-width:1.74296;stroke-linecap:round;stroke-opacity:0;paint-order:markers fill stroke"
           id="rect2342-3"
           width="88.290146"
           height="504.66922"
           x="230.40491"
           y="-565.81854"
           ry="2.1680265e-05"
           transform="rotate(90)" />
        <path
           style="fill:none;fill-rule:evenodd;stroke:#f0c002;stroke-width:8;stroke-linecap:butt;stroke-linejoin:round;stroke-miterlimit:4;stroke-dasharray:none;stroke-opacity:1"
           d="M 0.52753749,232.51487 H 31.67242 v 56.32888 h 173.52685 v -51.22268"
           id="path3827-8"
           sodipodi:nodetypes="ccccc" />
      </g>
    </g>
  </g>
</svg>
