<?xml version="1.0" encoding="UTF-8" standalone="no"?>
<svg id="svg48" xmlns="http://www.w3.org/2000/svg" height="29.1" viewBox="-10 -10 29.099022 29.099897" width="29.099" version="1.1" xmlns:xlink="http://www.w3.org/1999/xlink">
 <defs id="defs32">
  <linearGradient id="linearGradient852" gradientUnits="userSpaceOnUse" x2="70.244" gradientTransform="scale(1.2329 .81113)" y1="-123.29" y2="-61.643">
   <stop id="stop2" stop-color="#000000" stop-opacity="0" offset="0"/>
   <stop id="stop4" stop-color="#000000" stop-opacity=".098039" offset="1"/>
  </linearGradient>
  <linearGradient id="linearGradient854" y2="25.238" gradientUnits="userSpaceOnUse" x2="171.57" gradientTransform="scale(.50475 1.9812)" y1="-25.238" x1="171.57">
   <stop id="stop960" stop-color="#000000" stop-opacity=".098039" offset="0"/>
   <stop id="stop962" stop-color="#000000" stop-opacity=".39216" offset="1"/>
  </linearGradient>
  <linearGradient id="linearGradient856" y2="123.29" gradientUnits="userSpaceOnUse" x2="-2.3054e-14" gradientTransform="scale(1.2329 .81113)" y1="61.643" x1="70.244">
   <stop id="stop966" stop-color="#000000" stop-opacity=".39216" offset="0"/>
   <stop id="stop968" stop-color="#000000" stop-opacity=".58824" offset="1"/>
  </linearGradient>
  <linearGradient id="linearGradient858" y2="61.643" gradientUnits="userSpaceOnUse" x2="-70.244" gradientTransform="scale(1.2329 .81113)" y1="123.29" x1="-2.3054e-14">
   <stop id="stop972" stop-color="#000000" stop-opacity=".58824" offset="0"/>
   <stop id="stop974" stop-color="#000000" stop-opacity=".78431" offset="1"/>
  </linearGradient>
  <linearGradient id="linearGradient860" y2="-25.238" gradientUnits="userSpaceOnUse" x2="-171.57" gradientTransform="scale(.50475 1.9812)" y1="25.238" x1="-171.57">
   <stop id="stop978" stop-color="#000000" stop-opacity=".78431" offset="0"/>
   <stop id="stop980" stop-color="#000000" offset="1"/>
  </linearGradient>
  <linearGradient id="linearGradient862" y2="-123.29" gradientUnits="userSpaceOnUse" x2="0" gradientTransform="scale(1.2329 .81113)" y1="-61.643" x1="-70.244">
   <stop id="stop954" stop-color="#000000" offset="0"/>
   <stop id="stop956" stop-color="#000000" stop-opacity="0" offset="1"/>
  </linearGradient>
 </defs>
 <g id="g46" transform="matrix(-.062755 .10869 .10869 .062751 4.5495 4.5499)" stroke-width="31.871" fill="none">
  <path id="path34" d="m0-100a100 100 0 0 1 86.6 50" stroke="url(#linearGradient852)"/>
  <path id="path36" d="m86.6-50a100 100 0 0 1 0 100" stroke="url(#linearGradient854)"/>
  <path id="path38" d="m86.6 50a100 100 0 0 1 -86.6 50" stroke="url(#linearGradient856)"/>
  <path id="path40" d="m0 100a100 100 0 0 1 -86.6 -50" stroke="url(#linearGradient858)"/>
  <path id="path42" d="m-86.6 50a100 100 0 0 1 0 -100" stroke="url(#linearGradient860)"/>
  <path id="path44" d="m-86.6-50a100 100 0 0 1 86.6 -50" stroke="url(#linearGradient862)"/>
 </g>
</svg>
