<svg version="1.1" viewBox="0 0 640 512" xmlns="http://www.w3.org/2000/svg"><!-- Font Awesome Free 5.15.1 by @fontawesome - https://fontawesome.com License - https://fontawesome.com/license/free (Icons: CC BY 4.0, Fonts: SIL OFL 1.1, Code: MIT License)
This file was remixed by adding the slashed line -->
<path d="m494.55 232.42c3.2889-8.5832 5.1338-17.968 5.1338-27.755 0-42.515-34.493-77.008-77.008-77.008-15.803 0-30.562 4.813-42.755 12.995-22.22-38.504-63.692-64.334-111.26-64.334-70.911 0-128.35 57.435-128.35 128.35 0 2.1658.0803 4.3317.16043 6.4975-44.921 15.803-77.168 58.638-77.168 109.01 0 63.772 51.74 115.51 115.51 115.51h295.2c56.713 0 102.68-45.964 102.68-102.68 0-49.654-35.295-91.126-82.142-100.59z" style="fill:#00ff00;opacity:.4;stroke-width:.80216"/><!-- Arrow is not FA --><path d="m98.836 60.855 442.33 390.29" style="fill:none;stroke-linecap:round;stroke-width:32;stroke:#00ff00"/>
</svg>
