<?xml version="1.0" encoding="UTF-8" standalone="no"?>
<svg
   xmlns:dc="http://purl.org/dc/elements/1.1/"
   xmlns:cc="http://creativecommons.org/ns#"
   xmlns:rdf="http://www.w3.org/1999/02/22-rdf-syntax-ns#"
   xmlns:svg="http://www.w3.org/2000/svg"
   xmlns="http://www.w3.org/2000/svg"
   xmlns:sodipodi="http://sodipodi.sourceforge.net/DTD/sodipodi-0.dtd"
   xmlns:inkscape="http://www.inkscape.org/namespaces/inkscape"
   viewBox="0 0 640 512"
   version="1.1"
   id="svg4"
   sodipodi:docname="cloud.svg"
   inkscape:version="0.92.3 (unknown)">
  <metadata
     id="metadata10">
    <rdf:RDF>
      <cc:Work
         rdf:about="">
        <dc:format>image/svg+xml</dc:format>
        <dc:type
           rdf:resource="http://purl.org/dc/dcmitype/StillImage" />
        <dc:title></dc:title>
      </cc:Work>
    </rdf:RDF>
  </metadata>
  <defs
     id="defs8" />
  <sodipodi:namedview
     pagecolor="#ffffff"
     bordercolor="#666666"
     borderopacity="1"
     objecttolerance="10"
     gridtolerance="10"
     guidetolerance="10"
     inkscape:pageopacity="0"
     inkscape:pageshadow="2"
     inkscape:window-width="640"
     inkscape:window-height="480"
     id="namedview6"
     showgrid="false"
     inkscape:zoom="1.2636719"
     inkscape:cx="242.44822"
     inkscape:cy="272.61824"
     inkscape:current-layer="svg4" />
  <path
     d="m 494.55085,232.41638 c 3.28887,-8.58316 5.13384,-17.96846 5.13384,-27.75486 0,-42.51468 -34.49304,-77.00773 -77.00772,-77.00773 -15.80263,0 -30.56245,4.81299 -42.75533,12.99506 -22.21994,-38.50387 -63.69181,-64.333541 -111.26012,-64.333541 -70.91129,0 -128.34621,57.434921 -128.34621,128.346211 0,2.16583 0.0803,4.33168 0.16043,6.49752 -44.92118,15.80263 -77.16817,58.63818 -77.16817,109.01406 0,63.77202 51.73957,115.51159 115.5116,115.51159 h 295.19628 c 56.71298,0 102.67698,-45.96398 102.67698,-102.67697 0,-49.65393 -35.29521,-91.12581 -82.14158,-100.59134 z"
     id="path2"
     style="fill:#00ff00;stroke-width:0.80216378;opacity:0.4"
     inkscape:connector-curvature="0" />
  <path
     style="fill:none;fill-rule:evenodd;stroke:#00ff00;stroke-width:32;stroke-linecap:round;stroke-linejoin:miter;stroke-miterlimit:4;stroke-dasharray:none;stroke-opacity:1"
     d="M 98.83563,60.85497 541.16437,451.14503"
     id="path817"
     inkscape:connector-curvature="0" />
</svg>
