<?xml version="1.0" encoding="UTF-8" standalone="no"?>
<svg
   xmlns:dc="http://purl.org/dc/elements/1.1/"
   xmlns:cc="http://creativecommons.org/ns#"
   xmlns:rdf="http://www.w3.org/1999/02/22-rdf-syntax-ns#"
   xmlns:svg="http://www.w3.org/2000/svg"
   xmlns="http://www.w3.org/2000/svg"
   xmlns:sodipodi="http://sodipodi.sourceforge.net/DTD/sodipodi-0.dtd"
   xmlns:inkscape="http://www.inkscape.org/namespaces/inkscape"
   version="1.0"
   width="4032pt"
   height="1896pt"
   viewBox="0 0 4032 1896"
   preserveAspectRatio="xMidYMid meet"
   id="svg24"
   sodipodi:docname="keys.svg"
   inkscape:version="0.92.3 (unknown)">
  <defs
     id="defs28" />
  <sodipodi:namedview
     pagecolor="#ffffff"
     bordercolor="#666666"
     borderopacity="1"
     objecttolerance="10"
     gridtolerance="10"
     guidetolerance="10"
     inkscape:pageopacity="0"
     inkscape:pageshadow="2"
     inkscape:window-width="640"
     inkscape:window-height="480"
     id="namedview26"
     showgrid="false"
     fit-margin-top="0"
     fit-margin-left="0"
     fit-margin-right="0"
     fit-margin-bottom="0"
     inkscape:pagecheckerboard="true"
     showborder="true"
     inkscape:showpageshadow="true"
     inkscape:zoom="0.13943829"
     inkscape:cx="2419.9904"
     inkscape:cy="1384.1088"
     inkscape:current-layer="svg24" />
  <metadata
     id="metadata2">
Created by potrace 1.13, written by Peter Selinger 2001-2015
<rdf:RDF>
  <cc:Work
     rdf:about="">
    <dc:format>image/svg+xml</dc:format>
    <dc:type
       rdf:resource="http://purl.org/dc/dcmitype/StillImage" />
    <dc:title></dc:title>
  </cc:Work>
</rdf:RDF>
</metadata>
  <g
     transform="matrix(0.10106721,0,0,-0.10106721,-21.514894,1906.1171)"
     id="g22"
     style="fill:#000000;stroke:none">
    <path
       d="M 0,9480 V 0 h 2728 c 2167,0 2731,3 2744,12 9,7 19,27 22,43 4,17 10,46 15,66 4,19 11,41 15,47 8,13 62,17 68,5 5,-13 100,-83 111,-83 6,0 25,-11 43,-25 18,-14 37,-25 43,-25 6,0 25,-9 43,-20 31,-19 51,-20 306,-20 150,0 280,4 290,9 39,20 110,51 115,51 4,0 30,11 59,24 29,13 91,40 138,61 47,20 118,53 158,71 41,19 76,34 78,34 8,0 500,240 534,260 21,13 149,70 156,70 12,0 491,240 999,500 292,150 955,486 1475,747 520,262 963,487 985,501 49,32 95,73 95,85 0,5 9,21 20,36 10,16 23,54 28,86 17,107 -2,337 -30,372 -5,7 -7,17 -4,22 4,5 2,12 -4,16 -6,4 -8,10 -5,15 3,5 1,11 -4,14 -5,4 -15,23 -22,44 -6,20 -20,55 -30,77 -10,22 -36,85 -59,140 -22,55 -45,109 -50,120 -15,34 -74,180 -75,185 -1,3 -8,19 -17,35 -9,17 -22,50 -29,75 -7,25 -18,52 -24,60 -7,8 -25,47 -40,85 -15,39 -40,95 -55,125 -14,30 -38,80 -52,110 -14,30 -44,93 -66,140 -38,83 -63,137 -101,222 -10,24 -39,86 -64,138 -24,52 -55,118 -67,145 -13,28 -29,57 -35,65 -7,8 -25,44 -40,80 -27,66 -33,79 -53,115 -65,121 -103,210 -99,231 3,15 -3,30 -16,41 -11,10 -37,54 -59,98 -21,44 -42,87 -47,95 -5,8 -17,33 -26,55 -18,44 -28,65 -111,240 -71,150 -97,207 -124,270 -12,28 -39,84 -60,126 -21,42 -41,87 -45,100 -4,13 -21,52 -36,86 -16,33 -29,69 -29,78 0,9 -8,29 -19,43 -10,15 -31,54 -45,87 -15,33 -48,103 -73,155 -25,52 -55,115 -67,140 -12,25 -28,56 -37,70 -9,14 -20,39 -23,57 -4,17 -14,37 -22,44 -8,6 -14,20 -14,29 0,10 -4,20 -8,22 -5,2 -28,44 -52,93 -25,50 -47,92 -50,95 -3,3 -12,19 -20,35 -8,17 -21,34 -27,38 -7,4 -13,15 -13,22 0,8 -7,15 -15,15 -8,0 -12,6 -9,14 3,8 -4,25 -15,37 -12,13 -21,28 -21,35 0,7 -9,16 -21,19 -12,4 -18,12 -15,21 3,8 2,14 -2,14 -9,0 -52,93 -52,113 0,9 -9,22 -20,30 -11,7 -21,22 -23,33 -3,19 -28,62 -57,97 -28,34 -110,89 -163,109 -93,36 -154,40 -510,39 -236,-2 -360,2 -383,9 -37,13 -46,30 -14,30 11,0 28,4 38,10 16,9 149,74 1039,507 222,108 406,193 410,190 3,-4 0,-111 -8,-239 -23,-398 -19,-447 52,-593 27,-54 49,-106 49,-115 0,-8 9,-23 20,-33 11,-9 20,-26 20,-37 0,-11 5,-30 12,-43 24,-48 28,-57 28,-76 0,-11 6,-24 13,-28 6,-4 18,-26 26,-48 20,-59 94,-234 150,-357 11,-24 23,-55 26,-70 4,-15 13,-32 21,-39 8,-6 14,-15 14,-20 0,-8 54,-127 96,-213 8,-16 14,-37 14,-47 0,-9 4,-19 8,-21 9,-3 132,-262 132,-277 0,-6 9,-25 19,-43 11,-18 47,-95 80,-170 33,-76 65,-145 70,-155 6,-10 69,-151 142,-313 181,-409 309,-690 390,-858 38,-78 69,-145 69,-148 0,-2 43,-93 95,-201 52,-108 95,-201 95,-208 0,-7 7,-18 15,-25 8,-7 15,-17 15,-23 0,-11 86,-203 117,-262 48,-90 213,-434 231,-480 8,-22 21,-47 28,-55 7,-9 25,-43 39,-75 106,-243 184,-359 262,-387 18,-7 33,-15 33,-19 0,-4 14,-12 31,-18 17,-6 28,-15 24,-21 -3,-5 2,-10 13,-10 10,0 22,-3 26,-7 4,-5 27,-8 51,-8 27,0 51,-7 63,-18 10,-9 21,-14 24,-11 4,3 15,-3 25,-13 23,-23 149,-48 193,-38 41,9 175,66 363,154 59,28 109,51 111,51 3,0 39,16 80,35 42,19 78,35 80,35 3,0 66,29 141,65 75,36 138,65 141,65 2,0 59,26 127,59 67,32 132,61 143,65 12,4 29,15 39,26 10,11 25,20 34,20 9,0 71,27 139,60 67,33 125,60 128,60 7,0 83,34 119,53 102,54 220,107 238,107 8,0 17,5 19,10 2,6 75,44 163,84 88,40 320,146 515,236 437,200 2357,1159 2386,1191 29,33 67,97 81,138 16,47 20,368 5,383 -7,7 -12,20 -12,30 0,19 -14,54 -65,163 -34,71 -41,87 -115,255 -23,52 -47,104 -54,115 -7,11 -19,38 -26,60 -7,22 -30,73 -50,115 -160,321 -310,634 -310,645 0,5 -72,157 -190,400 -37,77 -87,181 -110,230 -23,50 -68,144 -99,210 -32,66 -68,145 -80,175 -13,30 -27,62 -32,70 -5,8 -24,47 -43,85 -18,39 -56,117 -84,175 -27,58 -66,141 -87,185 -20,44 -63,134 -95,200 -61,123 -189,388 -255,530 -96,205 -301,614 -327,652 -15,23 -28,43 -28,46 0,2 -38,71 -85,153 -47,82 -85,156 -85,165 0,9 -7,22 -16,30 -8,7 -34,46 -56,86 -22,40 -49,78 -60,84 -11,6 -40,26 -63,44 -77,59 -190,100 -340,125 -38,6 -106,17 -150,25 -44,8 -102,17 -130,21 -61,8 -90,25 -111,65 -8,17 -14,32 -12,33 2,1 50,25 108,53 58,28 174,85 259,127 84,42 158,76 163,76 6,0 44,16 86,36 43,20 109,52 149,70 39,18 74,38 78,44 3,5 13,10 21,10 20,0 94,33 94,42 0,5 7,8 15,8 17,0 79,28 295,133 217,105 268,127 285,121 8,-4 15,-8 15,-11 0,-10 -24,-49 -36,-58 -7,-5 -14,-19 -16,-30 -2,-11 -15,-40 -30,-65 -16,-25 -35,-60 -43,-78 -8,-17 -30,-56 -49,-85 -57,-89 -113,-209 -125,-269 -20,-97 -16,-239 9,-293 15,-32 156,-397 165,-425 4,-14 13,-32 20,-40 7,-8 20,-40 31,-70 10,-30 29,-71 41,-90 13,-19 23,-40 23,-48 0,-7 23,-59 51,-115 53,-107 78,-159 103,-218 28,-65 110,-246 166,-364 21,-44 69,-147 108,-230 38,-82 94,-202 125,-265 30,-63 76,-160 102,-215 26,-55 87,-183 135,-285 49,-102 104,-219 123,-260 20,-41 70,-147 112,-235 43,-88 97,-203 122,-255 24,-52 57,-122 73,-155 16,-33 54,-114 85,-180 31,-66 72,-151 90,-190 18,-38 45,-95 59,-125 66,-146 128,-278 142,-305 31,-57 112,-220 134,-270 29,-65 91,-188 124,-245 14,-25 28,-53 32,-63 3,-9 10,-17 14,-17 5,0 15,-24 24,-53 9,-30 27,-64 43,-79 27,-25 390,-264 418,-274 34,-13 216,43 365,113 41,19 145,66 230,105 85,38 187,85 226,104 39,19 76,34 82,34 5,0 15,7 22,15 7,8 19,15 26,15 8,0 56,20 106,45 51,25 95,45 99,45 5,0 70,30 146,66 76,36 147,69 158,74 11,5 81,38 156,74 75,36 139,66 143,66 3,0 61,26 129,59 67,32 149,71 182,85 115,52 281,132 475,229 107,55 661,319 1230,589 569,270 1065,506 1102,524 120,60 208,178 238,318 22,105 -17,324 -80,446 -16,30 -47,96 -71,145 -82,175 -131,281 -181,390 -28,61 -71,150 -95,199 -24,50 -43,93 -43,97 0,8 -55,125 -70,149 -5,8 -24,47 -41,85 -17,39 -49,108 -71,154 -22,46 -46,102 -54,124 -8,23 -20,48 -28,57 -7,8 -23,40 -35,70 -12,30 -38,89 -58,130 -20,41 -42,91 -51,110 -8,19 -19,42 -24,50 -4,8 -11,22 -14,30 -3,8 -12,27 -20,42 -8,14 -14,36 -14,47 0,12 -4,21 -10,21 -10,0 -60,102 -60,124 0,7 -7,19 -15,26 -8,7 -15,18 -15,25 0,7 -18,48 -41,91 -23,43 -43,91 -45,107 -2,17 -10,37 -18,46 -8,9 -27,45 -42,81 -15,36 -38,81 -50,100 -12,20 -25,50 -29,68 -3,17 -10,32 -13,32 -7,0 -32,48 -32,62 0,5 -11,26 -25,48 -14,22 -25,46 -25,53 0,8 -11,35 -25,61 -13,25 -21,46 -17,46 4,0 2,4 -4,8 -14,9 -114,215 -114,234 0,8 -12,37 -27,64 -32,61 -73,143 -147,299 -32,66 -67,138 -78,160 -12,22 -25,47 -28,55 -62,134 -146,304 -207,420 -28,52 -66,127 -86,165 -19,39 -48,97 -65,130 -108,215 -116,227 -206,316 -49,49 -94,89 -99,89 -6,0 -34,18 -63,40 -29,22 -57,40 -61,40 -4,0 -32,18 -61,40 -29,22 -55,40 -59,40 -16,0 -143,94 -143,106 0,20 42,59 61,56 9,-2 22,4 29,13 7,8 18,15 25,15 6,0 33,11 59,25 25,13 47,24 49,23 1,0 22,8 47,20 89,40 753,313 769,315 9,2 30,11 47,20 17,9 34,13 38,10 3,-4 6,0 6,7 0,7 3,11 6,7 3,-3 26,5 51,19 25,13 54,24 64,24 11,0 19,5 19,10 0,6 11,10 25,10 14,0 25,4 25,10 0,5 17,12 38,15 20,3 45,10 54,16 10,5 35,9 56,9 31,0 41,5 50,24 18,40 155,186 194,207 10,5 18,14 18,18 0,5 19,29 43,53 54,56 114,123 151,168 16,19 38,39 49,43 13,5 2,-12 -29,-46 -27,-29 -83,-91 -124,-137 -41,-46 -90,-98 -109,-115 -62,-54 -135,-136 -178,-196 -23,-33 -76,-97 -118,-142 -132,-140 -298,-307 -306,-307 -15,0 -110,-132 -148,-207 -53,-105 -65,-157 -58,-254 5,-58 15,-97 37,-146 17,-38 39,-86 49,-108 10,-22 25,-56 32,-75 7,-19 21,-48 31,-65 10,-16 18,-38 18,-47 0,-10 4,-18 10,-18 5,0 9,-3 8,-7 -2,-11 23,-67 92,-208 32,-66 139,-298 238,-515 99,-217 314,-665 477,-995 164,-330 454,-928 646,-1330 192,-401 357,-741 367,-755 26,-35 187,-365 206,-422 8,-26 65,-123 126,-217 60,-93 110,-173 110,-178 0,-5 26,-24 57,-42 52,-32 64,-35 142,-35 l 86,-1 465,242 c 882,460 1902,960 3107,1524 645,301 1188,556 1206,566 39,20 130,125 170,193 14,25 38,77 53,115 24,63 27,84 28,205 1,156 -3,173 -109,448 -80,210 -158,463 -146,475 13,13 23,-12 61,-138 26,-87 40,-117 67,-144 18,-19 36,-46 40,-60 5,-22 63,-120 133,-228 15,-23 30,-40 34,-36 3,3 6,0 6,-8 1,-16 34,-59 47,-60 4,0 63,-67 130,-148 120,-146 122,-148 177,-161 75,-18 199,-8 306,25 47,15 103,30 125,35 22,4 389,176 815,382 956,462 896,432 903,459 4,14 11,20 21,16 8,-3 18,-2 21,3 8,13 140,83 225,120 70,30 162,73 495,235 72,35 173,82 225,105 52,23 105,48 117,56 12,7 84,41 160,75 76,33 161,73 188,88 28,16 84,43 125,61 41,17 134,60 205,95 247,120 406,195 415,195 4,0 28,11 51,25 24,14 53,25 64,26 38,1 130,36 115,43 -9,3 -5,4 7,2 12,-2 27,2 34,10 6,8 18,14 25,14 8,0 14,4 14,9 0,5 11,9 24,9 14,0 32,7 41,16 9,9 22,16 30,16 21,0 122,56 168,93 23,19 96,58 162,87 66,29 143,65 170,80 28,16 97,49 155,73 58,25 159,72 225,105 116,57 183,87 350,152 77,31 101,41 210,90 28,12 86,38 130,57 44,19 107,47 141,64 33,16 65,29 70,29 6,0 25,11 44,25 19,14 40,25 48,25 8,0 25,9 39,20 14,11 34,20 43,20 10,0 21,7 24,16 3,8 10,13 15,10 5,-4 40,10 78,29 37,19 73,35 78,35 6,0 22,8 35,18 22,15 76,38 105,45 6,1 12,4 15,7 11,11 93,62 104,65 6,1 38,14 71,30 33,15 89,40 125,57 35,16 80,41 100,56 39,30 147,86 255,133 65,29 168,78 490,234 72,35 173,82 225,105 101,44 212,103 297,157 29,18 94,51 145,74 51,22 152,69 223,103 72,35 178,86 236,115 58,28 113,51 121,51 9,0 21,7 28,15 7,8 19,15 27,15 8,0 33,9 55,20 23,11 47,20 54,20 6,0 22,9 36,19 13,11 38,23 54,27 38,9 165,64 184,80 8,6 26,15 40,19 14,4 48,18 77,31 28,13 55,24 58,24 4,0 13,7 22,15 8,8 19,13 24,10 5,-4 9,-2 9,3 0,5 8,13 18,16 9,4 31,15 47,24 65,38 100,56 108,54 4,-1 7,2 7,6 0,5 18,18 40,31 21,12 77,60 124,106 47,47 89,85 94,85 5,0 28,25 51,55 23,30 49,55 58,55 20,0 193,82 233,110 l 30,21 v 1335 1334 h -9171 -9171 l 158,-307 c 352,-688 503,-992 514,-1033 6,-24 23,-60 36,-79 13,-20 24,-41 24,-48 0,-7 9,-18 20,-25 11,-7 20,-21 20,-31 0,-17 15,-48 36,-77 7,-8 22,-40 35,-70 12,-30 40,-82 61,-116 21,-34 38,-68 38,-76 0,-8 7,-23 15,-34 8,-10 15,-26 15,-35 0,-9 6,-22 14,-28 17,-15 96,-168 96,-188 0,-7 9,-21 20,-30 11,-10 20,-23 20,-29 0,-14 24,-68 49,-109 33,-56 74,-130 108,-195 18,-36 37,-72 42,-80 5,-8 52,-104 106,-212 54,-109 102,-198 106,-198 5,0 9,-7 9,-15 0,-17 18,-52 38,-73 7,-8 11,-21 8,-28 -3,-8 -1,-14 4,-14 5,0 14,-16 21,-35 7,-19 17,-35 21,-35 4,0 8,-6 8,-13 0,-7 9,-18 20,-25 11,-7 20,-19 20,-27 0,-8 5,-15 10,-15 19,0 10,-59 -14,-87 -31,-37 -314,-158 -346,-148 -18,6 -20,15 -20,83 0,80 -20,219 -39,262 -5,14 -29,72 -51,130 -23,58 -53,130 -67,160 -43,94 -104,224 -114,242 -5,10 -9,22 -9,28 0,6 -14,41 -31,78 -61,132 -77,168 -99,217 -12,28 -30,68 -40,90 -10,22 -32,74 -49,115 -17,41 -42,98 -56,125 -14,28 -25,56 -25,62 0,7 -9,28 -19,46 -35,62 -39,72 -52,117 -7,25 -21,54 -31,66 -10,11 -18,26 -18,33 0,7 -6,25 -14,39 -29,53 -66,145 -66,162 0,10 -4,20 -8,22 -10,4 -52,76 -52,89 0,6 -9,29 -20,51 -11,23 -20,48 -20,55 0,7 -4,13 -10,13 -5,0 -13,12 -16,28 -4,15 -13,36 -20,47 -8,11 -14,30 -14,42 0,12 -15,46 -34,75 -18,29 -37,64 -41,78 -4,14 -32,75 -61,137 -30,62 -54,116 -54,120 0,4 -36,82 -80,171 -44,90 -80,172 -80,182 0,10 -4,21 -9,24 -16,10 -77,138 -101,211 -13,39 -33,80 -44,92 l -21,23 H 10913 0 Z m 31482,8732 c 36,-24 64,-61 94,-125 13,-30 31,-61 39,-67 8,-7 15,-20 15,-29 0,-9 4,-21 10,-27 10,-10 21,-31 132,-244 35,-69 69,-134 76,-145 6,-11 17,-33 25,-50 24,-50 135,-262 157,-297 11,-18 20,-40 20,-48 0,-8 14,-35 30,-60 16,-25 30,-57 30,-72 0,-67 9,-61 -585,-341 -483,-228 -665,-306 -633,-272 5,5 -7,19 -26,31 -27,18 -72,93 -219,361 -102,186 -209,384 -239,441 -30,56 -58,99 -63,95 -4,-5 -5,-3 -2,4 9,15 -67,156 -78,146 -4,-5 -5,-3 -2,3 4,7 1,27 -7,45 -16,37 -10,103 11,136 14,21 37,34 163,90 30,14 73,33 95,43 22,10 63,28 90,40 28,12 69,31 93,41 23,11 63,28 90,39 26,12 54,25 62,30 8,6 22,13 30,16 8,3 47,21 85,40 203,98 424,193 450,193 17,1 42,-7 57,-17 z m -19000,-389 c 16,-14 100,-177 156,-303 28,-63 53,-116 70,-145 30,-55 87,-182 86,-192 -1,-7 2,-13 7,-13 8,0 49,-81 49,-97 0,-4 9,-26 19,-48 123,-255 126,-267 82,-317 -41,-47 -148,-93 -196,-84 -21,4 -39,16 -47,30 -22,41 -114,227 -157,321 -23,50 -50,106 -60,125 -10,19 -22,46 -26,60 -4,13 -14,30 -21,38 -8,7 -14,22 -14,32 0,10 -4,21 -9,25 -5,3 -17,28 -26,55 -9,28 -21,50 -26,50 -5,0 -9,7 -9,16 0,9 -9,29 -21,45 -27,39 -75,39 -165,-2 -38,-16 -82,-36 -99,-44 -16,-7 -50,-22 -75,-33 -25,-11 -74,-32 -110,-47 -36,-15 -96,-42 -135,-60 -259,-122 -322,-139 -364,-101 -27,25 -81,139 -81,172 0,43 48,76 222,153 26,12 50,21 54,21 3,0 30,11 60,25 30,14 57,25 59,25 2,0 48,20 101,45 53,25 97,45 99,45 2,0 108,49 237,109 129,60 245,111 259,114 31,5 60,-2 81,-20 z m 3068,-103 c 12,-30 112,-239 222,-465 111,-225 216,-441 234,-480 52,-111 194,-408 206,-430 29,-51 421,-846 551,-1115 30,-63 94,-195 141,-294 47,-98 86,-180 86,-182 0,-2 37,-79 81,-171 45,-93 115,-238 156,-323 77,-160 141,-288 153,-305 4,-5 14,-28 22,-50 27,-67 228,-474 238,-480 6,-3 10,-14 10,-23 0,-25 93,-212 122,-247 27,-32 91,-146 85,-152 -8,-7 -361,-163 -363,-160 -2,2 -46,93 -99,203 -52,109 -100,206 -105,214 -6,8 -26,49 -46,90 -20,41 -72,149 -115,240 -103,213 -106,220 -115,250 -4,14 -14,30 -23,37 -9,6 -13,14 -9,18 4,4 -8,30 -26,58 -18,29 -44,77 -59,107 -14,30 -60,127 -102,215 -42,88 -85,178 -95,200 -10,22 -55,114 -99,205 -45,91 -81,169 -81,174 0,5 -6,17 -14,25 -8,9 -16,27 -18,41 -2,14 -16,43 -31,65 -15,22 -27,46 -27,53 0,8 -8,26 -19,40 -28,40 -159,305 -438,882 -158,326 -325,659 -360,717 -35,58 -179,349 -360,727 -53,110 -96,213 -97,229 -1,29 0,29 179,92 99,34 183,60 186,56 4,-3 17,-31 29,-61 z m 12294,-552 c -217,-211 -314,-303 -554,-523 -78,-71 -151,-143 -163,-160 -11,-16 -41,-52 -67,-80 -70,-77 -121,-193 -119,-276 0,-50 21,-154 32,-165 4,-4 7,-15 7,-24 0,-9 21,-54 46,-101 25,-46 46,-88 47,-94 1,-5 5,-12 8,-15 4,-3 17,-27 30,-55 26,-57 29,-133 5,-167 -14,-19 -13,-25 10,-70 32,-63 29,-102 -8,-106 -25,-3 -31,7 -126,195 -54,109 -181,351 -281,537 -229,426 -244,457 -234,467 10,9 27,18 618,324 264,137 538,287 643,352 100,62 199,123 220,135 38,21 84,38 91,32 2,-2 -90,-95 -205,-206 z M 9534,15365 c 14,-13 26,-32 26,-41 0,-10 4,-31 9,-48 5,-17 14,-58 20,-91 9,-51 29,-102 75,-190 41,-82 56,-119 52,-131 -3,-8 1,-14 9,-14 8,0 15,-7 15,-15 0,-8 4,-15 10,-15 5,0 14,-19 20,-42 7,-22 18,-47 26,-55 8,-8 14,-20 14,-26 0,-7 19,-53 43,-102 24,-50 49,-106 57,-125 7,-19 16,-39 20,-45 9,-12 79,-175 118,-275 34,-85 65,-153 252,-545 29,-60 69,-146 90,-190 21,-44 81,-169 134,-278 53,-108 96,-199 96,-202 0,-2 48,-102 106,-222 58,-120 122,-252 141,-293 19,-41 52,-111 73,-155 21,-44 59,-125 85,-180 108,-227 150,-315 196,-409 27,-54 49,-107 49,-117 0,-10 4,-20 10,-24 8,-5 71,-130 173,-345 139,-294 167,-353 167,-357 0,-11 224,-460 236,-473 46,-50 84,-105 82,-119 -2,-10 -74,-51 -178,-103 -96,-48 -177,-88 -181,-88 -10,0 -79,68 -79,78 0,6 -6,23 -14,39 -34,65 -46,103 -46,141 0,38 -32,131 -49,142 -5,3 -19,37 -31,75 -13,39 -34,84 -47,102 -12,17 -23,36 -23,41 0,6 -5,12 -10,14 -6,2 -12,14 -15,27 -2,13 -11,31 -19,40 -7,9 -17,26 -21,39 -3,12 -11,20 -16,17 -5,-4 -9,1 -9,10 0,8 -4,23 -9,33 -13,24 -65,139 -86,187 -17,39 -33,76 -113,245 -22,47 -43,96 -47,110 -4,14 -15,36 -25,50 -10,14 -21,39 -24,57 -4,17 -14,37 -22,44 -8,6 -14,18 -14,26 0,9 -9,32 -19,52 -11,20 -29,56 -40,81 -10,25 -35,79 -54,120 -19,41 -44,98 -57,125 -12,28 -38,82 -56,120 -19,39 -50,106 -70,150 -20,44 -54,118 -76,165 -22,47 -50,108 -63,135 -50,110 -100,216 -162,345 -36,74 -71,151 -78,170 -7,19 -34,76 -59,125 -25,50 -46,96 -46,103 0,7 -13,36 -29,65 -16,28 -64,126 -106,217 -81,174 -111,235 -449,910 -212,422 -214,425 -282,491 -38,37 -103,88 -144,114 -134,86 -139,75 83,187 106,53 198,97 205,97 8,1 26,10 41,20 15,11 42,21 61,24 19,2 38,5 41,5 3,1 18,-9 33,-23 z m 15455,-131 c 54,-48 91,-125 91,-187 0,-51 -3,-55 -91,-131 -18,-16 -20,-25 -15,-64 3,-25 10,-50 15,-56 4,-6 65,-124 135,-262 70,-139 135,-259 146,-269 14,-13 28,-16 52,-11 107,21 121,20 163,-14 46,-36 85,-106 95,-167 5,-34 3,-47 -14,-67 -25,-30 -542,-276 -581,-276 -31,0 -74,21 -96,46 -27,31 -69,119 -76,159 -6,35 -3,39 61,97 36,33 66,66 66,73 0,30 -290,605 -311,616 -13,6 -36,8 -58,4 -75,-15 -138,-11 -160,9 -27,24 -96,152 -105,193 -6,27 -2,37 31,73 22,25 63,54 100,71 35,16 65,29 68,29 2,0 46,20 97,44 273,129 259,124 310,125 30,1 46,-6 77,-35 z M 5806,14654 c 26,-12 41,-32 64,-79 35,-74 37,-95 9,-144 -19,-34 -52,-52 -412,-231 -229,-114 -397,-203 -404,-215 -10,-17 -7,-29 14,-72 15,-29 33,-54 42,-55 60,-5 135,20 326,112 119,57 250,122 275,135 163,91 290,136 290,103 0,-6 3,-9 6,-5 4,3 12,0 19,-7 18,-17 172,-327 220,-441 21,-49 45,-99 52,-110 7,-11 13,-38 13,-60 0,-75 -42,-109 -263,-219 -106,-53 -197,-96 -201,-96 -4,0 -89,-40 -189,-88 -331,-161 -414,-195 -459,-189 -27,4 -51,16 -74,38 -19,18 -34,36 -34,40 0,7 -62,138 -200,424 -115,238 -193,403 -212,450 -11,28 -29,66 -39,86 -21,40 -14,77 23,131 21,30 151,97 253,130 22,7 57,23 77,35 20,12 49,25 65,29 15,4 65,24 109,46 45,21 87,38 93,38 6,0 11,5 11,10 0,6 6,10 14,10 8,0 39,14 69,30 30,17 62,30 71,30 9,0 16,4 16,8 0,9 130,72 148,72 6,0 12,4 14,8 5,13 110,60 136,61 13,1 39,-6 58,-15 z M 2987,13140 c 19,-11 43,-41 58,-70 14,-27 29,-50 34,-50 5,0 22,-33 37,-72 15,-40 31,-78 36,-84 5,-7 8,-16 7,-20 -3,-13 32,-94 40,-94 4,0 8,-6 8,-12 0,-7 33,-83 73,-168 40,-85 81,-177 90,-204 10,-27 22,-51 27,-55 5,-3 15,-21 23,-39 8,-21 26,-39 48,-50 32,-16 42,-32 114,-192 44,-96 83,-185 88,-197 5,-11 14,-24 19,-28 6,-3 11,-15 11,-26 0,-10 5,-19 10,-19 6,0 10,-6 9,-12 -3,-26 1,-39 11,-33 6,3 11,1 11,-4 2,-16 4,-23 17,-54 7,-16 12,-35 12,-43 0,-8 5,-12 10,-9 6,3 10,-3 10,-14 0,-11 5,-23 10,-26 6,-3 10,-17 10,-31 0,-13 4,-24 8,-24 9,0 42,-69 42,-87 0,-6 14,-37 30,-68 17,-31 30,-66 30,-76 0,-10 4,-19 9,-19 7,0 19,-25 25,-52 10,-52 921,-1870 1106,-2208 182,-331 355,-653 438,-810 54,-102 77,-141 124,-206 44,-60 113,-157 128,-178 46,-64 179,-245 216,-294 37,-48 67,-110 61,-126 -8,-20 -106,-82 -195,-122 -61,-28 -79,-33 -118,-27 -25,3 -40,9 -34,13 9,6 9,13 1,28 -6,11 -11,28 -11,36 0,9 -9,25 -20,36 -11,11 -20,30 -20,42 0,12 -6,29 -14,37 -8,9 -24,41 -36,71 -12,30 -35,82 -51,115 -16,33 -29,68 -29,78 0,9 -4,17 -9,17 -7,0 -23,42 -23,60 1,3 -5,12 -12,20 -7,8 -16,27 -19,41 -4,14 -18,43 -33,65 -15,21 -26,49 -26,61 0,12 -9,30 -19,39 -12,11 -17,25 -14,36 4,10 -1,28 -9,40 -9,12 -16,32 -16,44 0,11 -9,29 -20,39 -11,10 -20,26 -20,37 0,18 -73,202 -89,222 -4,6 -16,31 -25,55 -10,25 -26,57 -37,72 -10,15 -19,33 -19,39 0,7 -50,115 -112,239 -74,150 -122,237 -145,258 -18,17 -33,40 -33,51 0,11 -9,31 -20,45 -11,14 -20,30 -20,36 0,6 -4,11 -10,11 -5,0 -10,7 -10,15 0,13 -72,161 -100,205 -7,12 -534,1075 -662,1335 -48,99 -59,118 -96,173 -19,28 -42,52 -51,52 -9,0 -30,24 -46,53 -23,38 -43,58 -78,76 -25,13 -49,33 -53,43 -3,11 -16,24 -28,29 -21,10 -96,126 -96,149 0,5 -4,10 -10,10 -5,0 -10,7 -10,15 0,8 -9,32 -20,52 -11,21 -20,50 -20,65 0,42 -19,74 -56,94 -36,20 -46,40 -84,172 -11,39 -25,72 -29,72 -5,0 -9,19 -9,43 -4,181 -8,212 -36,266 -15,30 -33,60 -40,66 -18,18 -130,85 -142,85 -6,0 -44,13 -84,30 -40,16 -111,37 -159,45 -47,9 -97,20 -110,26 -13,5 -58,12 -100,15 -42,3 -80,9 -86,13 -5,4 -48,13 -95,20 -92,13 -141,22 -265,45 -44,8 -114,20 -155,27 -60,9 -117,30 -178,65 -2,1 12,17 30,36 41,43 216,137 648,349 184,90 349,171 365,181 38,22 43,22 82,-2 z m 16077,-619 c 24,-22 102,-175 151,-291 15,-36 46,-105 70,-155 24,-49 61,-128 83,-175 21,-47 60,-128 84,-180 25,-52 53,-113 63,-135 10,-22 29,-62 42,-90 46,-95 73,-169 73,-199 0,-60 -25,-81 -198,-166 -90,-44 -165,-80 -167,-80 -2,0 -47,-21 -102,-46 -292,-137 -778,-354 -794,-354 -9,0 -37,15 -61,33 -36,27 -55,56 -119,187 -103,209 -216,442 -246,509 -14,31 -37,83 -53,116 -15,33 -49,107 -74,165 -26,58 -56,123 -67,146 -24,53 -25,120 0,158 37,56 118,96 196,96 78,0 100,-24 180,-188 37,-75 70,-146 75,-157 4,-11 26,-58 48,-105 22,-47 57,-121 77,-165 83,-177 157,-321 173,-332 31,-25 78,-12 237,62 28,13 79,37 115,53 155,70 287,137 308,155 37,34 29,72 -59,254 -119,248 -142,297 -192,413 -25,58 -57,127 -71,153 -14,26 -26,54 -26,60 0,7 -9,29 -20,50 -25,47 -25,93 0,134 52,86 215,129 274,74 z M 12581,9533 c 17,-15 42,-50 54,-78 21,-47 59,-129 118,-255 113,-245 217,-493 217,-521 0,-69 -35,-97 -265,-211 -189,-93 -183,-87 -165,-166 7,-31 28,-99 46,-151 37,-101 40,-130 23,-164 -24,-43 -115,-100 -180,-111 -49,-9 -106,26 -136,84 -58,111 -129,221 -145,226 -9,3 -50,-9 -90,-26 -40,-17 -82,-35 -93,-40 -11,-4 -45,-19 -75,-33 -218,-101 -230,-102 -304,-4 -15,19 -38,63 -52,98 -14,35 -46,106 -70,158 -24,51 -44,95 -44,97 0,2 -15,36 -34,76 -119,258 -162,374 -151,409 23,71 131,139 221,139 55,0 59,-2 98,-43 24,-25 49,-65 59,-96 18,-51 114,-263 174,-381 33,-66 59,-73 131,-39 26,12 64,28 85,35 22,8 60,25 85,38 26,14 79,39 117,57 39,17 93,42 120,54 28,13 80,36 116,53 55,25 68,35 73,59 6,26 -13,100 -32,127 -4,6 -23,47 -41,91 -18,44 -44,103 -57,130 -39,84 -82,191 -89,223 -12,55 37,118 130,165 67,35 114,35 156,0 z M 6038,6383 c 37,-28 102,-152 102,-196 0,-45 -21,-85 -58,-109 -20,-14 -107,-59 -192,-102 -85,-42 -161,-85 -167,-94 -19,-24 -16,-67 8,-120 27,-59 82,-178 119,-257 16,-34 45,-99 65,-145 21,-47 52,-118 71,-158 19,-41 34,-76 34,-78 0,-2 9,-23 19,-47 36,-80 54,-132 58,-171 5,-34 1,-42 -32,-76 -71,-73 -194,-101 -244,-56 -18,16 -102,179 -196,381 -26,55 -71,150 -100,210 -29,61 -63,133 -75,160 -55,126 -84,165 -120,165 -16,0 -137,-51 -296,-125 -80,-38 -139,-50 -174,-35 -104,43 -162,202 -104,285 17,23 199,120 369,195 117,52 277,128 330,158 138,75 458,223 505,232 19,4 37,8 39,9 2,0 20,-11 39,-26 z"
       id="path4"
       inkscape:connector-curvature="0" />
    <path
       d="m 31270,17783 c -8,-4 -55,-25 -105,-48 -49,-23 -112,-53 -140,-65 -145,-66 -302,-144 -317,-157 -30,-27 -22,-78 26,-166 24,-45 63,-118 86,-162 23,-44 65,-125 93,-179 29,-54 64,-112 79,-127 47,-52 73,-45 381,105 l 275,134 7,44 c 8,56 7,59 -138,330 -65,120 -117,221 -117,225 0,3 -11,21 -26,40 -19,26 -32,33 -57,32 -18,0 -39,-3 -47,-6 z"
       id="path6"
       inkscape:connector-curvature="0" />
    <path
       d="m 5692,13740 c -68,-33 -125,-60 -127,-60 -20,0 -276,-134 -284,-148 -12,-22 6,-81 33,-111 19,-21 72,-33 96,-20 8,4 42,20 75,34 33,15 77,36 98,47 20,10 37,17 37,14 0,-11 272,137 290,159 26,32 -31,145 -73,145 -12,0 -77,-27 -145,-60 z"
       id="path8"
       inkscape:connector-curvature="0" />
    <path
       d="m 40285,15786 c -29,-11 -69,-31 -110,-54 -22,-12 -220,-107 -350,-166 -44,-21 -91,-43 -105,-51 -156,-82 -243,-125 -254,-125 -7,0 -21,-8 -32,-18 -11,-10 -28,-21 -39,-25 -47,-14 -94,-33 -106,-44 -16,-13 -238,-125 -286,-145 -18,-7 -33,-16 -33,-20 0,-5 -6,-8 -13,-8 -7,0 -39,-14 -72,-32 -33,-17 -86,-45 -118,-62 -32,-17 -136,-70 -230,-118 -166,-83 -213,-107 -287,-142 -19,-10 -42,-21 -50,-26 -8,-4 -127,-65 -265,-135 -137,-70 -257,-131 -265,-135 -8,-5 -62,-32 -120,-60 -246,-121 -426,-211 -445,-222 -18,-11 -99,-53 -271,-143 -32,-16 -83,-55 -113,-86 -55,-55 -57,-56 -126,-62 -116,-11 -132,-17 -585,-219 -25,-12 -65,-30 -90,-41 -25,-10 -94,-43 -155,-72 -155,-75 -245,-115 -257,-115 -5,0 -92,-40 -193,-90 -101,-49 -189,-90 -195,-90 -7,0 -29,-10 -49,-22 -43,-27 -160,-78 -179,-78 -7,0 -15,-6 -18,-14 -3,-8 -20,-18 -37,-21 -18,-4 -48,-17 -67,-29 -19,-13 -52,-28 -72,-35 -20,-7 -52,-22 -70,-34 -18,-12 -78,-42 -133,-66 -90,-39 -171,-76 -350,-161 -33,-15 -82,-38 -110,-50 -27,-13 -61,-30 -75,-40 -14,-10 -45,-23 -70,-30 -25,-7 -63,-25 -84,-41 -22,-16 -48,-29 -58,-29 -18,0 -58,-19 -68,-32 -9,-11 -175,-88 -191,-88 -9,0 -24,-9 -34,-20 -10,-11 -22,-20 -27,-20 -12,0 -216,-102 -273,-136 -22,-13 -47,-24 -57,-24 -9,0 -18,-4 -20,-8 -1,-5 -79,-46 -173,-91 -93,-46 -190,-94 -215,-107 -25,-13 -105,-54 -179,-90 -117,-57 -138,-64 -159,-55 -27,13 -44,7 -36,-13 7,-17 -32,-45 -111,-80 -33,-15 -69,-32 -80,-38 -11,-6 -47,-24 -80,-40 -33,-16 -68,-33 -78,-39 -68,-38 -144,-77 -297,-154 -288,-145 -385,-211 -435,-296 -11,-18 -28,-45 -37,-59 -9,-14 -17,-37 -17,-52 -1,-15 -6,-30 -12,-34 -8,-4 -8,-9 -1,-13 7,-4 8,-20 2,-46 -5,-22 -9,-49 -9,-60 v -20 l 9,20 c 6,14 9,-7 10,-65 1,-47 3,-98 4,-115 1,-24 -3,-30 -19,-30 -13,0 -20,7 -20,18 0,28 -93,140 -155,185 -56,43 -191,99 -208,88 -6,-3 -12,-1 -14,6 -3,8 -35,12 -104,12 -130,0 -181,-16 -444,-141 -41,-20 -118,-55 -170,-78 -52,-23 -162,-74 -245,-112 -82,-39 -161,-76 -175,-82 -14,-6 -32,-15 -40,-20 -29,-18 -305,-151 -313,-151 -4,0 -54,-22 -111,-50 -57,-27 -111,-50 -119,-50 -9,0 -19,-4 -22,-10 -3,-5 -16,-10 -28,-10 -12,-1 -38,-14 -57,-30 -19,-17 -38,-30 -42,-30 -4,0 -38,-14 -75,-31 -38,-18 -106,-49 -153,-71 -47,-22 -100,-47 -119,-56 -19,-9 -37,-17 -41,-17 -4,0 -53,-23 -111,-52 -118,-59 -424,-206 -514,-248 -33,-15 -109,-51 -170,-80 -60,-30 -132,-63 -160,-74 -41,-16 -266,-129 -465,-234 -25,-13 -148,-77 -275,-142 -126,-64 -234,-120 -240,-124 -5,-4 -26,-14 -45,-21 -19,-8 -57,-28 -85,-45 -45,-28 -111,-64 -420,-225 -263,-137 -277,-146 -363,-220 -112,-96 -165,-220 -163,-378 2,-82 6,-107 37,-185 19,-50 38,-96 43,-101 4,-6 13,-30 21,-54 7,-23 19,-47 27,-53 7,-6 13,-19 13,-28 0,-9 4,-21 9,-27 11,-11 96,-180 152,-299 23,-49 45,-97 50,-105 5,-8 12,-22 15,-30 3,-8 14,-31 25,-51 10,-20 19,-46 19,-56 0,-11 11,-37 25,-57 14,-20 25,-43 25,-51 0,-7 6,-26 14,-42 39,-77 71,-149 71,-159 0,-6 5,-18 11,-25 7,-8 15,-25 19,-39 4,-14 16,-36 26,-49 11,-13 19,-28 19,-32 0,-13 127,-281 168,-354 35,-64 152,-310 152,-322 0,-7 5,-13 10,-13 6,0 10,-6 10,-12 0,-7 20,-53 44,-103 25,-49 52,-106 61,-125 8,-19 20,-42 25,-50 6,-8 14,-26 20,-40 5,-14 14,-32 19,-40 5,-8 39,-76 74,-150 36,-74 114,-236 175,-360 237,-486 262,-538 262,-548 0,-6 4,-12 8,-14 7,-3 93,-175 145,-292 12,-27 50,-106 83,-175 34,-69 80,-166 104,-216 23,-49 47,-99 53,-110 16,-31 62,-123 98,-198 17,-37 36,-70 41,-73 4,-3 8,-13 8,-23 0,-10 7,-24 15,-31 8,-7 15,-20 15,-30 0,-9 9,-25 19,-34 11,-10 22,-29 26,-43 10,-42 131,-168 186,-194 83,-40 178,-54 359,-54 144,0 180,3 205,17 60,33 326,148 343,148 6,0 12,4 14,8 3,7 172,92 183,92 3,0 93,43 200,95 107,52 197,95 201,95 4,0 129,60 278,134 149,73 343,168 431,210 88,42 171,84 185,92 14,8 34,18 44,21 11,3 110,52 220,107 111,56 221,111 246,122 25,11 104,51 176,87 72,37 138,67 146,67 9,0 18,3 20,8 2,4 82,46 178,94 361,181 627,328 594,328 -5,0 7,10 26,22 19,12 38,26 41,31 4,5 21,11 38,13 17,2 42,14 54,28 28,30 95,66 123,66 12,0 24,7 28,15 3,8 9,14 13,13 4,0 21,4 36,10 16,7 35,12 43,12 8,0 14,5 14,10 0,6 7,10 15,10 8,0 15,4 15,8 0,11 84,52 138,67 12,4 22,13 22,21 0,18 82,56 103,48 10,-3 20,3 27,15 12,23 40,29 40,9 0,-8 3,-9 8,-3 11,16 112,75 127,75 8,0 16,4 19,9 3,4 19,11 36,14 18,4 30,13 30,22 0,10 10,15 30,15 17,0 30,5 30,10 0,6 16,20 35,31 19,12 33,24 31,28 -3,4 8,16 22,28 56,45 69,59 84,93 46,103 58,181 59,390 1,102 6,193 11,203 15,29 69,22 103,-13 16,-17 35,-30 42,-30 7,0 13,-9 13,-20 0,-11 15,-29 35,-43 19,-13 32,-27 29,-30 -4,-3 6,-21 21,-39 29,-34 65,-55 65,-37 0,6 5,7 10,4 16,-10 70,5 70,20 0,17 28,27 33,12 3,-9 11,-9 34,-1 26,10 38,7 85,-16 76,-38 163,-67 224,-74 65,-8 108,7 344,121 102,50 228,109 280,133 52,24 108,53 123,63 15,10 33,20 40,21 19,3 187,88 193,98 3,4 13,8 23,8 10,0 26,9 36,20 10,11 28,20 41,20 13,0 26,5 29,10 3,6 17,10 31,10 13,0 24,4 24,9 0,5 8,11 18,15 9,3 24,10 32,15 8,6 31,17 50,26 19,8 53,25 75,36 22,12 58,30 80,41 22,11 60,30 85,43 61,32 143,69 153,69 4,1 11,6 15,11 4,6 27,17 52,25 25,7 56,21 70,30 14,9 57,31 95,49 39,17 77,36 85,41 15,9 196,103 435,224 71,36 137,66 145,66 9,0 21,5 26,10 6,6 460,234 1010,508 561,280 1013,512 1031,528 17,16 45,62 63,104 17,41 37,81 44,90 7,8 19,31 26,50 7,19 26,64 42,99 16,35 36,82 45,105 9,22 22,50 30,61 7,11 13,29 13,41 0,11 9,29 21,40 19,17 37,19 148,18 134,-1 174,-10 219,-51 14,-13 34,-23 44,-23 11,0 16,-4 13,-10 -3,-5 2,-10 12,-10 15,0 16,-2 3,-10 -12,-8 -9,-10 13,-10 15,0 27,-4 27,-10 0,-5 6,-10 14,-10 21,0 67,-26 59,-33 -11,-12 13,-8 53,9 46,19 392,191 447,222 21,12 44,22 52,22 8,0 15,5 15,10 0,6 5,10 10,10 6,0 66,28 135,62 l 125,61 v 3319 c 0,1825 -1,3317 -2,3317 -2,-1 -16,-7 -33,-13 z m -5371,-3549 c 23,-23 65,-90 95,-147 30,-58 62,-116 71,-130 9,-14 39,-65 65,-115 26,-49 51,-94 55,-100 4,-5 26,-46 50,-90 60,-111 93,-169 101,-175 3,-3 9,-15 13,-27 10,-30 63,-73 90,-73 26,0 129,40 134,52 2,4 8,8 14,8 5,0 56,23 112,50 56,28 108,50 114,50 6,0 17,6 24,13 14,13 256,135 382,191 130,59 169,47 230,-76 39,-77 42,-95 24,-145 -11,-31 -30,-43 -258,-155 -261,-129 -796,-380 -870,-408 l -44,-18 -41,43 c -23,23 -53,66 -68,96 -14,30 -41,81 -60,114 -45,80 -128,228 -162,290 -15,28 -31,55 -35,60 -4,6 -35,63 -69,127 -34,65 -72,137 -85,160 -88,159 -136,251 -142,273 -3,14 -10,23 -14,20 -8,-5 10,51 25,76 18,29 130,77 184,78 16,1 38,-13 65,-42 z m -3653,-1557 c 17,-36 40,-87 51,-115 12,-27 29,-61 39,-75 31,-46 172,-310 165,-310 -5,0 -110,181 -151,260 -15,30 -59,115 -96,189 -37,73 -77,143 -88,155 -12,12 -21,26 -21,32 1,20 72,-75 101,-136 z m -1376,-821 c 59,-16 109,-74 122,-139 11,-53 2,-96 -58,-279 -21,-63 -69,-246 -69,-261 0,-8 4,-21 9,-28 8,-13 148,-67 361,-139 58,-19 121,-43 141,-53 73,-38 124,-123 100,-169 -6,-11 -11,-30 -11,-43 0,-63 -90,-136 -153,-123 -31,7 -319,102 -452,151 -38,13 -76,24 -85,24 -30,0 -47,-32 -85,-155 -20,-66 -40,-129 -45,-140 -5,-11 -22,-67 -39,-124 -38,-128 -64,-176 -119,-218 -77,-59 -172,-54 -205,9 -22,43 -86,161 -119,218 -14,25 -47,86 -73,135 -70,132 -124,235 -199,375 -36,69 -98,187 -136,262 -99,194 -96,226 29,288 54,27 73,31 114,27 62,-6 89,-32 152,-152 26,-49 72,-135 103,-190 70,-124 136,-247 164,-303 12,-23 27,-41 33,-39 14,4 83,223 165,517 22,80 66,228 98,330 54,170 61,187 92,208 37,25 99,29 165,11 z"
       id="path10"
       inkscape:connector-curvature="0" />
    <path
       d="m 38800,8024 c -833,-438 -1535,-805 -1560,-816 -25,-11 -56,-26 -70,-33 -34,-17 -103,-40 -112,-37 -5,1 -8,-3 -8,-8 0,-6 -7,-10 -16,-10 -28,0 -116,-50 -169,-94 -29,-25 -164,-102 -325,-186 -151,-79 -287,-155 -302,-168 -30,-28 -37,-69 -13,-78 8,-4 15,-11 15,-17 0,-28 72,-69 217,-123 117,-43 157,-62 163,-78 10,-26 -5,-46 -35,-46 -12,0 -107,32 -211,70 l -189,71 -180,15 -180,15 -720,-357 c -1174,-581 -2824,-1412 -2849,-1435 -5,-5 -283,-154 -617,-331 -536,-285 -610,-326 -619,-352 -5,-16 -10,-80 -10,-143 0,-103 2,-118 26,-163 14,-28 30,-53 35,-56 5,-3 9,-11 9,-19 0,-7 167,-366 370,-796 321,-680 370,-789 368,-824 -3,-37 -5,-40 -33,-40 -29,0 -34,7 -130,195 -230,448 -360,701 -503,980 l -151,295 -113,111 c -68,67 -126,116 -146,122 -18,6 -47,22 -65,34 -30,21 -42,23 -172,23 h -140 l -275,-136 c -151,-74 -294,-141 -317,-148 -24,-8 -43,-18 -43,-23 0,-4 -9,-8 -20,-8 -11,0 -20,-4 -20,-10 0,-5 -6,-10 -13,-10 -7,0 -44,-16 -82,-36 -39,-20 -250,-122 -470,-226 -220,-105 -427,-205 -460,-224 -99,-55 -2988,-1446 -3018,-1453 -39,-9 -139,-111 -171,-176 -38,-74 -48,-116 -53,-216 -4,-81 15,-195 36,-224 5,-5 16,-34 26,-62 11,-29 23,-53 27,-53 4,0 8,-5 8,-11 0,-7 18,-48 39,-93 54,-110 186,-387 251,-523 l 54,-113 h 7228 7228 v 4410 c 0,2426 -1,4410 -2,4409 -2,0 -685,-358 -1518,-795 z M 35474,4776 c 18,-8 46,-30 61,-50 26,-34 28,-44 37,-198 15,-258 4,-314 -68,-344 -25,-10 -53,-13 -99,-8 -53,6 -72,13 -101,38 l -36,31 -13,195 c -8,109 -10,214 -6,237 10,51 35,91 64,103 34,14 124,11 161,-4 z M 29778,2105 c 42,-28 62,-60 166,-265 41,-80 97,-188 125,-240 66,-124 302,-600 331,-668 22,-50 22,-56 9,-100 -13,-43 -20,-50 -84,-84 -130,-69 -179,-50 -256,97 -23,44 -60,114 -82,155 -97,182 -140,263 -197,375 -34,66 -74,141 -91,166 -16,25 -34,59 -40,76 -16,46 -57,60 -111,38 -59,-23 -88,-52 -88,-88 0,-30 208,-455 270,-553 16,-27 30,-54 30,-61 0,-7 26,-63 58,-125 119,-235 117,-270 -25,-340 -53,-26 -69,-29 -107,-24 -57,9 -81,34 -138,143 -25,48 -74,143 -110,210 -36,67 -71,137 -78,155 -8,18 -22,46 -33,61 -11,16 -53,94 -94,175 -42,81 -86,162 -100,180 -30,41 -66,42 -128,5 -73,-45 -68,-62 106,-393 19,-36 44,-87 56,-115 12,-27 29,-61 37,-75 8,-14 56,-110 106,-215 84,-173 92,-194 87,-235 -6,-51 -40,-87 -117,-121 -74,-33 -93,-34 -147,-4 -37,21 -54,38 -73,78 -24,48 -171,336 -375,732 -224,435 -225,438 -192,489 29,43 77,72 277,164 306,141 344,159 525,247 429,209 417,205 483,160 z"
       id="path12"
       inkscape:connector-curvature="0" />
    <path
       d="m 24600,8259 c -41,-11 -313,-122 -605,-246 -291,-124 -543,-229 -560,-233 -32,-8 -132,-53 -330,-150 -66,-32 -226,-110 -355,-173 -129,-63 -260,-126 -290,-140 -30,-14 -145,-69 -254,-121 -109,-53 -201,-96 -203,-96 -2,0 -68,-31 -146,-69 -78,-38 -164,-79 -192,-91 -82,-36 -144,-65 -250,-115 -55,-26 -131,-62 -170,-80 -203,-96 -269,-125 -279,-125 -6,0 -27,-10 -46,-23 -19,-13 -55,-31 -80,-42 -25,-10 -54,-26 -65,-35 -11,-9 -40,-28 -65,-42 -25,-14 -88,-50 -140,-80 -52,-30 -140,-79 -195,-108 -55,-29 -107,-58 -115,-65 -8,-7 -46,-29 -85,-49 -38,-21 -101,-55 -140,-77 -38,-23 -86,-49 -105,-60 -65,-35 -169,-129 -202,-182 -52,-81 -57,-93 -64,-139 -4,-24 -10,-47 -13,-53 -13,-22 -6,-160 11,-192 9,-18 14,-42 11,-53 -3,-11 0,-20 6,-20 6,0 11,-9 11,-21 0,-21 7,-39 61,-157 16,-35 29,-66 29,-70 0,-4 20,-48 45,-97 24,-50 45,-96 45,-104 0,-8 8,-24 18,-35 11,-12 29,-49 42,-83 12,-34 28,-68 36,-74 8,-6 14,-17 14,-24 0,-8 15,-44 34,-82 19,-37 42,-86 51,-108 9,-22 28,-63 41,-90 13,-28 24,-54 24,-59 0,-5 6,-17 13,-25 7,-9 24,-41 37,-71 13,-30 54,-118 91,-195 37,-77 84,-176 104,-220 104,-222 137,-291 336,-702 43,-89 81,-173 85,-187 3,-14 12,-30 20,-37 8,-6 14,-16 14,-22 0,-6 25,-63 56,-126 55,-113 107,-222 185,-386 66,-141 90,-190 100,-205 5,-8 39,-78 75,-155 36,-77 85,-180 109,-230 53,-113 95,-203 130,-280 48,-109 99,-219 178,-385 86,-183 107,-230 107,-242 0,-13 49,-92 73,-118 8,-8 69,-90 136,-183 87,-118 128,-167 142,-167 11,0 32,-9 48,-21 20,-15 55,-23 130,-32 119,-13 195,-2 245,36 28,22 465,247 478,247 3,0 59,25 124,56 66,31 142,66 169,79 28,13 112,53 187,89 76,36 142,66 146,66 5,0 50,20 101,45 50,25 95,45 99,45 4,0 23,11 42,24 19,13 46,26 58,31 13,4 106,46 205,94 100,49 192,91 204,95 12,4 53,24 90,44 37,20 93,48 123,61 30,14 138,64 238,113 101,48 185,88 187,88 2,0 106,50 230,110 125,61 229,110 232,110 2,0 78,36 168,80 90,44 170,80 179,80 8,0 18,5 21,10 4,6 28,20 53,31 45,20 62,28 100,49 9,5 82,40 162,79 80,38 217,108 305,155 88,47 166,84 172,81 7,-2 16,2 20,10 8,13 198,118 338,186 39,18 75,38 81,44 6,5 49,28 95,50 46,22 86,43 89,46 3,4 33,21 68,38 40,20 70,43 83,64 82,132 110,247 88,351 -7,34 -14,63 -14,66 0,3 -4,11 -8,18 -5,7 -9,26 -9,42 -1,17 -4,30 -8,30 -4,0 -11,17 -14,38 -4,20 -71,170 -150,332 -268,551 -296,609 -296,622 -1,7 -12,31 -25,53 -14,22 -32,55 -41,74 -9,19 -60,126 -115,238 -54,112 -99,205 -99,208 0,2 -40,87 -89,187 -85,177 -175,365 -220,459 -11,25 -21,48 -21,52 0,3 -16,32 -35,64 -19,32 -35,66 -35,75 0,9 -11,34 -25,54 -14,21 -28,49 -32,63 -3,14 -14,37 -23,51 -26,39 -120,236 -120,253 0,8 -8,25 -19,38 -22,28 -71,124 -71,139 0,5 -20,46 -45,91 -25,45 -45,87 -45,93 0,6 -16,43 -36,81 -20,39 -45,87 -55,107 -10,20 -19,44 -19,52 0,8 -4,17 -8,20 -5,3 -24,36 -41,73 -18,37 -56,115 -85,173 -29,58 -66,139 -81,180 -16,41 -34,82 -41,90 -6,8 -22,38 -34,65 -24,54 -105,220 -120,245 -5,8 -46,90 -91,183 -45,92 -88,172 -96,178 -7,6 -13,15 -13,20 0,34 -141,199 -169,199 -5,0 -16,6 -23,13 -7,6 -38,22 -69,35 -84,34 -238,39 -339,11 z M 23544,6856 c 19,-8 46,-33 63,-58 27,-39 274,-532 423,-843 34,-71 78,-161 98,-200 29,-56 35,-81 35,-124 -2,-67 -25,-93 -129,-146 -41,-21 -77,-42 -80,-47 -3,-4 -11,-8 -19,-8 -7,0 -77,-31 -156,-69 -79,-37 -171,-81 -204,-96 -33,-15 -163,-78 -290,-140 -306,-149 -303,-148 -355,-153 -75,-7 -98,21 -207,245 -101,207 -109,242 -73,294 48,66 212,112 267,74 23,-16 83,-100 83,-116 0,-19 41,-49 69,-49 23,0 410,177 504,231 10,5 37,20 60,31 59,30 77,47 77,75 0,50 -271,606 -306,629 -30,21 -45,17 -185,-50 -245,-116 -292,-127 -346,-82 -38,32 -92,136 -99,190 -10,73 10,88 360,261 171,84 318,156 326,158 27,9 50,7 84,-7 z"
       id="path14"
       inkscape:connector-curvature="0" />
    <path
       d="m 18770,5451 c -46,-7 -101,-24 -157,-48 -17,-7 -34,-13 -37,-13 -3,0 -29,-11 -58,-24 -29,-13 -71,-29 -93,-36 -22,-7 -44,-16 -50,-20 -5,-4 -39,-17 -75,-29 -35,-13 -87,-33 -115,-45 -114,-53 -145,-66 -255,-109 -127,-50 -226,-96 -625,-292 -148,-73 -301,-147 -340,-165 -38,-18 -207,-100 -375,-183 -168,-82 -361,-175 -430,-207 -69,-32 -143,-67 -165,-78 -41,-21 -266,-129 -390,-187 -297,-139 -563,-264 -693,-326 -68,-32 -125,-59 -128,-59 -2,0 -69,-31 -148,-70 -78,-38 -146,-70 -149,-70 -4,0 -45,-25 -92,-55 -46,-30 -88,-55 -91,-55 -4,0 -22,-11 -40,-25 -18,-14 -37,-25 -42,-25 -5,0 -16,-7 -23,-17 -8,-9 -32,-25 -54,-36 -53,-26 -122,-65 -175,-102 -72,-49 -194,-176 -217,-225 -45,-99 -48,-113 -48,-240 0,-128 1,-135 53,-250 13,-30 42,-95 64,-145 22,-49 67,-146 100,-215 140,-290 157,-327 178,-375 12,-27 26,-57 31,-65 15,-26 144,-283 162,-325 15,-35 28,-60 59,-115 4,-8 11,-22 15,-30 7,-18 72,-158 102,-220 12,-25 30,-58 41,-75 10,-16 19,-40 19,-51 1,-12 8,-27 16,-34 8,-7 15,-21 15,-31 0,-11 5,-19 11,-19 7,0 9,-10 7,-25 -3,-16 0,-29 9,-33 15,-9 133,-236 133,-256 0,-8 7,-19 15,-26 8,-7 15,-22 15,-35 0,-12 11,-35 25,-51 14,-16 25,-37 25,-47 0,-11 8,-31 19,-45 10,-15 36,-65 57,-112 21,-47 44,-95 52,-107 l 14,-23 h 3279 3278 l 36,77 c 24,52 36,93 37,125 0,27 4,51 8,53 9,6 1,183 -9,210 -5,11 -14,33 -20,48 -6,15 -11,38 -11,50 0,46 -480,1087 -747,1622 -149,297 -393,794 -543,1105 -261,541 -336,693 -379,770 -11,19 -83,166 -161,325 -77,160 -147,302 -155,316 -8,14 -45,86 -83,160 -116,227 -174,323 -223,367 -21,19 -43,48 -50,65 -25,67 -121,126 -246,152 -72,15 -110,17 -183,6 z M 17150,3802 c 14,-10 48,-63 75,-117 78,-155 265,-540 310,-640 59,-129 86,-187 98,-210 87,-162 107,-209 107,-251 0,-64 -32,-107 -105,-144 -110,-55 -177,-37 -230,62 -66,124 -95,183 -95,195 0,7 -3,13 -8,13 -4,0 -15,19 -26,43 -24,55 -54,87 -84,87 -13,0 -56,-14 -95,-31 -127,-56 -508,-247 -529,-266 -32,-29 -16,-96 62,-258 67,-139 74,-161 75,-211 0,-64 -13,-80 -105,-128 -95,-50 -140,-49 -189,2 -20,21 -46,58 -58,83 -24,49 -119,253 -133,284 -5,11 -29,64 -54,118 -25,54 -46,101 -46,103 0,2 -36,77 -80,166 -44,90 -80,166 -80,170 0,4 -25,60 -56,125 -68,140 -76,187 -43,232 30,40 135,93 198,99 44,4 52,1 88,-32 25,-22 52,-63 73,-108 80,-178 128,-274 144,-287 25,-21 59,-16 133,19 335,162 501,245 516,258 23,20 22,71 -2,124 -11,24 -27,61 -37,83 -9,22 -35,76 -56,120 -49,101 -59,175 -29,222 21,34 55,55 136,84 54,20 86,18 125,-9 z"
       id="path16"
       inkscape:connector-curvature="0" />
    <path
       d="m 12805,2623 c -39,-9 -230,-75 -272,-94 -24,-10 -48,-19 -53,-19 -6,0 -30,-9 -52,-20 -23,-11 -49,-20 -58,-20 -8,0 -31,-8 -50,-19 -19,-10 -46,-21 -60,-25 -24,-7 -84,-34 -141,-63 -29,-14 -191,-83 -324,-138 -44,-18 -106,-45 -137,-59 -31,-14 -60,-26 -65,-26 -4,0 -19,-6 -33,-13 -14,-7 -56,-24 -95,-37 -38,-13 -155,-65 -260,-116 -104,-51 -275,-134 -380,-185 -104,-50 -273,-132 -375,-181 -102,-50 -223,-108 -270,-130 -47,-22 -150,-72 -230,-110 -154,-75 -323,-155 -405,-193 -27,-13 -139,-66 -249,-119 -109,-53 -201,-96 -204,-96 -3,0 -64,-29 -136,-64 C 8884,861 8773,807 8710,777 8483,668 8108,486 8010,435 7939,399 7844,331 7804,288 7760,242 7680,114 7680,90 c 0,-10 -4,-22 -10,-25 -5,-3 -10,-19 -10,-36 V 0 h 895 894 l -19,42 c -46,102 -21,138 159,225 64,30 324,158 578,284 503,249 513,253 566,203 68,-62 116,-218 84,-268 -18,-27 1,-17 -509,-272 C 10095,107 9919,16 9915,10 9911,3 9980,0 10122,0 h 214 l 254,127 c 300,149 333,158 389,102 18,-19 54,-78 79,-132 l 46,-97 h 1706 c 1163,1 1699,4 1688,11 -10,5 -18,15 -18,21 0,11 -63,153 -80,178 -14,23 -46,93 -61,136 -8,22 -16,41 -19,44 -8,7 -130,256 -130,264 0,4 -27,65 -61,134 -33,70 -74,156 -91,192 -17,36 -35,72 -39,80 -29,53 -119,250 -125,275 -3,14 -9,25 -13,25 -3,0 -12,15 -20,33 -26,60 -133,272 -142,282 -5,5 -9,21 -9,36 0,15 -4,30 -9,34 -6,3 -16,18 -24,33 -95,186 -127,252 -127,261 0,6 -4,11 -9,11 -5,0 -15,16 -21,35 -6,20 -22,48 -34,63 -12,15 -29,43 -36,62 -17,41 -109,182 -127,193 -7,4 -13,14 -13,21 0,8 -13,28 -29,45 -16,17 -27,31 -24,31 2,0 -9,11 -25,25 -17,14 -33,25 -37,25 -4,0 -19,9 -34,19 -50,36 -149,61 -235,60 -45,-1 -90,-3 -101,-6 z"
       id="path18"
       inkscape:connector-curvature="0" />
    <path
       d="m 24490,927 c -43,-13 -185,-73 -242,-103 -16,-8 -40,-20 -55,-28 -16,-8 -71,-33 -123,-56 -52,-23 -171,-79 -265,-125 -93,-46 -186,-91 -205,-99 -19,-8 -48,-23 -65,-32 -16,-9 -37,-20 -45,-24 -8,-4 -24,-12 -35,-18 -11,-6 -87,-44 -170,-83 -143,-68 -305,-147 -605,-293 L 22545,0 h 1423 c 782,0 1422,3 1422,6 0,4 -23,54 -52,113 -28,58 -52,111 -52,116 -1,6 -13,29 -29,52 -15,24 -27,49 -27,56 0,7 -4,17 -9,23 -4,5 -41,72 -80,149 -80,153 -142,246 -191,285 -18,14 -38,31 -45,38 -8,6 -18,12 -22,12 -5,0 -18,8 -29,18 -59,54 -265,88 -364,59 z"
       id="path20"
       inkscape:connector-curvature="0" />
  </g>
</svg>
