<?xml version="1.0" encoding="UTF-8" standalone="no"?>
<svg
   xmlns:dc="http://purl.org/dc/elements/1.1/"
   xmlns:cc="http://creativecommons.org/ns#"
   xmlns:rdf="http://www.w3.org/1999/02/22-rdf-syntax-ns#"
   xmlns:svg="http://www.w3.org/2000/svg"
   xmlns="http://www.w3.org/2000/svg"
   xmlns:sodipodi="http://sodipodi.sourceforge.net/DTD/sodipodi-0.dtd"
   xmlns:inkscape="http://www.inkscape.org/namespaces/inkscape"
   enable-background="new 0 0 32 32"
   height="32px"
   id="Layer_1"
   version="1.0"
   viewBox="0 0 32 32"
   width="32px"
   xml:space="preserve"
   inkscape:version="0.92.3 (unknown)"
   sodipodi:docname="github.svg"><metadata
     id="metadata25"><rdf:RDF><cc:Work
         rdf:about=""><dc:format>image/svg+xml</dc:format><dc:type
           rdf:resource="http://purl.org/dc/dcmitype/StillImage" /><dc:title></dc:title></cc:Work></rdf:RDF></metadata><defs
     id="defs23"><filter
       style="color-interpolation-filters:sRGB;"
       inkscape:label="Invert"
       id="filter4145"><feColorMatrix
         type="hueRotate"
         values="180"
         result="color1"
         id="feColorMatrix4147" /><feColorMatrix
         values="-1 0 0 0 1 0 -1 0 0 1 0 0 -1 0 1 -0.21 -0.72 -0.07 2 0 "
         result="color2"
         id="feColorMatrix4149" /></filter></defs><sodipodi:namedview
     pagecolor="#ffffff"
     bordercolor="#666666"
     borderopacity="1"
     objecttolerance="10"
     gridtolerance="10"
     guidetolerance="10"
     inkscape:pageopacity="0"
     inkscape:pageshadow="2"
     inkscape:window-width="1920"
     inkscape:window-height="1004"
     id="namedview21"
     showgrid="false"
     inkscape:zoom="11.313709"
     inkscape:cx="17.799714"
     inkscape:cy="17.954058"
     inkscape:window-x="0"
     inkscape:window-y="24"
     inkscape:window-maximized="1"
     inkscape:current-layer="g3" /><g
     id="g3"><path
       d="m 32,32.007813 c -9.611449,-0.01921 -22.0727536,0.0032 -31.9949323,0.0032 L 0.0100236,0 32,0 Z"
       id="path5"
       style="fill:#01ff46;fill-opacity:1"
       inkscape:connector-curvature="0"
       sodipodi:nodetypes="ccccc" /><path
       id="path823"
       d="m 12.027424,23.141763 c 0,0.09677 -0.111292,0.174194 -0.251615,0.174194 -0.159675,0.01452 -0.270966,-0.06291 -0.270966,-0.174194 0,-0.09677 0.111291,-0.174193 0.251609,-0.174193 0.145166,-0.01452 0.270972,0.06291 0.270972,0.174193 z m -1.504843,-0.217745 c -0.03385,0.09678 0.06291,0.208069 0.208068,0.237101 0.1258,0.04838 0.270966,0 0.299998,-0.09678 0.02906,-0.09677 -0.06291,-0.208064 -0.208064,-0.25161 -0.1258,-0.03385 -0.266127,0.01452 -0.300002,0.111291 z m 2.138714,-0.08226 c -0.140324,0.03385 -0.237097,0.1258 -0.222583,0.237095 0.01452,0.09677 0.140323,0.159676 0.285485,0.1258 0.140323,-0.03385 0.2371,-0.1258 0.222582,-0.222577 -0.01452,-0.09194 -0.145161,-0.154842 -0.285484,-0.140323 z M 15.845169,4.2998089 c -6.711298,0 -11.845173,5.0951677 -11.845173,11.8064651 0,5.366133 3.377423,9.958074 8.201621,11.574202 0.619356,0.111291 0.837097,-0.270966 0.837097,-0.585482 0,-0.300002 -0.01452,-1.95484 -0.01452,-2.970974 0,0 -3.387101,0.725812 -4.098392,-1.441934 0,0 -0.551613,-1.408067 -1.345163,-1.770972 0,0 -1.108068,-0.759675 0.07742,-0.745161 0,0 1.204839,0.09678 1.867742,1.24839 1.05968,1.867743 2.835488,1.330644 3.527423,1.01129 0.111292,-0.774195 0.425808,-1.311292 0.774195,-1.630647 -2.704845,-0.299998 -5.43388,-0.691936 -5.43388,-5.346778 0,-1.330649 0.367743,-1.99839 1.141937,-2.850005 -0.1258,-0.314516 -0.537097,-1.611291 0.1258,-3.2854843 1.011296,-0.3145173 3.338716,1.3064493 3.338716,1.3064493 0.967745,-0.270966 2.008067,-0.411288 3.038713,-0.411288 1.030646,0 2.070968,0.140322 3.038713,0.411288 0,0 2.327422,-1.6258045 3.33871,-1.3064493 0.662903,1.6790313 0.251615,2.9709683 0.125814,3.2854843 0.774195,0.856452 1.248385,1.524199 1.248385,2.850005 0,4.66936 -2.850001,5.041942 -5.554844,5.346778 0.445164,0.382261 0.822583,1.108067 0.822583,2.245166 0,1.630643 -0.01452,3.648391 -0.01452,4.045166 0,0.314516 0.222578,0.696774 0.837097,0.585482 4.838715,-1.606452 8.119361,-6.198393 8.119361,-11.564526 0,-6.7112974 -5.443553,-11.8064651 -12.15485,-11.8064651 z M 8.703226,20.988535 c -0.06291,0.04838 -0.04838,0.15968 0.03385,0.251614 0.07742,0.07741 0.18871,0.111291 0.251613,0.04838 0.06291,-0.04838 0.04839,-0.159674 -0.03385,-0.251609 C 8.877419,20.9595 8.766128,20.925629 8.703225,20.98854 Z m -0.52258,-0.391936 c -0.03385,0.06291 0.01452,0.140323 0.111291,0.18871 0.07741,0.04838 0.174194,0.03385 0.208063,-0.03385 0.03385,-0.06291 -0.01452,-0.140322 -0.111291,-0.188711 -0.09677,-0.029 -0.174193,-0.01452 -0.208063,0.03385 z m 1.567741,1.722581 c -0.07742,0.06291 -0.04838,0.208068 0.06291,0.300003 0.111291,0.111292 0.251609,0.1258 0.314516,0.04838 0.06291,-0.06291 0.03385,-0.208069 -0.06291,-0.300004 -0.106446,-0.111291 -0.251609,-0.1258 -0.314516,-0.04838 z M 9.196774,21.607892 c -0.07742,0.04838 -0.07742,0.174194 0,0.285484 0.07741,0.111292 0.208063,0.159676 0.27097,0.111292 0.07742,-0.06291 0.07742,-0.188709 0,-0.3 -0.06775,-0.111291 -0.193549,-0.159679 -0.27097,-0.09677 z"
       inkscape:connector-curvature="0"
       style="stroke-width:0.04838714" /></g><g
     id="g9" /><g
     id="g11" /><g
     id="g13" /><g
     id="g15" /><g
     id="g17" /><g
     id="g19" /></svg>