<?xml version="1.0" encoding="UTF-8" standalone="no"?>
<svg
   xmlns:dc="http://purl.org/dc/elements/1.1/"
   xmlns:cc="http://creativecommons.org/ns#"
   xmlns:rdf="http://www.w3.org/1999/02/22-rdf-syntax-ns#"
   xmlns:svg="http://www.w3.org/2000/svg"
   xmlns="http://www.w3.org/2000/svg"
   xmlns:sodipodi="http://sodipodi.sourceforge.net/DTD/sodipodi-0.dtd"
   xmlns:inkscape="http://www.inkscape.org/namespaces/inkscape"
   enable-background="new 0 0 32 32"
   height="32px"
   id="Layer_1"
   version="1.0"
   viewBox="0 0 32 32"
   width="32px"
   xml:space="preserve"
   inkscape:version="0.92.3 (unknown)"
   sodipodi:docname="rss.svg"><metadata
     id="metadata24"><rdf:RDF><cc:Work
         rdf:about=""><dc:format>image/svg+xml</dc:format><dc:type
           rdf:resource="http://purl.org/dc/dcmitype/StillImage" /><dc:title></dc:title></cc:Work></rdf:RDF></metadata><defs
     id="defs22"><filter
       style="color-interpolation-filters:sRGB;"
       inkscape:label="Invert"
       id="filter4157"><feColorMatrix
         type="hueRotate"
         values="180"
         result="color1"
         id="feColorMatrix4159" /><feColorMatrix
         values="-1 0 0 0 1 0 -1 0 0 1 0 0 -1 0 1 -0.21 -0.72 -0.07 2 0 "
         result="color2"
         id="feColorMatrix4161" /></filter></defs><sodipodi:namedview
     pagecolor="#ffffff"
     bordercolor="#666666"
     borderopacity="1"
     objecttolerance="10"
     gridtolerance="10"
     guidetolerance="10"
     inkscape:pageopacity="0"
     inkscape:pageshadow="2"
     inkscape:window-width="1920"
     inkscape:window-height="1004"
     id="namedview20"
     showgrid="false"
     inkscape:zoom="14.75"
     inkscape:cx="0.58642141"
     inkscape:cy="19.608585"
     inkscape:window-x="0"
     inkscape:window-y="24"
     inkscape:window-maximized="1"
     inkscape:current-layer="g3" /><g
     id="g3"><rect
       style="opacity:1;fill:#01ff46;fill-opacity:1;stroke:none;stroke-width:1;stroke-linecap:butt;stroke-linejoin:round;stroke-miterlimit:4;stroke-dasharray:none;stroke-dashoffset:0;stroke-opacity:1"
       id="rect4152"
       width="32.067795"
       height="31.999998"
       x="-0.13559322"
       y="-1.6884357e-08" /><path
       id="path823"
       d="m 10.861482,24.569237 c 0,1.89477 -1.5360004,3.43077 -3.4307704,3.43077 -1.89476,0 -3.43071,-1.536 -3.43071,-3.43077 0,-1.89476 1.536,-3.43076 3.43076,-3.43076 1.89477,0 3.4307204,1.53605 3.4307204,3.43076 z m 9.41035,2.53125 c -0.44754,-8.28214 -7.08134,-14.92429 -15.3723104,-15.37231 -0.48938,-0.0265 -0.89952,0.36675 -0.89952,0.85682 v 2.57512 c 0,0.45081 0.34768,0.82886 0.79752,0.85811 5.9909904,0.39022 10.7931804,5.18046 11.1842004,11.18421 0.0293,0.44983 0.40736,0.79751 0.85811,0.79751 h 2.57512 c 0.49013,6e-5 0.88334,-0.41009 0.85688,-0.89946 z m 7.72761,0.0154 C 27.549772,14.589827 17.471332,4.4524066 4.8840916,4.0005266 c -0.48375,-0.0173 -0.88409,0.37345 -0.88409,0.85747 v 2.57507 c 0,0.46205 0.36616,0.83812 0.82784,0.85708 10.2417204,0.41995 18.4621404,8.6419304 18.8820404,18.8820404 0.0189,0.46168 0.39498,0.82784 0.85708,0.82784 h 2.57507 c 0.48397,-5e-5 0.87477,-0.40039 0.85741,-0.88414 z"
       inkscape:connector-curvature="0"
       style="stroke-width:0.05357138" /></g><g
     id="g8" /><g
     id="g10" /><g
     id="g12" /><g
     id="g14" /><g
     id="g16" /><g
     id="g18" /></svg>