<svg width="50.378mm" height="41.832mm" version="1.1" viewBox="0 0 50.378 41.832" xmlns="http://www.w3.org/2000/svg">
  <g transform="translate(-66.542 -122.38)">
    <g transform="translate(76.224 -12.738)">
      <g transform="translate(146.47 177.45)">
        <path d="m-126.65-42.324c4.5654 6.449 23.844 31.444 10.699 36.612-6.1194 2.8129-34.03-1.647-33.619-.92085-1.9956 3.2798-3.591 5.9159-3.591 5.9159s21.452.96681 38.133-1.2694c23.737-3.1821-4.8788-33.505-11.622-40.337z" style="fill:#7f7fff;stroke-width:.58539"/>
        <path d="m-126.7-42.34c-1.5244.20891-29.447 34.474-29.447 34.474s2.0068.56982 6.5794 1.2325c1.4847-1.1544 22.289-36.243 22.92-35.691-.0107-.0141-.028-.0193-.0522-.016z" style="fill:#ff7f7f;stroke-width:.58539"/>
        <path d="m-126.68-42.336c-.95961-.15608-22.895 35.703-22.895 35.703s19.915 2.1 28.079 1.9622c23.119-.39036.17566-30.599-5.1594-37.653-.007-.007-.0151-.0108-.0248-.0124z" style="fill:#7f3fbf;stroke-width:.58539"/>
      </g>
    </g>
  </g>
</svg>
