<?xml version="1.0" encoding="UTF-8" standalone="no"?>
<svg id="svg2" xmlns="http://www.w3.org/2000/svg" height="300" width="300" version="1.0" xmlns:xlink="http://www.w3.org/1999/xlink">
 <path id="voice" fill="#294172" d="m283.13 150.01c0-73.525-59.604-133.13-133.13-133.13-73.491 0-133.07 59.555-133.12 133.04v103.01c.03955 16.684 13.571 30.191 30.266 30.191h102.91c73.5-.0288 133.07-59.613 133.07-133.12"/>
 <path id="in" d="m93.626 158.6h47.845v47.845c0 26.41-21.434 47.845-47.845 47.845-26.41 0-47.845-21.434-47.845-47.845 0-26.41 21.434-47.845 47.845-47.845z" stroke="#3c6eb4" stroke-width="29.21" fill="none"/>
 <use id="finity" xlink:href="#in" transform="rotate(180 141.36 158.64)" height="100%" width="100%" y="0" x="0"/>
 <path id="free" fill="#ffffff" d="m156.11 144.03v62.346c0 34.504-27.975 62.48-62.481 62.48-5.2349 0-8.9565-.59101-13.802-1.8577-7.066-1.8491-12.84-7.6425-12.843-14.381 0-8.1451 5.9124-14.07 14.75-14.07 4.2064 0 5.7327.80765 11.895.80765 18.192 0 32.948-14.735 32.98-32.927v-28.657c0-2.5678-2.0866-4.6482-4.6587-4.6482l-21.665-.004c-8.0721 0-14.594-6.4384-14.594-14.533-.0043-8.1446 6.5888-14.557 14.748-14.557"/>
 <use id="dom" xlink:href="#free" transform="rotate(180 141.36 158.64)" height="100%" width="100%" y="0" x="0"/>
 <path id="TM" fill="#3c6eb4" d="m260.15 260.08s.00004-5.5314.00004-5.5314l-2.5285 5.7978-2.4614-5.7978.00047 5.5314h-1.4183v-8.7349h1.487s2.434 5.5805 2.434 5.5805l2.3971-5.5805h1.5054v8.7349zm-10.333-7.2718v7.2718h-1.4821v-7.2718h-2.4849v-1.4631h6.4495v1.4631"/>
</svg>
