<?xml version="1.0" encoding="UTF-8" standalone="no"?>
<svg id="Calque_1" xmlns="http://www.w3.org/2000/svg" enable-background="new 0 0 712 860" xml:space="preserve" height="705" viewBox="0 0 705 705" width="705" version="1.1" y="0px" x="0px"><g id="g937" fill="#00ff00" transform="matrix(1.3561 0 0 1.3561 -142.42 114.76)"><path id="path5461" d="m350 12.922c-193.3 0-350 156.7-350 350 .12224 93.996 38.047 183.99 105.24 249.73 9.6873-12.646 19.07-24.256 27.734-34.561 36.547-51.939 47.316-93.815 51.072-146.95 3.0512-72.647-51.423-289.62 153.95-306.15 8.1231-.65093 15.92-.96278 23.393-.94922 183.78.25766 173.44 193.92 172.29 298.36-.74722 68.429 37.09 114.75 75.779 163.56 1.6306 1.9267 3.3055 3.9357 4.9805 5.9453 55.12-63.57 85.49-144.86 85.57-228.99 0-193.3-156.7-350-350-350zm264.43 578.98c-409.62 178.73-204.81 89.367 0 0zm-97.506 78.26c-344.62 126.56-172.31 63.281 0 0zc-25.37-52.78-57.55-134.73-72.6-194.05-10.197 14.537-28.112 27.015-50.664 34.066-.0136 0-.0274.00008-.041.0137-10.674 3.4716-21.928 12.394-36.02 20.449-12.964 7.4179-28.532 13.928-48.494 13.928-1.7765 0-3.5933-.0536-5.4512-.16211-19.365-1.1256-32.18-8.2451-42.445-16.49-10.239-8.2316-18.145-17.291-28.668-23.488-.0136 0-.0138-.00008-.0273-.0137-3.5937-2.0477-11.662-7.5003-14.021-9.209-2.793 52.685-25.435 113.58-48.859 167.16 54.414 32.927 116.77 50.404 180.37 50.555 58.337-.12028 115.72-14.82 166.93-42.764zm-347.3-7.791c-113.09 131.76-56.543 65.878 0 0zm216.14-377.44c-10.644.10849-19.637 3.295-28.791 10.238-9.1388 6.9568-15.635 15.5-20.883 27.393-5.2481 11.879-7.4851 23.582-7.3359 37.225v1.0449c.0814 3.8513.35153 7.5272.82617 11.094 8.2451 1.9664 20.182 5.3564 29.512 10.008-.63737-3.6886-.90743-7.4851-.8125-11.635 0-.29834-.00031-.55517.0391-.85352.25902-7.5399 1.5607-13.886 4.2051-20.287 2.6566-6.4008 5.8437-10.998 10.143-14.592 4.0968-3.4174 8.0568-4.9904 12.613-5.0039.23053 0 .44719.00008.67773.0137 4.8549.16274 8.8964 1.9522 12.951 5.8984 4.0398 3.9463 6.8344 8.6926 9.0312 15.297 2.102 6.2923 3.0515 12.436 2.9024 19.623 0 .35259-.0957.60986-.0957.90821-.2441 7.4992-1.5452 13.791-4.2031 20.232-1.7507 4.2717-6.4556 7.676-8.8438 10.564 3.2967 1.1391 6.493 2.1962 10.59 3.7422 4.0941 1.546 8.6633 3.3618 13.83 5.5723 1.4931.61025 2.9299 1.2476 4.3144 1.9121 4.0819-4.9362 7.4851-10.632 10.441-17.412 5.1939-11.893 7.5538-23.542 7.4453-37.225-.0949-.35258-.0951-.65132-.0937-1.0039-.25901-13.331-2.8088-24.572-8.0976-36.072-5.3973-11.798-12.097-20.233-21.387-26.986-9.1537-6.6314-18.062-9.6953-28.477-9.6953zm-142.24 11.309c-.58312 0-1.167.0139-1.7637.041-7.6484.39327-13.995 3.5394-20.287 9.791-6.3059 6.2381-10.646 13.832-13.9 24.328-3.2411 10.496-4.3931 20.641-3.7422 32.439v.0937c.70518 11.798 3.0515 21.793 7.4453 31.773 3.7157 8.4485 7.9604 14.85 13.398 19.949 2.4952-1.8443 4.6378-3.417 6.4414-4.7324 2.8207-2.0613 5.1158-3.9376 8.5332-6.582-.54244-.37971-1.0846-.81444-1.6406-1.2891-3.2953-2.8478-5.8441-6.5503-8.041-11.744-2.1426-5.0447-3.3506-10.033-3.9473-16.041 0-.2441-.0547-.44926-.0547-.69336-.54244-6.1974-.20225-11.594 1.0996-17.086 1.3019-5.5058 3.1044-9.6562 5.8438-12.992 2.7529-3.3496 5.6556-5.0571 9.1543-5.3555.32546-.0271.65098-.041.96289-.041 3.119-.0271 5.9404 1.1656 8.9238 3.7422 3.2953 2.8478 5.8034 6.5507 8.041 11.799 2.102 5.0447 3.3642 10.035 3.9609 15.988 0 .2441-.002.4473.0391.6914.43395 4.4887.35288 8.5031-.20312 12.463 5.7228-3.7835 11.645-6.6265 19.104-9.2031 1.3154-.44752 2.644-.86845 4.0137-1.2617.39327-4.5158.43495-9.1811.12305-14.131v-.0957c-.65093-11.798-2.997-21.793-7.4043-31.787-4.3938-9.9945-9.6427-17.086-16.586-22.633-6.4008-5.1125-12.584-7.4181-19.514-7.4316zm64.916 81.814c-8.4214.0271-15.948 1.5191-22.688 3.8516-19.596 6.7398-32.6 20.803-40.75 28.52l-.0137.0117c0 .0136-.0137.0138-.0137.0273-1.6002 1.5188-3.6619 2.903-8.6524 6.5645-5.0312 3.675-12.571 9.2071-23.42 17.344-9.6419 7.228-12.775 16.641-9.4394 27.666 3.3224 11.025 13.956 23.744 33.402 34.742l.0273.0273.0391.0137c12.069 7.0924 20.316 16.652 29.781 24.26 4.7328 3.7971 9.7091 7.1889 15.703 9.752 5.994 2.563 12.992 4.2991 21.752 4.8145 20.559 1.1934 35.693-4.9785 49.051-12.627 13.385-7.6349 24.72-16.978 37.727-21.195l.0273-.0137.0273-.0137c26.66-8.3265 45.675-25.101 51.627-41.035 2.9834-7.9739 2.887-15.541-.66602-22.525-3.5666-6.9839-10.847-13.629-23.242-18.715l-.0273-.0137-.041-.0117c-25.78-11.039-36.967-11.826-51.355-21.184-23.42-15.053-42.772-20.328-58.855-20.26zm-20.604 18.77c.34255-.007.68298-.002 1.0215.0156 1.6248.0824 3.1883.45165 4.5644 1.2168.84092.46755 1.7588 1.5638 1.4727 2.4824-.87718 2.8156-5.4134 2.3488-8.0352 3.6992-2.3005 1.1849-4.1516 3.7808-6.7383 3.8555-2.4687.0713-6.3117-.85399-6.6328-3.3027-.42427-3.2352 4.3018-5.2914 7.3418-6.4766 2.1394-.8341 4.6081-1.4432 7.0059-1.4902zm126.07 42.109c.34308-.0103.70711.005 1.0976.0508 6.2488.72829 1.6278 7.4038-7.123 15.041-8.7509 7.6372-22.441 17.77-33.561 23.566-21.21 11.056-45.987 24.465-72.35 24.465-26.349 0-47.165-12.177-62.137-24.043-7.4857-5.9262-13.561-11.826-18.145-16.111-7.9527-6.2774-6.9998-15.082-3.7324-14.822 5.4768.68372 6.3051 7.8958 9.7539 11.121 4.665 4.3667 10.509 10.02 17.588 15.635 14.158 11.215 33.035 22.133 56.672 22.133 23.596 0 51.142-13.854 67.955-23.285 9.5256-5.3434 21.647-14.921 31.539-22.182 7.095-5.208 7.2952-11.413 12.441-11.568z" transform="matrix(.73741 0 0 .73741 106.87 -90.465)" fill="#00ff00"/></g></svg>
