<svg width="48" height="48" version="1.1" viewBox="0 0 48 48" xmlns="http://www.w3.org/2000/svg" xmlns:xlink="http://www.w3.org/1999/xlink">
  <defs>
    <linearGradient id="linearGradient4148">
      <stop style="stop-color:#000000" offset="0"/>
      <stop style="stop-color:#000000;stop-opacity:0" offset="1"/>
    </linearGradient>
    <linearGradient id="linearGradient4144" x1="25" x2="25" y1="1004.4" y2="1052.4" gradientUnits="userSpaceOnUse">
      <stop style="stop-color:#1abc9c" offset="0"/>
      <stop style="stop-color:#2980b9" offset="1"/>
    </linearGradient>
    <linearGradient id="linearGradient4154" x1="24" x2="49" y1="1028.4" y2="1028.4" gradientTransform="matrix(.87348 .87348 -.87348 .87348 901.3 -895.22)" gradientUnits="userSpaceOnUse" xlink:href="#linearGradient4148"/>
    <linearGradient id="linearGradient4154-3" x1="24" x2="49" y1="1028.4" y2="1028.4" gradientTransform="matrix(.87348 .87348 -2.4567 2.4567 2529.4 -2523.3)" gradientUnits="userSpaceOnUse" xlink:href="#linearGradient4148"/>
    <linearGradient id="linearGradient4154-3-4" x1="24" x2="49" y1="1028.4" y2="1028.4" gradientTransform="matrix(.87348 .87348 -3.7123 3.7123 3820.6 -3814.5)" gradientUnits="userSpaceOnUse" xlink:href="#linearGradient4148"/>
  </defs>
  <g transform="translate(0 -1004.4)">
    <circle cx="24" cy="1028.4" r="24" style="color-rendering:auto;color:#000000;fill-rule:evenodd;fill:url(#linearGradient4144);image-rendering:auto;isolation:auto;mix-blend-mode:normal;shape-rendering:auto;solid-color:#000000"/>
    <g transform="matrix(1.2353 0 0 1.2353 -5.6471 -241.97)">
      <path transform="matrix(.80952 0 0 .80952 4.5714 1008.9)" d="m27.494 20.506-6.9883 6.9883 16.602 16.6a24 24 0 006.9785-6.9961l-16.592-16.592z" style="color-rendering:auto;color:#000000;fill-rule:evenodd;fill:url(#linearGradient4154);image-rendering:auto;isolation:auto;mix-blend-mode:normal;opacity:.2;shape-rendering:auto;solid-color:#000000"/>
      <path transform="matrix(.80952 0 0 .80952 4.5714 1008.9)" d="m33.826 14.174-.44141.44141a13.279 13.279 0 013.8945 9.3848 13.279 13.279 0 01-13.279 13.279 13.279 13.279 0 01-9.3848-3.8945l-.44141.44141 13.832 13.834a24 24 0 0019.635-19.674l-13.814-13.812z" style="color-rendering:auto;color:#000000;fill-rule:evenodd;fill:url(#linearGradient4154-3);image-rendering:auto;isolation:auto;mix-blend-mode:normal;opacity:.2;shape-rendering:auto;solid-color:#000000"/>
      <path transform="matrix(.80952 0 0 .80952 4.5714 1008.9)" d="m38.85 9.1465v.0039062l-1.1543 1.1543a19.379 19.379 0 015.6836 13.695 19.379 19.379 0 01-19.379 19.379 19.379 19.379 0 01-13.695-5.6855l-1.1543 1.1562 8.1875 8.1875a24 24 0 006.6621.96289 24 24 0 0024-24 24 24 0 00-.95312-6.6562l-8.1973-8.1973z" style="color-rendering:auto;color:#000000;fill-rule:evenodd;fill:url(#linearGradient4154-3-4);image-rendering:auto;isolation:auto;mix-blend-mode:normal;opacity:.2;shape-rendering:auto;solid-color:#000000"/>
      <path d="m24 1011.4a1.4 1.4 0 00-1.365 1.0944 16 16 0 00-8.9213 3.7031 1.4 1.4 0 00-.71368-.1975 1.4 1.4 0 00-1.4 1.4 1.4 1.4 0 00.1972.7132 16 16 0 00-3.7103 8.924 1.4 1.4 0 00-1.0869 1.3628 1.4 1.4 0 001.0944 1.3651 16 16 0 003.7031 8.9212 1.4 1.4 0 00-.19752.7137 1.4 1.4 0 001.4 1.4 1.4 1.4 0 00.71112-.1959 16 16 0 008.9262 3.7092 1.4 1.4 0 001.3627 1.0867 1.4 1.4 0 001.3654-1.0956 16 16 0 008.9318-3.6952 1.4 1.4 0 00.7028.1908 1.4 1.4 0 001.4-1.4 1.4 1.4 0 00-.19672-.7124 16 16 0 003.7233-8.9278 1.4 1.4 0 001.0734-1.3598 1.4 1.4 0 00-1.0956-1.3654 16 16 0 00-3.6958-8.9309 1.4 1.4 0 00.1914-.7037 1.4 1.4 0 00-1.4-1.4 1.4 1.4 0 00-.71272.1969 16 16 0 00-8.9275-3.7232 1.4 1.4 0 00-1.3598-1.0737zm0 .6001a.8.8 0 01.8.7999.8.8 0 01-.8.8.8.8 0 01-.8-.8.8.8 0 01.8-.7999zm-1.3168 1.271a1.4 1.4 0 001.3168.9289 1.4 1.4 0 001.3093-.9092 15.2 15.2 0 018.4352 3.4939 1.4 1.4 0 00-.14448.6153 1.4 1.4 0 001.4 1.4 1.4 1.4 0 00.61776-.1446 15.2 15.2 0 013.4981 8.4321 1.4 1.4 0 00-.91588 1.3125 1.4 1.4 0 00.90916 1.3093 15.2 15.2 0 01-3.4938 8.4352 1.4 1.4 0 00-.61532-.1445 1.4 1.4 0 00-1.4 1.4 1.4 1.4 0 00.14392.6163 15.2 15.2 0 01-8.4314 3.4996 1.4 1.4 0 00-1.3125-.9159 1.4 1.4 0 00-1.309.9082 15.2 15.2 0 01-8.4414-3.4805 1.4 1.4 0 00.15036-.6277 1.4 1.4 0 00-1.4-1.4 1.4 1.4 0 00-.61664.1441 15.2 15.2 0 01-3.5117-8.4274 1.4 1.4 0 00.92836-1.3167 1.4 1.4 0 00-.9082-1.309 15.2 15.2 0 013.4811-8.4412 1.4 1.4 0 00.62708.1502 1.4 1.4 0 001.4-1.4 1.4 1.4 0 00-.14436-.6172 15.2 15.2 0 018.4275-3.5117zm1.3168 2.9288a1.4 1.4 0 00-1.3678 1.1051 11.2 11.2 0 00-9.8322 11.095 11.2 11.2 0 009.8342 11.1 1.4 1.4 0 001.3658 1.1004 1.4 1.4 0 001.3678-1.105 11.2 11.2 0 009.8322-11.095 11.2 11.2 0 00-9.8342-11.1 1.4 1.4 0 00-1.3658-1.1004zm-11 .4001a.8.8 0 01.8.8.8.8 0 01-.8.8.8.8 0 01-.8-.8.8.8 0 01.8-.8zm22 0a.8.8 0 01.8.8.8.8 0 01-.8.8.8.8 0 01-.8-.8.8.8 0 01.8-.8zm-11 .2a.8.8 0 01.8.7999.8.8 0 01-.8.8002.8.8 0 01-.8-.8002.8.8 0 01.8-.7999zm-1.3077 1.2985a1.4 1.4 0 001.3077.9014 1.4 1.4 0 001.3056-.8988 10.4 10.4 0 019.0944 10.299 10.4 10.4 0 01-9.0922 10.302 1.4 1.4 0 00-1.3078-.9014 1.4 1.4 0 00-1.3055.8988 10.4 10.4 0 01-9.0945-10.299 10.4 10.4 0 019.0923-10.302zm1.3077 6.3015a4 4 0 00-4 4 4 4 0 004 4 4 4 0 004-4 4 4 0 00-4-4zm-15.6 3.2001a.8.8 0 01.8.7999.8.8 0 01-.8.7999.8.8 0 01-.8-.7999.8.8 0 01.8-.7999zm31.2 0a.8.8 0 01.8.7999.8.8 0 01-.8.7999.8.8 0 01-.8-.7999.8.8 0 01.8-.7999zm-15.6 10.8a.8.8 0 01.8.8002.8.8 0 01-.8.7999.8.8 0 01-.8-.7999.8.8 0 01.8-.8002zm-11 .2001a.8.8 0 01.8.8.8.8 0 01-.8.8.8.8 0 01-.8-.8.8.8 0 01.8-.8zm22 0a.8.8 0 01.8.8.8.8 0 01-.8.8.8.8 0 01-.8-.8.8.8 0 01.8-.8zm-11 4.6a.8.8 0 01.8.8.8.8 0 01-.8.7999.8.8 0 01-.8-.7999.8.8 0 01.8-.8z" style="color-rendering:auto;color:#000000;fill-rule:evenodd;fill:#fcfcfc;image-rendering:auto;isolation:auto;mix-blend-mode:normal;shape-rendering:auto;solid-color:#000000"/>
    </g>
  </g>
</svg>
