<svg width="256" height="256" version="1.1" viewBox="0 0 256 256" xmlns="http://www.w3.org/2000/svg">
  <g transform="matrix(.57255 0 0 .57255 -62.772 153.53)">
    <g transform="matrix(10.079 0 0 10.079 -995.35 -2346.5)" style="stroke-width:.099219">
      <path transform="scale(.26458)" d="m414.37 788.05v48.057h19.77v9.6445l.0254 37.824c0 31.151 27.059 54.789 58.238 54.789h89.637v-95.08c0-31.179-27.029-54.785-58.236-54.785l-26.076-.0586z" style="fill:#87cf3e"/>
      <g transform="matrix(.12155 0 0 .12155 111.43 203.17)" style="stroke-width:.099219">
        <path d="m80 104v144c0 35.157 28.843 64 64 64h96c35.157 0 64-28.843 64-64v-80c0-26.32-21.68-48-48-48-12.296 0-23.467 4.8602-32 12.586-8.5332-7.7257-19.704-12.586-32-12.586-26.32 0-48 21.68-48 48v80h32v-80c0-9.0261 6.9739-16 16-16s16 6.9739 16 16v80h32v-80c0-9.0261 6.9739-16 16-16s16 6.9739 16 16v80c0 17.863-14.137 32-32 32h-96c-17.863 0-32-14.137-32-32v-144z" style="color-rendering:auto;color:#000000;dominant-baseline:auto;fill:#000000;font-feature-settings:normal;font-variant-alternates:normal;font-variant-caps:normal;font-variant-ligatures:normal;font-variant-numeric:normal;font-variant-position:normal;image-rendering:auto;isolation:auto;mix-blend-mode:normal;shape-padding:0;shape-rendering:auto;solid-color:#000000;text-decoration-color:#000000;text-decoration-line:none;text-decoration-style:solid;text-indent:0;text-orientation:mixed;text-transform:none;white-space:normal"/>
      </g>
    </g>
  </g>
</svg>
