<svg width="64" height="64" version="1.1" xmlns="http://www.w3.org/2000/svg"><defs><filter id="filter3573" x="-.034137" y="-.038078" width="1.0683" height="1.0762" color-interpolation-filters="sRGB"><feGaussianBlur stdDeviation="1.6284922"/></filter><linearGradient id="linearGradient3538" x1="61.429" x2="116.43" y1="362.14" y2="408.57" gradientTransform="matrix(1.0913,0,0,1.0913,196.35,-38.224)" gradientUnits="userSpaceOnUse"><stop stop-color="#c7f994" offset="0"/><stop stop-color="#87cf3e" offset="1"/></linearGradient><linearGradient id="linearGradient4136" x1="70.492" x2="113.64" y1="416.39" y2="375.88" gradientTransform="translate(0,80)" gradientUnits="userSpaceOnUse"><stop stop-color="#3d3d3d" offset="0"/><stop stop-color="#000000" stop-opacity=".11401" offset="1"/></linearGradient><filter id="filter3291" x="-.010643" y="-.013754" width="1.0213" height="1.0275" color-interpolation-filters="sRGB"><feGaussianBlur stdDeviation="0.400625"/></filter><filter id="filter3546" x="-.0058649" y="-.0061415" width="1.0117" height="1.0123" color-interpolation-filters="sRGB"><feGaussianBlur stdDeviation="0.15992437"/></filter></defs><g transform="matrix(.3096 0 0 .3096 -95.378 -74.687)"><g transform="matrix(1.5193,0,0,1.5193,-49.388,-246.89)"><path transform="matrix(1.0429,0,0,1.0429,-46.853,-90.016)" d="m331.79 510.93c-21.29 0-39.766-16.14-39.766-37.411l-.0191-21.992v-6.586h-13.498v-36.651l56.92.26806 17.806.0383c21.309 0 39.766 16.121 39.766 37.411v64.923h-61.209z" fill="#000000" fill-rule="evenodd" filter="url(#filter3573)" opacity=".26"/><path d="m354.83 425.26v-49.445c0-16.519-14.487-29.91-32.361-29.91h-18.552v-.0399l-50.175-.21924v18.041h7.7022c5.3763 0 6.3261 3.7114 6.3261 8.8483l.0399 31.894c0 16.519 14.487 29.91 32.341 29.91h44.082c5.6514 0 10.597-3.579 10.597-9.0792z" fill="url(#linearGradient3538)" fill-rule="evenodd" style="fill:url(#linearGradient3538)"/><path transform="matrix(1.0485,0,0,1.0485,200.58,-95.365)" d="m142.94 500.53c-10.752-7.4094-18.367-15.92-24.781-27.188-12.644-23.358-9.6879-34.953-41-37.688-9.0363 0-15.051-2-24.562-2v3.3125c1e-6 1e-5 3.7587 1.9075 7.0625 1.9075 4.9267 1e-5 5.7812 3.4176 5.7812 8.125l.03125 29.155c-3e-6 15.138 13.295 27.406 29.656 27.406h40.372c2.9636 0 5.6257-1.1679 7.4375-3.0312z" fill="url(#linearGradient4136)" filter="url(#filter3291)" opacity=".17514" style="fill:url(#linearGradient4136)"/><path transform="matrix(1.0485,0,0,1.0485,200.58,-95.365)" d="m105.52 438.54c-3.8367 0-7.2457 1.4244-9.9848 4.1914-2.7377 2.7655-4.1752 6.218-4.1752 10.114v19.695h8.933v-19.69c0-1.4934.48728-2.6611 1.5536-3.7382 1.0698-1.0806 2.2026-1.5697 3.6735-1.5697 1.5018 0 2.6176.4867 3.6897 1.5697 1.0663 1.0771 1.5536 2.2448 1.5536 3.7382v19.695h8.933v-19.69c0-1.4934.48728-2.6611 1.5536-3.7382 1.0721-1.083 2.1879-1.5697 3.6897-1.5697 1.4709 0 2.6037.48916 3.6735 1.5697 1.0663 1.0771 1.5536 2.2448 1.5536 3.7382l.0486 23.012c0 4.9089-4.6749 9.0462-10.681 9.0462l-28.806-.11326c-4.6347 0-8.5931-4.5112-8.5931-10.309v-43.335h-8.4475v45.002c0 4.7747 1.7472 8.9618 5.1462 12.348 2.9052 2.8676 6.3991 4.5644 10.325 4.9843v.16191h32.074c4.9287 0 9.2588-1.8326 12.752-5.389h.0162c2.971-3.0524 4.7079-6.71 5.13-10.826l-.0324-24.582c0-3.8962-1.4374-7.3487-4.1752-10.114-2.7391-2.767-6.1481-4.1914-9.9848-4.1914-3.766 0-7.0613 1.4004-9.7259 3.9648-2.6568-2.5601-5.9291-3.9648-9.6936-3.9648z" fill="#000000" fill-opacity=".080402" fill-rule="evenodd" filter="url(#filter3546)"/><g fill-rule="evenodd"><path d="m310.47 364.69c-4.0228 0-7.5972 1.4935-10.469 4.3947-2.8705 2.8996-4.3777 6.5195-4.3777 10.605v20.65h9.3662v-20.65c0-1.5658.51091-2.7901 1.6289-3.9195 1.1217-1.133 2.3094-1.6458 3.8517-1.6458 1.5746 0 2.7445.51031 3.8686 1.6458 1.118 1.1293 1.6289 2.3537 1.6289 3.9195v20.65h9.3662v-20.65c0-1.5658.51092-2.7901 1.6289-3.9195 1.1241-1.1355 2.294-1.6458 3.8687-1.6458 1.5423 0 2.73.51289 3.8516 1.6458 1.118 1.1293 1.6289 2.3537 1.6289 3.9195l.0509 24.128c0 5.147-4.9016 9.4849-11.199 9.4849l-30.203-.11875c-4.8595 0-9.0099-4.73-9.0099-10.808v-45.437h-8.8572v47.185c0 5.0063 1.8319 9.3964 5.3958 12.946 3.0461 3.0067 6.7094 4.9557 10.825 5.3958l33.63-8e-5c5.1678 0 9.7079-1.9215 13.371-5.6504h.017c3.1151-3.2005 4.9362-7.0354 5.3788-11.351l-.0339-25.774c0-4.0852-1.5071-7.7051-4.3777-10.605-2.8719-2.9012-6.4463-4.3947-10.469-4.3947-3.9487 0-7.4038 1.4683-10.198 4.1571-2.7857-2.6843-6.2166-4.1571-10.164-4.1571z" fill="#ffffff"/><path d="m304.96 413.22v9.25h22c5.1677 0 9.681-1.9274 13.344-5.6562h.0313c3.1151-3.2005 4.9324-7.0278 5.375-11.344v-5.25h-9.3438v3.5938c0 5.147-4.8904 9.4688-11.188 9.4688l-20.219-.0625z" fill="#52a800" opacity=".3"/><path d="m299.85 441.19c-21.29 0-39.766-16.14-39.766-37.411l-.0191-25.828v-6.586h-13.498v-32.816l56.92.26806 17.806.0383c21.309 0 39.766 16.121 39.766 37.411v64.923h-61.209zm52.536-17.416v-47.508c0-15.872-13.919-28.738-31.093-28.738h-17.825v-.0383l-48.209-.21065v15.412h5.4004c3.6664 0 8.0782 3.4455 8.0782 8.5016l.0383 32.566c0 15.872 13.919 28.738 31.074 28.738h42.355c5.4299 0 10.181-3.4387 10.181-8.7235z" fill="#ffffff"/></g></g></g></svg>
