<?xml version="1.0" encoding="UTF-8" standalone="no"?>
<svg id="svg2" xmlns="http://www.w3.org/2000/svg" height="250" width="250" version="1.0">
 <path id="path4" fill="#73ba25" d="m217.27 105.47c-5.4606-.20052-9.747-4.8037-9.5647-10.272.0841-2.6475 1.2158-5.0947 3.139-6.9015 1.931-1.8063 4.4531-2.7465 7.1007-2.6469 5.4684.19137 9.756 4.7869 9.5723 10.264-.0828 2.6392-1.199 5.0862-3.13 6.9008-1.94 1.7984-4.4622 2.7388-7.1175 2.656zm2.2983-8.9826c2.4303 0 4.4027-1.3148 4.4027-2.9295 0-1.6232-1.9725-2.9387-4.4027-2.9387-2.4315 0-4.3962 1.3154-4.3962 2.9387 0 1.6148 1.9647 2.9295 4.3962 2.9295"/>
 <path id="path6" fill-rule="evenodd" fill="#73ba25" d="m104.93 162.43.35143-.033.057-.41614c-.09-.32674-.30193-.62036-.62933-4.6708-.2779-3.5848-.84123-13.416 4.1069-18.291 1.9196-1.9026 4.8504-3.593 7.162-4.1399 9.4801-2.311 21.786-.71053 32.295 11.44 5.4226 6.279 8.0845 9.1451 9.4154 10.427l.4568.42444.55566.40029c.43263.24489 18.062 8.3616 18.062 8.3616l.3591-.09.009-.38312c-.11419-.1307-11.17-14.413-9.211-26.179 1.5516-9.3741 9.0144-8.533 19.328-7.3574 3.3723.38378 7.2102.82473 11.179.91476 11.08.0654 23.019-1.9678 30.376-5.1853 4.7604-2.082 7.7978-3.4542 9.7008-5.1853.68506-.56333 1.0442-1.4939 1.4121-2.474l.25374-.66103c.30959-.79237.75873-2.4906.95543-3.4135.09-.40795.13068-.84941-.15604-1.0695l-1.0201.18774c-3.2251 1.9354-11.302 5.6263-18.862 5.7734-9.3659.19539-28.245-9.4236-30.213-10.444l-.18774-.22009c-.47445-1.1273-3.3076-7.8313-3.9039-9.2434 13.588 8.9491 24.856 13.898 33.487 14.665 9.6031.85708 17.091-4.3848 20.292-6.6229.62803-.42444 1.1025-.76755 1.2979-.84057l.20423-.33493c-.53162-3.3723-5.5533-19.704-9.3417-23.623-1.053-1.0778-1.8942-2.1226-3.593-3.1192-13.726-8.002-46.315-12.837-47.842-13.057l-.26139.0735-.0977.2284s-.12302 6.7611-.13954 7.5128c-3.3318-1.1108-27.525-8.9256-50.21-9.7173-19.229-.67765-45.498-1.5924-82.619 21.222l-1.0943.68571c-17.458 10.893-29.51 24.317-35.814 39.93-1.9761 4.9074-4.6379 15.989-2.0091 26.416 1.1432 4.565 3.2581 9.1375 6.1166 13.237 6.4427 9.2593 17.262 15.409 28.914 16.445 16.445 1.4692 28.906-5.9199 33.34-19.753 3.0456-9.5454 0-23.549-11.677-30.694-9.4966-5.8222-19.72-4.4913-25.64-.57982-5.1442 3.413-8.059 8.7042-8.002 14.527.1142 10.313 9.0068 15.8 15.392 15.809 1.8612 0 3.7231-.31843 5.8299-1.0041.74353-.22905 1.4534-.50617 2.2292-.9883l.23723-.15473.15473-.09-.057.0247c1.4616-.98011 2.3434-2.5964 2.3434-4.3277 0-.47381-.0735-.95542-.20423-1.4374-.75107-2.6047-3.3318-4.1887-6.0101-3.6991l-.3591.0735-.4898.16305-.71052.23723c-1.4698.36729-2.5806.39211-2.809.39964-.75107-.0489-4.4343-1.1507-4.4343-5.1847v-.0488c.009-1.4781.60452-2.5152.93126-3.0786 1.1348-1.7965 4.2706-3.56 8.5082-3.1846 5.5533.47329 9.5542 3.3235 12.208 8.6965 2.4664 4.997 1.8213 11.138-1.6576 15.645-3.4542 4.4673-9.6025 6.3615-17.785 5.4708-8.2474-.90593-15.22-5.6503-19.124-13.04-3.8214-7.2186-4.034-15.784-.54683-22.365 8.3534-15.76 24.121-15.597 32.768-14.102 12.804 2.2127 24.423 12.46 29.592 26.089.82472 2.1721 1.249 3.895 1.6163 5.4626l.55566 2.3598 14.461 7.063.19669.13888.00039-.00013zm102.79-76.923c-2.7265 2.5311-4.2871 5.9852-4.4178 9.709-.25242 7.6752 5.774 14.143 13.449 14.429 3.7402.12238 7.2838-1.1927 10.003-3.7402 2.719-2.5394 4.2794-5.9853 4.4178-9.7008.2614-7.6835-5.7652-14.159-13.456-14.436-3.7237-.12237-7.2762 1.192-9.9952 3.7396"/>
</svg>
