<?xml version="1.0" encoding="UTF-8" standalone="no"?>
<svg id="svg2910" xmlns="http://www.w3.org/2000/svg" height="64" width="64" version="1.1" xmlns:xlink="http://www.w3.org/1999/xlink">
 <defs id="defs8">
  <filter id="filter3573" color-interpolation-filters="sRGB">
   <feGaussianBlur id="feGaussianBlur3575" stdDeviation="1.6284922"/>
  </filter>
  <linearGradient id="linearGradient3538" y2="408.57" gradientUnits="userSpaceOnUse" y1="362.14" gradientTransform="matrix(1.0913 0 0 1.0913 196.35 -38.224)" x2="116.43" x1="61.429">
   <stop id="stop3314" stop-color="#c7f994" offset="0"/>
   <stop id="stop3316" stop-color="#87cf3e" offset="1"/>
  </linearGradient>
  <linearGradient id="linearGradient4136" y2="375.88" gradientUnits="userSpaceOnUse" y1="416.39" gradientTransform="translate(0,80)" x2="113.64" x1="70.492">
   <stop id="stop3433" stop-color="#3d3d3d" offset="0"/>
   <stop id="stop3435" stop-color="#000000" stop-opacity=".11401" offset="1"/>
  </linearGradient>
  <filter id="filter3291" color-interpolation-filters="sRGB">
   <feGaussianBlur id="feGaussianBlur3293" stdDeviation="0.400625"/>
  </filter>
  <filter id="filter3546" color-interpolation-filters="sRGB">
   <feGaussianBlur id="feGaussianBlur3548" stdDeviation="0.15992437"/>
  </filter>
 </defs>
 <g id="g2846" transform="matrix(.44125 0 0 -.44125 2 42)">
  <path id="path24" fill="#e13f20" d="m90.652 45.325c0-25.032-20.293-45.325-45.326-45.325s-45.326 20.293-45.326 45.325c0 25.033 20.293 45.326 45.326 45.326s45.326-20.293 45.326-45.326"/>
  <path id="path26" fill="#ffffff" d="m57.711 66.78c2.8946-1.6719 6.5938-.6817 8.2637 2.2129 1.6719 2.8945.6816 6.5937-2.2129 8.2656-2.8945 1.6699-6.5937.6777-8.2656-2.2168-1.67-2.892-.678-6.591 2.215-8.261zm-12.385-39.132c-2.6602 0-5.1836.5918-7.4453 1.6446l-4.2051-7.5352c3.5117-1.7402 7.4668-2.7226 11.65-2.7226 2.4336 0 4.7871.3378 7.0234.957.3945 2.4316 1.8379 4.6699 4.1387 6 2.2988 1.3262 4.9551 1.457 7.2558.5879 4.4747 4.4004 7.3868 10.385 7.8106 17.051l-8.625.1269c-.793-9.031-8.37-16.11-17.604-16.11zm0 35.354c9.2343 0 16.81-7.08 17.605-16.109l8.6231.1269c-.4238 6.666-3.3359 12.65-7.8106 17.051-2.3007-.8691-4.9589-.7363-7.2558.5879-2.3008 1.3281-3.7442 3.5684-4.1387 6-2.2363.6172-4.5898.9551-7.0234.9551-4.1836 0-8.1387-.9825-11.65-2.7207l4.2051-7.5352c2.2617 1.0527 4.7851 1.6445 7.4453 1.6445zm-17.676-17.677c0 5.9805 2.9707 11.264 7.5156 14.463l-4.4238 7.4102c-5.2949-3.5391-9.2344-8.9473-10.871-15.281 1.9101-1.5586 3.1328-3.9316 3.1328-6.5918 0-2.6586-1.2227-5.0316-3.1328-6.5902 1.6348-6.336 5.5742-11.744 10.871-15.283l4.4238 7.4121c-4.545 3.198-7.516 8.481-7.516 14.461zm30.063-21.452c-2.8945-1.6718-3.8867-5.371-2.2149-8.2636 1.67-2.8946 5.3692-3.8867 8.2637-2.2149 2.8945 1.67 3.8867 5.3692 2.2149 8.2637-1.67 2.8926-5.3711 3.8848-8.2637 2.2148zm-43.207 27.504c-3.3438 0-6.0528-2.7089-6.0528-6.0527 0-3.3422 2.709-6.0512 6.0528-6.0512 3.3418 0 6.0507 2.709 6.0507 6.0512 0 3.3438-2.7089 6.0527-6.0507 6.0527"/>
 </g>
 <g id="layer1" transform="matrix(.20495 0 0 .20495 -44.636 -28.632)">
  <g id="g2720" transform="matrix(1.5193 0 0 1.5193 -49.388 -246.89)">
   <g>
    <path id="path3543" opacity="0.26" d="m331.79 510.93c-21.29 0-39.766-16.14-39.766-37.411l-.0191-21.992v-6.586h-13.498v-36.651l56.92.26806 17.806.0383c21.309 0 39.766 16.121 39.766 37.411v64.923h-61.209z" fill-rule="evenodd" transform="matrix(1.0429 0 0 1.0429 -46.853 -90.016)" filter="url(#filter3573)" fill="#000000"/>
    <path id="path2576" d="m354.83 425.26v-49.445c0-16.519-14.487-29.91-32.361-29.91h-18.552v-.0399l-50.175-.21924v18.041h7.7022c5.3763 0 6.3261 3.7114 6.3261 8.8483l.0399 31.894c0 16.519 14.487 29.91 32.341 29.91h44.082c5.6514 0 10.597-3.579 10.597-9.0792z" fill-rule="evenodd" fill="url(#linearGradient3538)"/>
    <path id="path3419" opacity=".17514" d="m142.94 500.53c-10.752-7.4094-18.367-15.92-24.781-27.188-12.644-23.358-9.6879-34.953-41-37.688-9.0363 0-15.051-2-24.562-2v3.3125c.0000010.000010 3.7587 1.9075 7.0625 1.9075 4.9267.00001 5.7812 3.4176 5.7812 8.125l.03125 29.155c-.000003 15.138 13.295 27.406 29.656 27.406h40.372c2.9636 0 5.6257-1.1679 7.4375-3.0312z" transform="matrix(1.0485 0 0 1.0485 200.58 -95.365)" filter="url(#filter3291)" fill="url(#linearGradient4136)"/>
   </g>
   <path id="path2620" d="m105.52 438.54c-3.8367 0-7.2457 1.4244-9.9848 4.1914-2.7377 2.7655-4.1752 6.218-4.1752 10.114v19.695h8.933v-19.69c0-1.4934.48728-2.6611 1.5536-3.7382 1.0698-1.0806 2.2026-1.5697 3.6735-1.5697 1.5018 0 2.6176.4867 3.6897 1.5697 1.0663 1.0771 1.5536 2.2448 1.5536 3.7382v19.695h8.933v-19.69c0-1.4934.48728-2.6611 1.5536-3.7382 1.0721-1.083 2.1879-1.5697 3.6897-1.5697 1.4709 0 2.6037.48916 3.6735 1.5697 1.0663 1.0771 1.5536 2.2448 1.5536 3.7382l.0486 23.012c0 4.9089-4.6749 9.0462-10.681 9.0462l-28.806-.11326c-4.6347 0-8.5931-4.5112-8.5931-10.309v-43.335h-8.4475v45.002c0 4.7747 1.7472 8.9618 5.1462 12.348 2.9052 2.8676 6.3991 4.5644 10.325 4.9843v.16191h32.074c4.9287 0 9.2588-1.8326 12.752-5.389h.0162c2.971-3.0524 4.7079-6.71 5.13-10.826l-.0324-24.582c0-3.8962-1.4374-7.3487-4.1752-10.114-2.7391-2.767-6.1481-4.1914-9.9848-4.1914-3.766 0-7.0613 1.4004-9.7259 3.9648-2.6568-2.5601-5.9291-3.9648-9.6936-3.9648z" fill-rule="evenodd" fill-opacity=".080402" transform="matrix(1.0485 0 0 1.0485 200.58 -95.365)" filter="url(#filter3546)" fill="#000000"/>
   <g fill-rule="evenodd">
    <path id="path4130" d="m310.47 364.69c-4.0228 0-7.5972 1.4935-10.469 4.3947-2.8705 2.8996-4.3777 6.5195-4.3777 10.605v20.65h9.3662v-20.65c0-1.5658.51091-2.7901 1.6289-3.9195 1.1217-1.133 2.3094-1.6458 3.8517-1.6458 1.5746 0 2.7445.51031 3.8686 1.6458 1.118 1.1293 1.6289 2.3537 1.6289 3.9195v20.65h9.3662v-20.65c0-1.5658.51092-2.7901 1.6289-3.9195 1.1241-1.1355 2.294-1.6458 3.8687-1.6458 1.5423 0 2.73.51289 3.8516 1.6458 1.118 1.1293 1.6289 2.3537 1.6289 3.9195l.0509 24.128c0 5.147-4.9016 9.4849-11.199 9.4849l-30.203-.11875c-4.8595 0-9.0099-4.73-9.0099-10.808v-45.437h-8.8572v47.185c0 5.0063 1.8319 9.3964 5.3958 12.946 3.0461 3.0067 6.7094 4.9557 10.825 5.3958l33.63-.00008c5.1678 0 9.7079-1.9215 13.371-5.6504h.017c3.1151-3.2005 4.9362-7.0354 5.3788-11.351l-.0339-25.774c0-4.0852-1.5071-7.7051-4.3777-10.605-2.8719-2.9012-6.4463-4.3947-10.469-4.3947-3.9487 0-7.4038 1.4683-10.198 4.1571-2.7857-2.6843-6.2166-4.1571-10.164-4.1571z" fill="#ffffff"/>
    <path id="path4132" opacity=".3" d="m304.96 413.22v9.25h22c5.1677 0 9.681-1.9274 13.344-5.6562h.0313c3.1151-3.2005 4.9324-7.0278 5.375-11.344v-5.25h-9.3438v3.5938c0 5.147-4.8904 9.4688-11.188 9.4688l-20.219-.0625z" fill="#52a800"/>
    <path id="path6141" d="m299.85 441.19c-21.29 0-39.766-16.14-39.766-37.411l-.0191-25.828v-6.586h-13.498v-32.816l56.92.26806 17.806.0383c21.309 0 39.766 16.121 39.766 37.411v64.923h-61.209zm52.536-17.416v-47.508c0-15.872-13.919-28.738-31.093-28.738h-17.825v-.0383l-48.209-.21065v15.412h5.4004c3.6664 0 8.0782 3.4455 8.0782 8.5016l.0383 32.566c0 15.872 13.919 28.738 31.074 28.738h42.355c5.4299 0 10.181-3.4387 10.181-8.7235z" fill="#ffffff"/>
   </g>
  </g>
 </g>
</svg>
