<svg width="48" height="48" version="1.1" viewBox="0 0 12.7 12.7" xmlns="http://www.w3.org/2000/svg" xmlns:xlink="http://www.w3.org/1999/xlink">
<defs>
<linearGradient id="linearGradient4779" x1="43" x2="69" y1="994.36" y2="1017.4" gradientTransform="matrix(.1987 0 0 .2108 -2.2217 -205.97)" gradientUnits="userSpaceOnUse">
<stop style="stop-color:#000000;stop-opacity:.57647" offset="0"/>
<stop style="stop-color:#000000;stop-opacity:.57647" offset=".47826"/>
<stop style="stop-color:#000000;stop-opacity:0" offset="1"/>
</linearGradient>
</defs>
<rect x="9.5367e-8" y="9.5367e-8" width="12.7" height="12.7" ry="3.1395e-6" style="fill:#01ff20"/>
<rect x=".41639" y=".41639" width="11.867" height="11.867" ry="2.9337e-6" style="fill:#222222"/>
<path d="m10.403 3.2306-3.6833 1.5024-4.3548-.1779 3.4433 4.9356c.91279 1.2705 1.0149 1.4342 2.115 2.793h4.3601v-6.5347z" style="fill-rule:evenodd;fill:url(#linearGradient4779)"/>
<circle cx="24.056" cy=".28261" r="0" style="fill:#01ff20"/>
<g transform="matrix(1.3636 0 0 1.3636 2.0205 -394.32)">
<rect x=".3616" y="291.56" width="5.6268" height=".80383" fill="#00ff00" stroke="#00ff00" stroke-linecap="round" stroke-linejoin="round" stroke-opacity=".88303" stroke-width=".19403"/>
<g transform="matrix(.29333 0 0 .29333 1.0324 209.96)">
<rect x="6.606" y="279.75" width="8.7879" height="13.702" fill="none" stroke="#00ff00" stroke-linecap="round" stroke-linejoin="round" stroke-opacity=".88303"/>
<g fill="#00ff00">
<rect x="8.1888" y="282.68" width="5.6224" height=".75595"/>
<rect x="8.1888" y="285.35" width="5.6224" height=".75595"/>
<rect x="8.1888" y="288.01" width="5.6224" height=".75595"/>
<rect x="8.1888" y="290.68" width="5.6224" height=".75595"/>
</g>
</g>
</g>
</svg>
